<svg width="512" height="512" viewBox="0 0 512 512" fill="none" xmlns="http://www.w3.org/2000/svg">
<path d="M487.014 454.226C487.014 472.376 442.196 487.089 386.909 487.089C331.623 487.089 286.805 472.376 286.805 454.226L286.934 256.096C289.594 238.73 333.339 265.715 386.909 265.715C440.416 265.715 484.119 239.232 486.878 256.573C486.968 257.151 487.014 454.226 487.014 454.226Z" fill="#FDE580"/>
<path d="M487.014 256.875C487.014 275.024 442.196 289.738 386.909 289.738C331.623 289.738 286.805 275.024 286.805 256.875C286.805 238.726 331.623 224.016 386.909 224.016C442.196 224.016 487.014 238.726 487.014 256.875Z" fill="#FDE580"/>
<path d="M330.217 256.369C330.5 258.115 333.52 259.411 336.963 259.267L342.957 259.018C344.133 260.133 345.716 261.218 347.727 262.231C352.628 264.679 358.001 266.038 363.476 266.214C368.753 266.373 373.341 265.417 376.799 264.249C383.338 262.042 386.845 258.995 387.231 258.648C387.352 258.553 387.467 258.451 387.575 258.341C387.575 258.341 392.753 253.16 399.28 249.452C402.545 247.6 406.155 246.266 408.407 245.945C410.66 245.62 411.567 245.514 414.5 247.354C421.182 251.55 419.742 253.787 417.474 255.862C415.21 257.937 411.276 259.271 411.276 259.271C408.354 260.208 407.485 262.17 409.341 263.648C411.185 265.122 415.04 265.564 417.958 264.631C417.958 264.631 424.342 262.661 428.416 258.935C429.55 257.899 430.419 256.678 430.918 255.337L436.693 255.095C440.136 254.951 442.703 253.42 442.415 251.674C442.128 249.928 439.108 248.632 435.665 248.775L430.211 249.002C429.127 247.158 427.226 245.249 424.236 243.371C419.096 240.143 411.287 238.941 405.017 239.837C398.743 240.733 394.011 242.929 389.948 245.238C382.181 249.645 377.015 254.876 376.553 255.348C376.504 255.386 373.643 257.691 369.856 258.969C367.948 259.615 366.111 259.948 364.217 259.891C362.327 259.834 359.912 259.43 356.522 257.725C353.529 256.221 352.969 255.186 352.943 254.233C352.92 253.281 353.691 252.207 355.109 251.126C357.943 248.964 362.762 247.283 362.762 247.283C365.653 246.326 366.474 244.365 364.588 242.898C362.702 241.432 358.828 241.016 355.932 241.972C355.932 241.972 349.356 244.059 344.692 247.615C342.833 249.029 341.204 250.763 340.648 252.755L335.931 252.948C332.492 253.095 329.933 254.626 330.217 256.369Z" fill="white"/>
<path d="M286.805 298.431C286.805 298.431 321.679 323.595 379.555 325.753C437.43 327.911 457.201 317.483 453.603 321.437C450.012 325.394 420.532 336.536 363.737 332.942C306.939 329.347 286.805 312.812 286.805 312.812V298.431ZM286.805 353.018C286.805 353.018 321.679 378.183 379.555 380.337C437.43 382.491 457.201 372.071 453.603 376.024C450.012 379.978 420.532 391.124 363.737 387.525C306.939 383.935 286.805 367.396 286.805 367.396V353.018ZM286.805 415.358C286.805 415.358 321.679 440.522 379.555 442.68C437.427 444.834 457.201 434.41 453.603 438.364C450.012 442.317 420.532 453.463 363.737 449.869C306.939 446.274 286.805 429.739 286.805 429.739V415.358Z" fill="black"/>
<path d="M335.47 460.126C335.47 475.225 298.185 487.463 252.192 487.463C206.196 487.463 168.911 475.225 168.911 460.126L169.02 388.901C171.231 374.448 207.624 396.899 252.192 396.899C296.707 396.899 333.063 374.871 335.357 389.294C335.432 389.774 335.47 460.126 335.47 460.126Z" fill="#80D092"/>
<path d="M335.47 389.547C335.47 396.798 326.696 403.751 311.079 408.877C295.461 414.004 274.279 416.884 252.192 416.885C230.105 416.885 208.922 414.005 193.303 408.878C177.685 403.751 168.911 396.798 168.911 389.547C168.911 382.297 177.685 375.344 193.303 370.217C208.922 365.09 230.105 362.21 252.192 362.21C274.28 362.21 295.463 365.09 311.081 370.217C326.7 375.344 335.47 382.297 335.47 389.547Z" fill="#80D092"/>
<path d="M205.028 389.124C205.084 389.469 205.274 389.806 205.586 390.114C205.899 390.422 206.328 390.696 206.849 390.919C207.371 391.143 207.974 391.313 208.624 391.419C209.274 391.524 209.96 391.564 210.64 391.535L215.625 391.328C216.608 392.257 217.923 393.161 219.594 394C223.316 395.859 227.37 396.964 231.521 397.253C235.672 397.542 239.839 397.008 243.783 395.682C249.218 393.845 252.136 391.309 252.461 391.021C252.564 390.939 252.659 390.853 252.744 390.764C252.744 390.764 257.053 386.456 262.484 383.372C265.198 381.83 268.202 380.718 270.077 380.45C271.952 380.186 272.704 380.095 275.141 381.626C280.705 385.118 279.507 386.977 277.621 388.705C275.739 390.432 272.466 391.539 272.466 391.539C271.887 391.724 271.387 391.966 270.993 392.249C270.599 392.533 270.319 392.853 270.169 393.191C270.019 393.53 270.002 393.88 270.119 394.221C270.237 394.563 270.485 394.89 270.852 395.183C271.59 395.773 272.759 396.19 274.104 396.343C275.448 396.496 276.857 396.372 278.021 395.999C278.021 395.999 283.332 394.363 286.722 391.26C287.667 390.398 288.392 389.381 288.804 388.266L293.608 388.066C294.289 388.038 294.953 387.942 295.561 387.784C296.169 387.625 296.71 387.408 297.152 387.144C297.594 386.879 297.93 386.573 298.139 386.243C298.348 385.913 298.426 385.565 298.37 385.22C298.314 384.874 298.124 384.538 297.811 384.23C297.498 383.922 297.069 383.648 296.547 383.424C296.026 383.2 295.422 383.03 294.771 382.925C294.12 382.819 293.435 382.78 292.754 382.809L288.219 382.998C287.312 381.463 285.728 379.876 283.245 378.311C278.966 375.627 272.473 374.626 267.257 375.374C262.042 376.119 258.1 377.944 254.717 379.864C250.654 382.173 246.908 385.001 243.575 388.278C243.537 388.308 241.156 390.224 238.004 391.29C236.417 391.826 234.89 392.102 233.314 392.053C231.737 392.008 229.734 391.675 226.911 390.254C224.42 389.007 223.955 388.141 223.933 387.352C223.914 386.558 224.553 385.662 225.732 384.763C228.094 382.964 232.1 381.565 232.1 381.565C233.255 381.184 234.064 380.585 234.349 379.901C234.635 379.217 234.374 378.504 233.623 377.918C233.25 377.628 232.768 377.377 232.204 377.182C231.64 376.986 231.005 376.849 230.337 376.777C229.668 376.706 228.978 376.702 228.307 376.767C227.635 376.831 226.995 376.961 226.423 377.151C226.423 377.151 220.951 378.882 217.069 381.841C215.523 383.02 214.166 384.464 213.705 386.116L209.782 386.282C208.409 386.339 207.136 386.671 206.243 387.203C205.351 387.736 204.913 388.427 205.024 389.124H205.028Z" fill="white"/>
<path d="M168.911 424.402C168.911 424.402 197.922 445.341 246.07 447.132C294.221 448.927 310.669 440.253 307.676 443.542C304.69 446.834 280.161 456.105 232.913 453.115C185.661 450.126 168.911 436.368 168.911 436.368V424.402Z" fill="black"/>
<path d="M194.668 25.0091C177.358 25.1376 153.411 26.2526 141.331 30.9808C121.111 38.8989 115.767 43.8765 95.5123 66.1C75.2616 88.3236 58.9266 76.8717 44.4208 77.5747C29.915 78.2777 7.58558 188.504 46.9795 287.092C86.3772 385.681 153.702 409.753 153.702 409.753C153.702 409.753 227.535 393.512 297.762 301.005C367.989 208.497 381.308 97.7686 367.282 95.4858C353.26 93.203 333.55 102.652 320.764 78.5914C307.982 54.5385 304.323 49.062 286.994 39.0614C275.875 32.6475 249.981 28.8189 232.86 26.9064C223.302 25.8368 206.328 24.9184 194.668 25.0091Z" fill="#599EFC"/>
<path d="M369.939 97.7573C363.338 100.807 356.334 102.898 349.141 103.967C318.307 108.48 300.26 109.984 286.726 124.271C273.187 138.557 138.792 352.236 138.792 352.236C138.792 352.236 125.212 376.387 153.705 409.753C153.705 409.753 227.535 393.512 297.762 301.005C362.766 215.38 379.003 114.157 369.939 97.7573Z" fill="black"/>
<path d="M170.709 52.4408C157.217 52.5428 138.565 53.4083 129.15 57.0971C113.397 63.2653 109.232 67.1431 93.4486 84.4608C77.6691 101.779 64.9397 92.8551 53.6351 93.4032C42.3344 93.9474 24.9335 179.841 55.6307 256.659C86.3279 333.482 138.791 352.24 138.791 352.24C138.791 352.24 196.319 339.586 251.043 267.503C305.763 195.416 316.142 109.141 305.215 107.357C294.285 105.581 278.928 112.943 268.969 94.1969C259.007 75.4505 256.153 71.1834 242.653 63.3938C233.986 58.3935 213.815 55.4115 200.473 53.9185C193.024 53.087 179.795 52.3689 170.709 52.4408Z" fill="#FDE580"/>
<path d="M236.704 133.67C234.712 133.738 232.49 134.385 230.301 135.673C222.024 140.541 183.141 173.261 160.433 197.487C151.933 189.407 138.754 177.796 131.308 173.412C122.555 168.264 113.287 173.412 120.238 184.482C120.238 184.482 130.983 215.217 148.747 231.439C149.525 232.149 150.312 232.754 151.102 233.321C153.966 236.277 158.101 237.668 162.686 236.798H162.693C165.558 236.506 168.245 235.274 170.335 233.295C171.103 232.735 171.87 232.134 172.633 231.439C190.397 215.217 241.372 146.74 241.372 146.74C246.587 138.436 242.679 133.462 236.704 133.67Z" fill="black"/>
<path d="M222.961 193.7C221.712 203.23 218.721 212.436 214.157 220.793C209.593 229.15 203.547 236.494 196.363 242.407C189.18 248.319 181 252.683 172.29 255.251C163.58 257.818 154.512 258.538 145.602 257.37C136.693 256.202 128.116 253.168 120.363 248.442C112.61 243.716 105.832 237.39 100.415 229.826C94.9988 222.262 91.0504 213.607 88.7954 204.356C86.5405 195.105 86.0231 185.439 87.2729 175.91C88.5223 166.381 91.5144 157.175 96.0783 148.819C100.642 140.462 106.688 133.118 113.872 127.206C121.055 121.294 129.235 116.93 137.945 114.363C146.654 111.796 155.723 111.076 164.632 112.244C182.625 114.603 198.879 124.511 209.818 139.787C220.756 155.063 225.484 174.456 222.961 193.7Z" fill="#FD6B6A"/>
<path d="M214.662 147.564C198.969 160.459 175.937 180.944 160.433 197.484C151.933 189.407 138.754 177.792 131.308 173.412C122.555 168.264 113.287 173.412 120.238 184.482C120.238 184.482 130.983 215.221 148.747 231.439C149.525 232.149 150.312 232.754 151.102 233.317C153.963 236.277 158.105 237.671 162.686 236.798H162.693C165.557 236.507 168.244 235.277 170.335 233.298C171.103 232.735 171.874 232.134 172.637 231.439C183.398 221.612 206.245 192.721 222.667 171.382C221.332 162.98 218.623 154.919 214.662 147.564Z" fill="black"/>
<path d="M225.12 121.768C223.128 121.837 220.905 122.483 218.717 123.772C210.44 128.64 171.556 161.359 148.853 185.582C140.349 177.505 127.17 165.891 119.724 161.51C110.971 156.362 101.703 161.51 108.654 172.58C108.654 172.58 119.399 203.315 137.163 219.537C137.941 220.248 138.731 220.852 139.517 221.415C142.382 224.375 146.521 225.769 151.102 224.896H151.109C153.973 224.604 156.661 223.372 158.751 221.393C159.519 220.833 160.29 220.232 161.053 219.537C178.817 203.315 229.787 134.838 229.787 134.838C235.003 126.534 231.095 121.561 225.12 121.768Z" fill="white"/>
</svg>
