<svg width="512" height="512" viewBox="0 0 512 512" fill="none" xmlns="http://www.w3.org/2000/svg">
<path d="M35.2858 405.071L14.8918 131.723L504.285 128.968L464.604 414.442L35.2858 405.071Z" fill="#7287F6"/>
<path d="M8.83301 125.659L512 121.251L504.285 150.457L10.783 143.202L8.83301 125.659ZM11.588 192.896L500.428 187.386L497.672 203.366L14.892 217.694L11.588 192.896ZM26.873 159.287H106.482V161.778H26.873V159.287Z" fill="#021673"/>
<path d="M32.1196 176.734L103.016 173.897L103.115 176.381L32.219 179.218L32.1196 176.734Z" fill="#021673"/>
<path d="M48.3308 160.58L50.8189 160.483L51.4398 176.514L48.9517 176.611L48.3308 160.58Z" fill="#021673"/>
<path d="M80.0593 160.561L82.5488 160.512L82.8417 175.154L80.3522 175.203L80.0593 160.561Z" fill="#021673"/>
<path d="M66.3679 176.56H68.8499V187.386H66.3679V176.56Z" fill="#021673"/>
<path d="M59.3733 160.421L60.5026 147.981L62.9774 148.206L61.8481 160.646L59.3733 160.421Z" fill="#021673"/>
<path d="M410.265 174.51L410.338 172.024L474.707 173.923L474.634 176.409L410.265 174.51Z" fill="#021673"/>
<path d="M405.638 159.287H478.083V161.778H405.638V159.287Z" fill="#021673"/>
<path d="M424.925 160.579L427.408 160.468L428.021 174.164L425.538 174.276L424.925 160.579Z" fill="#021673"/>
<path d="M453.519 160.544L456.006 160.49L456.323 175.132L453.835 175.186L453.519 160.544Z" fill="#021673"/>
<path d="M443.618 175.174H446.108V185.101H443.618V175.174Z" fill="#021673"/>
<path d="M436.731 160.469L437.053 153.005L439.54 153.112L439.218 160.577L436.731 160.469Z" fill="#021673"/>
<path d="M87.6418 202.54L405.638 195.651L256.014 53.4659L87.6418 202.54Z" fill="#7287F6"/>
<path d="M111.613 195.363L259.652 72.183L260.452 72.961L377.746 186.323L111.613 195.363ZM259.526 75.524L118.788 192.634L371.8 184.036L259.526 75.524Z" fill="#021673"/>
<path d="M228.889 172.349V156.299C228.889 156.299 262.284 162.925 265.652 148.969C269.017 135.008 230.633 143.384 230.633 122.099C230.633 100.814 258.9 93.8319 274.603 104.299L272.514 115.82C272.514 115.82 238.659 107.439 238.314 122.098C237.966 136.754 275.302 125.936 274.604 148.968C273.91 171.999 256.458 180.026 228.889 172.349Z" fill="#FFD500"/>
<path d="M244.241 186.658C243.195 186.31 245.988 91.3899 245.988 91.3899H251.753L250.177 184.216L244.241 186.658ZM254.363 181.771L259.946 91.3889L265.652 93.8319L260.013 181.771H254.363Z" fill="#FFD500"/>
<path d="M186.294 422.708L184.087 303.147H174.166V282.175L320.768 279.42L316.905 303.147H304.779L301.473 427.394" fill="#021673"/>
<path d="M197.591 414.442V300.157L295.858 297.666L292.126 417.906" fill="#7287F6"/>
<path d="M287.98 338.715L203.813 343.693L201.325 303.147H290.468L287.98 338.715Z" fill="white"/>
<path d="M245.459 422.152L246.175 289.331L248.663 289.345L247.947 422.166L245.459 422.152Z" fill="#021673"/>
<path d="M240.193 406.505H237.708V349.979L205.364 351.71V406.505H202.879V349.353L240.193 347.355V406.505ZM282.962 410.253C282.895 410.253 282.826 410.25 282.751 410.248L281.555 410.205V408.993H282.724L281.566 408.83C281.7 407.709 284.548 369.547 286.124 348.356H256.054V406.506H253.563V345.869H288.801L284.799 399.431C284.379 404.95 284.168 407.668 283.911 408.994C283.687 410.121 283.43 410.253 282.962 410.253ZM201.563 345.156L199.902 301.778H291.936L289.261 340.012L201.563 345.156ZM202.748 304.517L204.195 342.256L286.698 337.417L288.998 304.517H202.748Z" fill="#021673"/>
<path d="M66.702 289.339L61.74 227.613H110.792L105.278 289.339H66.702Z" fill="white"/>
<path d="M63.1199 285.54H68.8499L63.1199 230.189H108.657L103.681 285.54L108.657 286.784L112.172 225.523L58.5879 223.969L63.1199 285.54Z" fill="#021673"/>
<path d="M60.614 283.208L110.792 281.809V292.383L61.74 291.602L60.614 283.208Z" fill="#021673"/>
<path d="M84.4866 287.855L85.0051 227.595L87.495 227.617L86.9765 287.877L84.4866 287.855Z" fill="#021673"/>
<path d="M63.0491 258.84L108.029 256.457L108.161 258.942L63.1807 261.324L63.0491 258.84Z" fill="#021673"/>
<path d="M399.392 282.188L394.43 220.465H443.482L437.974 282.188H399.392Z" fill="white"/>
<path d="M395.81 278.387H401.546L395.81 223.036H441.347L436.374 278.387L441.347 279.631L444.86 218.373L391.281 216.816L395.81 278.387Z" fill="#021673"/>
<path d="M393.306 276.055L443.482 274.658V285.23L394.43 284.454L393.306 276.055Z" fill="#021673"/>
<path d="M419.642 280.733L417.152 280.706L417.716 220.451L420.204 220.478L419.642 280.733Z" fill="#021673"/>
<path d="M395.73 251.654L440.713 249.358L440.84 251.842L395.857 254.138L395.73 251.654Z" fill="#021673"/>
<path d="M398.788 368.961L393.825 307.235H442.88L437.367 368.961H398.788Z" fill="white"/>
<path d="M395.203 365.163H400.938L395.203 309.808H440.743L435.767 365.163L440.743 366.406L444.258 305.143L390.677 303.591L395.203 365.163Z" fill="#021673"/>
<path d="M392.699 362.83L442.88 361.431V372.002L393.825 371.224L392.699 362.83Z" fill="#021673"/>
<path d="M416.588 367.475L417.106 307.218L419.597 307.239L419.079 367.496L416.588 367.475Z" fill="#021673"/>
<path d="M395.154 338.413L440.136 336.093L440.264 338.58L395.282 340.9L395.154 338.413Z" fill="#021673"/>
<path d="M68.0769 371.457L63.1199 309.73H112.172L106.659 371.457H68.0769Z" fill="white"/>
<path d="M65.142 367.958H70.875L65.142 312.606H110.679L105.704 367.958L110.679 369.204L114.189 307.944L60.614 306.387L65.142 367.958Z" fill="#021673"/>
<path d="M62.636 365.628L112.811 364.229V374.801L63.759 374.022L62.636 365.628Z" fill="#021673"/>
<path d="M86.4873 370.281L87.0718 310.021L89.5598 310.045L88.9753 370.305L86.4873 370.281Z" fill="#021673"/>
<path d="M65.0881 341.229L110.066 338.905L110.195 341.391L65.2166 343.715L65.0881 341.229Z" fill="#021673"/>
<path d="M358.67 226.149L361.471 211.528H343.433V217.215L162.144 223.637V217.694L144.727 220.465L147.218 229.255H152.816V266.572H144.727L146.284 281.809L162.765 280.72L163.441 274.573L339.704 273.171V277.767H354.631V265.018L349.513 265.55L353.74 225.28L358.67 226.149Z" fill="#FFD500"/>
<path d="M343.091 270.924H159.964V228.07L344.402 219.157L343.091 270.924ZM162.454 268.436H340.667L341.844 221.77L162.454 230.44V268.436Z" fill="#FFAA00"/>
<path d="M243.155 230.742L235.496 231.577L228.533 263.961H234.801L236.885 252.991L242.979 253.167L244.897 263.091H252.906L243.155 230.742ZM237.061 247.354V246.375L239.763 238.722L242.459 247.354H237.061ZM217.386 247.921C217.386 247.921 226.267 245.709 225.219 236.819C224.178 227.933 201.893 231.416 201.893 231.416L203.11 238.39H207.117L208.508 259.277H204.851V266.029C204.851 266.029 226.792 265.424 227.484 257.3C228.182 249.176 217.386 247.921 217.386 247.921ZM212.683 236.451C212.683 236.451 220.173 235.378 220.521 239.747C220.869 244.115 213.558 243.04 213.558 243.04L212.683 236.451ZM214.706 257.757L213.834 251.168C213.834 251.168 221.319 250.098 221.667 254.466C222.016 258.835 214.706 257.757 214.706 257.757ZM256.891 263.105L254.104 231.756L262.115 230.742L269.597 251.057L270.295 230.421L277.606 230.742L276.041 263.961L269.774 263.105L261.067 243.954L262.634 263.105H256.891ZM281.787 263.105V230.743H288.229L286.49 243.955L295.133 230.743L300.416 231.757L291.104 243.955L301.609 261.541L292.583 263.106L286.837 249.517V263.106L281.787 263.105Z" fill="#FFAA00"/>
<path d="M92.7939 150.457H95.285V160.531H92.7939V150.457Z" fill="#021673"/>
<path d="M18.2628 396.254H478.922L470.668 428.221H494.244L492.162 458.534L6.6308 455.228L0.0187988 424.914L26.7298 425.542L18.2628 396.254Z" fill="#7287F6"/>
<path d="M17.647 393.766H480.036V398.744H17.647V393.766Z" fill="#021673"/>
<path d="M0.0107422 427.396L0.0440981 422.419L494.94 425.735L494.907 430.712L0.0107422 427.396Z" fill="#021673"/>
</svg>
