<svg width="512" height="512" viewBox="0 0 512 512" fill="none" xmlns="http://www.w3.org/2000/svg">
<path d="M499.688 191.616L482.236 420.317H39.9729L14.7949 187.218L499.688 191.616Z" fill="#FFCA93"/>
<path d="M486.162 368.883H34.418L39.973 420.317H482.236L486.162 368.883Z" fill="#594343"/>
<path d="M56.0181 256.189L131.404 253.638L133.238 342.055H62.8221L56.0181 256.189Z" fill="#7BB4D0"/>
<path d="M138.32 337.363L134.677 256.981H144.491L143.311 250.511H133.307C133.307 250.511 121.528 217.122 90.698 217.531C59.87 217.906 56.932 252.461 56.932 252.461L45.938 251.675L46.926 258.945L53.996 259.338L55.424 336.171L51.041 336.11L52.016 351.405H144.491L146.456 337.474L138.32 337.363ZM126.318 337.19L66.199 336.326L60.279 258.743L127.404 256.982L126.318 337.19Z" fill="#594343"/>
<path d="M59.3923 283.937L132.015 282.91L132.06 286.052L59.4368 287.079L59.3923 283.937Z" fill="#594343"/>
<path d="M60.9688 314.834L129.811 314.325L129.834 317.468L60.992 317.977L60.9688 314.834Z" fill="#594343"/>
<path d="M89.4871 255.44L92.6274 255.377L94.3868 343.327L91.2464 343.39L89.4871 255.44Z" fill="#594343"/>
<path d="M389.498 251.225H463.053V338.454H384.785L389.498 251.225Z" fill="#7BB4D0"/>
<path d="M473.633 255.019L474.606 247.748L463.612 248.534C463.612 248.534 460.674 213.98 429.845 213.605C399.034 213.197 387.255 246.585 387.255 246.585H377.233L376.055 253.056H385.871L382.226 333.438L374.091 333.546L376.054 347.477H468.527L469.502 332.182L465.135 332.244L466.565 255.411L473.633 255.019ZM454.346 332.399L394.223 333.262L393.143 253.055L460.284 254.815L454.346 332.399Z" fill="#594343"/>
<path d="M425.625 250.481L428.767 250.454L429.546 342.074L426.404 342.101L425.625 250.481Z" fill="#594343"/>
<path d="M388.687 275.051L462.244 274.011L462.288 277.154L388.732 278.194L388.687 275.051Z" fill="#594343"/>
<path d="M388.67 307.053L388.768 303.915L462.323 306.211L462.225 309.349L388.67 307.053Z" fill="#594343"/>
<path d="M512 180.417L507.682 202.798H7.07L0 180.417C0 180.417 105.777 182.555 143.502 183.306C146.99 124.554 198.754 77.9399 262.096 77.9399C324.381 77.9399 375.475 123.032 380.453 180.417H512Z" fill="#594343"/>
<path opacity="0.2" d="M348.27 180.417L168.444 183.952C168.444 183.952 170.407 93.645 258.358 92.859C346.307 92.074 348.27 180.417 348.27 180.417Z" fill="white"/>
<path d="M177.312 176.628L177.48 174.901C177.554 174.108 186.039 95.6119 259.39 94.9529L260.296 94.9509C332.876 94.9509 338.21 173.643 338.253 174.439L338.347 176.092L336.691 176.1L177.312 176.628ZM260.297 98.0909L259.42 98.0959C194.86 98.6709 182.524 162.107 180.836 173.476L334.988 172.963C333.908 161.52 324.992 98.0909 260.297 98.0909Z" fill="#594343"/>
<path d="M246.867 168.093C247.015 167.353 247.164 166.565 247.31 165.727C247.458 165.036 247.63 164.297 247.83 163.509C248.014 162.758 248.235 162.018 248.494 161.29C246.721 161.145 244.932 160.552 243.133 159.519C241.336 158.483 239.6 156.907 237.924 154.787L243.246 143.994C243.592 144.683 244.045 145.387 244.613 146.101C245.176 146.813 245.794 147.48 246.461 148.095C247.095 148.689 247.803 149.199 248.568 149.612C249.306 150.007 249.996 150.202 250.636 150.202C251.917 150.202 253.075 149.797 254.111 148.982C255.146 148.17 255.662 146.754 255.662 144.733C255.662 143.845 255.342 142.959 254.705 142.071C254 141.112 253.22 140.21 252.373 139.374C251.463 138.464 250.453 137.501 249.344 136.491C248.259 135.506 247.246 134.444 246.315 133.312C245.421 132.232 244.651 131.054 244.022 129.801C243.41 128.586 243.093 127.244 243.098 125.884C243.098 124.404 243.432 122.963 244.096 121.559C244.785 120.121 245.709 118.809 246.832 117.677C248.03 116.463 249.369 115.396 250.82 114.499C252.3 113.577 253.845 112.761 255.441 112.059C255.837 110.238 256.191 108.732 256.515 107.55C256.85 106.312 257.206 105.08 257.585 103.855L267.712 102.672L264.757 110.138C266.087 110.188 267.331 110.396 268.489 110.766C269.645 111.136 270.655 111.679 271.518 112.392C272.381 113.107 273.059 114.032 273.551 115.164C274.043 116.299 274.291 117.653 274.291 119.229C274.291 119.92 274.24 120.585 274.141 121.225C274.036 121.914 273.938 122.603 273.846 123.294L263.203 125.661C263.301 125.068 263.375 124.686 263.424 124.514C263.471 124.342 263.498 124.182 263.498 124.033C263.498 122.507 263.215 121.424 262.648 120.782C262.08 120.142 261.404 119.822 260.617 119.822C260.121 119.822 259.615 119.932 259.101 120.154C258.576 120.379 258.079 120.665 257.619 121.004C257.149 121.353 256.77 121.809 256.514 122.335C256.247 122.861 256.107 123.443 256.106 124.033C256.106 124.824 256.44 125.574 257.106 126.289C257.772 127.005 258.594 127.731 259.581 128.47C260.565 129.208 261.636 130.023 262.798 130.909C263.981 131.822 265.058 132.863 266.011 134.014C266.997 135.197 267.823 136.576 268.49 138.153C269.154 139.732 269.488 141.58 269.488 143.696C269.488 145.718 269.164 147.603 268.527 149.352C267.897 151.08 266.985 152.691 265.828 154.121C264.675 155.545 263.317 156.79 261.799 157.816C260.247 158.863 258.555 159.684 256.772 160.255C256.575 161.63 256.416 163.01 256.293 164.394C256.168 165.775 256.107 166.735 256.107 167.278L246.867 168.093Z" fill="#FFB200"/>
<path d="M182.572 414.822L172.756 236.566L351.02 234.604L338.455 414.822H182.572Z" fill="#594343"/>
<path d="M249.523 289.572L191.209 290.553C191.209 290.553 190.621 254.235 220.369 253.645C250.111 253.056 249.523 289.572 249.523 289.572ZM336.688 287.609L274.456 289.374C274.456 289.374 277.009 256.786 305.571 256.198C334.135 255.608 336.688 287.609 336.688 287.609Z" fill="#7BB4D0"/>
<path opacity="0.2" d="M194.352 340.065V308.142L251.096 303.774V338.612L194.352 340.065ZM197.492 311.05V336.842L247.951 335.549V307.168L197.492 311.05ZM249.074 390.872H198.607L195.732 358.223L197.263 358.088L197.23 357.303L250.367 355.073L249.074 390.872ZM201.482 387.729H246.044L247.106 358.352L199.073 360.37L201.482 387.729ZM332.525 337.671H279.164V303.9H333.391L332.525 337.671ZM282.309 334.527H329.461L330.168 307.043H282.309V334.527ZM325.147 392.528L276.165 389.6L277.458 355.14H328.802L325.147 392.528ZM279.42 386.647L322.315 389.211L325.338 358.284H280.48L279.42 386.647Z" fill="white"/>
<path opacity="0.2" d="M334.525 423.303L331.393 423.095L343.32 243.634H180.67L186.498 413.199L183.359 413.308L177.418 240.49H346.678L334.525 423.303Z" fill="white"/>
<path opacity="0.2" d="M260.328 247.039L263.469 247.008L265.183 416.627L262.042 416.659L260.328 247.039Z" fill="white"/>
<path d="M254.17 347.383C254.17 349.606 250.828 351.403 246.711 351.403C242.592 351.403 239.25 349.605 239.25 347.383C239.25 345.162 242.592 343.362 246.711 343.362C250.828 343.362 254.17 345.162 254.17 347.383ZM281.916 346.731C281.916 349.312 278.867 351.403 275.111 351.403C271.349 351.403 268.306 349.312 268.306 346.731C268.306 344.147 271.349 342.054 275.111 342.054C278.867 342.055 281.916 344.147 281.916 346.731Z" fill="#FFB200"/>
<path d="M194.084 287.126L194.371 285.275C194.543 284.145 198.834 257.602 217.644 255.941C236.531 254.252 245.121 282.84 245.466 284.022L246.044 285.99L194.084 287.126ZM219.193 259.013C218.777 259.013 218.353 259.033 217.923 259.07C204.204 260.281 199.14 278.049 197.841 283.9L241.792 282.943C239.623 276.897 232.102 259.013 219.193 259.013ZM330.428 286.038H278.807L279.198 284.147C279.253 283.887 284.805 258.29 305.571 258.29C324.602 258.29 329.835 283.099 330.048 284.153L330.428 286.038ZM282.773 282.895H326.488C324.918 277.343 319.226 261.435 305.57 261.435C290.443 261.435 284.418 277.336 282.773 282.895Z" fill="#594343"/>
<path d="M190.033 372.22C190.033 376.234 184.582 379.486 177.859 379.486C171.136 379.486 165.687 376.234 165.687 372.22C165.687 368.208 171.136 364.957 177.859 364.957C184.582 364.957 190.033 368.208 190.033 372.22ZM355.338 372.22C355.338 376.668 350.067 380.271 343.559 380.271C337.053 380.271 331.78 376.668 331.78 372.22C331.78 367.777 337.053 364.174 343.559 364.174C350.066 364.174 355.338 367.776 355.338 372.22ZM336.885 406.184L335.422 434.06H184.928V406.184H336.885Z" fill="#FFB200"/>
<path d="M185.842 414.058L335.305 411.637L335.356 414.78L185.893 417.201L185.842 414.058Z" fill="#594343"/>
<path d="M185.85 423.456H335.899V426.599H185.85V423.456Z" fill="#594343"/>
<path d="M195.135 384.98L190.738 434.06H178.85L165.688 384.98H195.135ZM355.338 386.552L340.48 434.06H327.461L328.77 384.98L355.338 386.552Z" fill="#FFB200"/>
</svg>
