<svg width="512" height="512" viewBox="0 0 512 512" fill="none" xmlns="http://www.w3.org/2000/svg">
<path d="M253.864 509.876C171.59 509.876 94.058 469.715 46.466 402.445C16.065 359.423 0 308.781 0 255.988C0 255.557 0.002 255.112 0.014 254.67C0 254.162 0.004 253.655 0.026 253.152C0.033 251.069 0.085 249.007 0.16 246.946C2.458 181.08 29.874 119.483 77.353 73.539C124.945 27.487 187.63 2.12402 253.863 2.12402C393.859 2.12402 507.752 116.007 507.752 255.988C507.752 262.04 507.533 268.138 507.097 274.227C508.643 275.629 509.878 277.339 510.723 279.247C511.567 281.155 512.002 283.219 512 285.306V416.525C512 433.681 498.608 447.637 482.145 447.637H420.388C374.185 487.817 315.284 509.876 253.864 509.876Z" fill="white"/>
<path d="M492.782 255.988C492.782 387.935 385.812 494.905 253.865 494.905C173.244 494.905 101.956 454.957 58.689 393.799C31.167 354.849 14.973 307.315 14.973 255.988C14.973 255.539 14.973 255.065 14.998 254.616C14.973 254.275 14.973 253.934 14.998 253.593C14.998 251.547 15.048 249.526 15.123 247.505C19.588 119.499 124.787 17.095 253.865 17.095C385.812 17.095 492.782 124.066 492.782 255.988Z" fill="#7886F3"/>
<path d="M202.21 67.1391L203.378 53.9021C203.426 53.3611 204.197 53.3081 204.317 53.8381L207.207 66.5561C207.407 67.4375 207.887 68.2308 208.573 68.8184C209.26 69.406 210.118 69.7565 211.02 69.8181L224.084 70.7081C224.62 70.7441 224.695 71.5021 224.177 71.6431L211.504 75.0971C210.692 75.3187 209.965 75.7789 209.418 76.418C208.87 77.0571 208.527 77.8458 208.433 78.6821L206.831 92.9001C206.77 93.4421 205.994 93.4731 205.89 92.9371L203.395 80.0781C203.222 79.1851 202.763 78.3724 202.089 77.7621C201.414 77.1517 200.56 76.7766 199.654 76.6931L185.182 75.0351C184.873 75.0001 184.842 74.5621 185.143 74.4841L198.977 70.8641C199.839 70.6627 200.616 70.1941 201.197 69.5253C201.777 68.8564 202.132 68.0213 202.21 67.1391ZM88.2369 317.797L89.4049 304.56C89.4519 304.019 90.224 303.966 90.344 304.496L93.234 317.214C93.4344 318.095 93.9136 318.889 94.6004 319.476C95.2872 320.064 96.1452 320.415 97.0469 320.476L110.111 321.366C110.647 321.402 110.722 322.16 110.204 322.301L97.5309 325.755C96.7191 325.977 95.9924 326.437 95.4449 327.076C94.8974 327.715 94.5543 328.504 94.4599 329.34L92.858 343.557C92.797 344.099 92.021 344.13 91.917 343.594L89.4219 330.735C89.2486 329.842 88.7902 329.029 88.1157 328.419C87.4411 327.809 86.5868 327.434 85.681 327.35L71.2089 325.692C70.8989 325.657 70.8689 325.219 71.1699 325.141L85.0049 321.521C85.8672 321.32 86.6439 320.851 87.2243 320.183C87.8046 319.514 88.159 318.679 88.2369 317.797ZM247.615 454.426L248.783 441.189C248.831 440.648 249.602 440.595 249.722 441.125L252.612 453.842C252.813 454.723 253.292 455.517 253.979 456.104C254.665 456.692 255.523 457.042 256.425 457.104L269.489 457.994C270.025 458.03 270.1 458.788 269.582 458.929L256.909 462.383C256.097 462.605 255.37 463.065 254.823 463.704C254.275 464.343 253.932 465.132 253.838 465.968L252.236 480.185C252.175 480.727 251.399 480.758 251.295 480.222L248.8 467.363C248.627 466.47 248.168 465.657 247.494 465.047C246.819 464.436 245.965 464.061 245.059 463.978L230.586 462.32C230.277 462.285 230.246 461.847 230.547 461.769L244.382 458.149C245.245 457.949 246.022 457.481 246.602 456.812C247.183 456.143 247.537 455.308 247.615 454.426ZM388.088 122.426L390.212 107.574C390.299 106.967 391.171 106.955 391.275 107.559L393.758 122.072C393.93 123.078 394.422 124.002 395.161 124.706C395.899 125.41 396.845 125.858 397.858 125.982L412.531 127.781C413.133 127.855 413.172 128.713 412.579 128.841L398.081 131.963C397.152 132.163 396.305 132.638 395.649 133.325C394.992 134.012 394.557 134.88 394.4 135.817L391.727 151.747C391.625 152.354 390.748 152.342 390.664 151.732L388.635 137.084C388.494 136.067 388.027 135.123 387.304 134.393C386.58 133.664 385.64 133.189 384.624 133.04L368.41 130.288C368.063 130.229 368.055 129.734 368.4 129.664L384.217 126.426C385.201 126.252 386.106 125.772 386.801 125.054C387.496 124.335 387.947 123.416 388.088 122.426Z" fill="#F6E1C4"/>
<path d="M362.605 77.619C366.475 77.619 369.613 74.4814 369.613 70.611C369.613 66.7406 366.475 63.603 362.605 63.603C358.735 63.603 355.597 66.7406 355.597 70.611C355.597 74.4814 358.735 77.619 362.605 77.619Z" fill="#F6E1C4"/>
<path d="M55.109 291.464C55.109 293.323 54.3707 295.105 53.0564 296.419C51.7422 297.734 49.9597 298.472 48.101 298.472C46.2424 298.472 44.4599 297.734 43.1456 296.419C41.8314 295.105 41.093 293.323 41.093 291.464C41.093 289.605 41.8314 287.823 43.1456 286.509C44.4599 285.194 46.2424 284.456 48.101 284.456C49.9597 284.456 51.7422 285.194 53.0564 286.509C54.3707 287.823 55.109 289.605 55.109 291.464Z" fill="#F6E1C4"/>
<path d="M325.23 468.147C329.1 468.147 332.238 465.01 332.238 461.139C332.238 457.269 329.1 454.131 325.23 454.131C321.36 454.131 318.222 457.269 318.222 461.139C318.222 465.01 321.36 468.147 325.23 468.147Z" fill="#F6E1C4"/>
<path d="M466.024 256C469.894 256 473.032 252.863 473.032 248.992C473.032 245.122 469.894 241.984 466.024 241.984C462.154 241.984 459.016 245.122 459.016 248.992C459.016 252.863 462.154 256 466.024 256Z" fill="#F6E1C4"/>
<path d="M131.558 83.9891C135.428 83.9891 138.566 80.8516 138.566 76.9811C138.566 73.1107 135.428 69.9731 131.558 69.9731C127.688 69.9731 124.55 73.1107 124.55 76.9811C124.55 80.8516 127.688 83.9891 131.558 83.9891Z" fill="#F6E1C4"/>
<path d="M269.167 31.112C269.167 32.0323 268.986 32.9436 268.634 33.7938C268.281 34.6441 267.765 35.4167 267.114 36.0674C266.464 36.7182 265.691 37.2344 264.841 37.5866C263.991 37.9387 263.079 38.12 262.159 38.12C261.239 38.12 260.327 37.9387 259.477 37.5866C258.627 37.2344 257.854 36.7182 257.204 36.0674C256.553 35.4167 256.037 34.6441 255.684 33.7938C255.332 32.9436 255.151 32.0323 255.151 31.112C255.151 29.2534 255.889 27.4709 257.204 26.1566C258.518 24.8423 260.3 24.104 262.159 24.104C264.018 24.104 265.8 24.8423 267.114 26.1566C268.429 27.4709 269.167 29.2534 269.167 31.112Z" fill="#F6E1C4"/>
<path d="M438.423 386.545L214.868 459.503L209.53 461.431L139.255 293.138L88.911 114.539L311.423 41.3671C316.399 39.7351 321.803 42.3301 323.623 47.2791L444.577 373.863C446.503 379.054 443.694 384.833 438.423 386.545Z" fill="#0A213B"/>
<path d="M209.53 461.431L188.516 468.091L68.98 121.094L88.911 114.539L209.53 461.431Z" fill="#FFAAC9"/>
<path d="M421.461 371.777L416.994 373.302L219.952 440.775L113.043 132.866L111.331 127.916L310.807 63.707L421.461 371.777Z" fill="#8CDBF9"/>
<path d="M416.083 371.936L219.041 439.409L112.527 131.5L307.141 68.708L416.083 371.936Z" fill="white"/>
<path d="M151.132 198.512C150.815 198.51 150.51 198.396 150.269 198.19C150.029 197.984 149.869 197.7 149.818 197.388C149.767 197.075 149.828 196.755 149.991 196.483C150.154 196.212 150.407 196.006 150.707 195.904L320.462 139.06C320.796 138.959 321.155 138.993 321.465 139.153C321.774 139.313 322.009 139.587 322.12 139.917C322.23 140.248 322.208 140.608 322.057 140.922C321.907 141.236 321.64 141.479 321.313 141.6L151.558 198.444C151.42 198.489 151.277 198.512 151.132 198.512ZM158.957 215.784L214.222 197.23L224.942 229.162L169.677 247.716C168.897 247.977 168.045 247.918 167.308 247.552C166.571 247.186 166.01 246.542 165.747 245.762L157.002 219.715C156.74 218.934 156.799 218.082 157.166 217.345C157.533 216.608 158.177 216.046 158.957 215.784Z" fill="#7886F3"/>
<path d="M216.409 196.491L274.236 177.077L284.956 209.009L227.129 228.423L216.409 196.491Z" fill="#7886F3"/>
<path d="M333.551 160.441L342.296 186.488C342.557 187.268 342.498 188.12 342.132 188.857C341.766 189.594 341.122 190.155 340.342 190.418L287.106 208.291L276.386 176.359L329.622 158.486C330.402 158.225 331.254 158.284 331.991 158.651C332.727 159.017 333.289 159.661 333.551 160.441ZM177.324 268.706L214.838 256.04L227.579 293.777L190.064 306.443C189.093 306.771 187.99 306.186 187.644 305.161L176.175 271.193C175.83 270.167 176.353 269.034 177.324 268.706Z" fill="#7886F3"/>
<path d="M217.071 255.284L258.599 241.263L271.34 279L229.812 293.021L217.071 255.284Z" fill="#7886F3"/>
<path d="M299.423 229.58L310.892 263.548C311.238 264.573 310.741 265.698 309.744 266.034L273.567 278.248L260.826 240.511L297.003 228.297C298 227.962 299.077 228.555 299.423 229.58ZM192.61 313.98L230.125 301.314L242.866 339.05L205.352 351.716C204.381 352.044 203.278 351.459 202.932 350.434L191.463 316.465C191.116 315.441 191.639 314.308 192.61 313.98Z" fill="#7886F3"/>
<path d="M232.357 300.559L273.885 286.538L286.625 324.274L245.097 338.295L232.357 300.559Z" fill="#7886F3"/>
<path d="M314.709 274.854L326.178 308.823C326.524 309.848 326.027 310.973 325.03 311.309L288.853 323.523L276.112 285.786L312.289 273.572C313.286 273.236 314.363 273.829 314.709 274.854ZM207.896 359.254L245.41 346.588L258.151 384.325L220.637 396.991C219.666 397.319 218.563 396.734 218.217 395.709L206.748 361.74C206.402 360.715 206.925 359.582 207.896 359.254Z" fill="#7886F3"/>
<path d="M247.644 345.832L289.172 331.811L301.912 369.547L260.384 383.568L247.644 345.832Z" fill="#7886F3"/>
<path d="M329.995 320.128L341.464 354.097C341.81 355.122 341.313 356.247 340.316 356.583L304.139 368.797L291.398 331.06L327.575 318.846C328.572 318.51 329.649 319.103 329.995 320.128Z" fill="#7886F3"/>
<path d="M360.467 250.493L324.87 262.895C324.344 263.078 323.767 263.045 323.265 262.803C322.764 262.561 322.379 262.129 322.196 261.603L309.384 224.831C309.201 224.305 309.234 223.728 309.476 223.227C309.719 222.725 310.15 222.34 310.676 222.157L346.273 209.755C346.799 209.572 347.376 209.605 347.878 209.847C348.379 210.09 348.764 210.521 348.947 211.047L361.759 247.819C361.942 248.345 361.909 248.922 361.667 249.424C361.424 249.925 360.993 250.31 360.467 250.493ZM376.562 296.688L340.966 309.09C340.44 309.273 339.863 309.24 339.361 308.998C338.86 308.756 338.475 308.324 338.292 307.798L325.48 271.026C325.297 270.5 325.33 269.923 325.572 269.422C325.815 268.92 326.246 268.535 326.772 268.352L362.368 255.95C362.894 255.767 363.471 255.8 363.973 256.042C364.474 256.285 364.859 256.716 365.042 257.242L377.854 294.014C378.037 294.54 378.004 295.117 377.762 295.619C377.519 296.12 377.088 296.505 376.562 296.688ZM392.783 343.246L357.186 355.648C356.66 355.831 356.083 355.798 355.581 355.556C355.08 355.314 354.695 354.882 354.512 354.356L341.7 317.584C341.517 317.058 341.55 316.481 341.792 315.98C342.035 315.478 342.466 315.093 342.992 314.91L378.589 302.508C379.115 302.325 379.692 302.358 380.194 302.6C380.695 302.843 381.08 303.274 381.263 303.8L394.075 340.572C394.258 341.098 394.225 341.675 393.983 342.177C393.741 342.678 393.309 343.063 392.783 343.246Z" fill="#8CDBF9"/>
<path d="M331.278 228.202L336.807 244.943C337.611 247.377 341.395 246.132 340.59 243.694L335.061 226.953C334.257 224.518 330.473 225.763 331.278 228.202Z" fill="#F6E1C4"/>
<path d="M329.121 239.105L343.716 234.285C346.15 233.481 344.905 229.697 342.467 230.502L327.872 235.322C325.438 236.126 326.683 239.91 329.121 239.105ZM345.951 286.765L359.446 282.22C360.466 281.877 361.042 280.717 360.698 279.697C360.353 278.673 359.198 278.1 358.175 278.445L344.68 282.99C343.66 283.334 343.084 284.493 343.428 285.513C343.773 286.536 344.927 287.109 345.951 286.765ZM369.377 319.973L362.243 336.095C361.808 337.078 362.197 338.278 363.187 338.749C364.141 339.202 365.404 338.792 365.841 337.805L372.975 321.683C373.41 320.699 373.021 319.499 372.031 319.029C371.077 318.575 369.814 318.985 369.377 319.973Z" fill="#F6E1C4"/>
<path d="M359.496 326.982L375.412 334.024C376.365 334.446 377.638 334.089 378.066 333.08C378.478 332.108 378.14 330.876 377.122 330.426L361.206 323.384C360.253 322.962 358.98 323.319 358.552 324.328C358.141 325.299 358.479 326.532 359.496 326.982Z" fill="#F6E1C4"/>
<path d="M306.5 180.08C309.598 180.08 309.603 175.266 306.5 175.266C303.402 175.267 303.397 180.08 306.5 180.08ZM306.599 190.876C310.669 185.872 314.953 181.045 319.439 176.41C320.316 175.505 320.408 173.895 319.439 173.006C318.491 172.136 316.971 172.04 316.035 173.006C311.548 177.641 307.264 182.467 303.195 187.472C302.402 188.447 302.17 189.935 303.195 190.876C304.075 191.683 305.75 191.919 306.599 190.876ZM316.332 189.64C319.429 189.64 319.434 184.826 316.332 184.826C313.235 184.826 313.23 189.64 316.332 189.64ZM240.403 123.188C237.262 123.604 234.025 124.919 231.953 127.419C230.035 129.734 229.126 133.375 231.745 135.587C234.189 137.652 237.416 136.975 240.213 136.201C241.423 135.866 243.169 135.295 244.313 136.124C245.126 136.714 244.749 137.992 244.375 138.751C242.995 141.547 239.622 142.03 237.239 140.22C236.467 139.634 235.233 140.098 234.786 140.863C234.248 141.783 234.655 142.728 235.429 143.316C238.008 145.273 241.793 145.469 244.534 143.723C247.083 142.099 249.116 138.671 248.142 135.591C247.627 133.963 246.239 132.827 244.624 132.378C242.907 131.901 241.095 132.243 239.415 132.701C238.033 133.078 233.778 134.454 233.673 131.955C233.618 130.652 234.848 129.406 235.81 128.687C237.134 127.698 238.758 126.991 240.403 126.773C241.363 126.646 242.196 126.04 242.196 124.98C242.195 124.111 241.369 123.06 240.403 123.188Z" fill="#0A213B"/>
<path d="M232.585 123.718C236.664 131.277 240.454 138.987 243.948 146.833C244.341 147.715 245.633 147.93 246.401 147.476C247.31 146.939 247.441 145.914 247.044 145.023C243.55 137.177 239.76 129.467 235.681 121.908C234.585 119.877 231.488 121.685 232.585 123.718ZM264.993 114.992C261.852 115.408 258.615 116.723 256.544 119.223C254.626 121.538 253.717 125.179 256.336 127.39C258.78 129.455 262.007 128.778 264.804 128.004C266.014 127.669 267.76 127.098 268.904 127.927C269.717 128.517 269.34 129.795 268.966 130.553C267.586 133.349 264.213 133.832 261.83 132.023C261.058 131.437 259.825 131.901 259.377 132.666C258.839 133.586 259.247 134.532 260.02 135.119C262.599 137.076 266.384 137.272 269.125 135.526C271.674 133.902 273.707 130.474 272.733 127.394C272.218 125.766 270.83 124.63 269.215 124.181C267.498 123.703 265.686 124.046 264.007 124.503C262.625 124.88 258.37 126.256 258.264 123.758C258.209 122.455 259.439 121.208 260.402 120.49C261.726 119.501 263.35 118.794 264.995 118.577C265.955 118.45 266.788 117.844 266.788 116.784C266.786 115.914 265.96 114.864 264.993 114.992Z" fill="#0A213B"/>
<path d="M257.176 115.521C261.255 123.079 265.045 130.79 268.539 138.636C268.932 139.518 270.224 139.733 270.992 139.279C271.901 138.742 272.032 137.717 271.635 136.826C268.141 128.98 264.351 121.269 260.272 113.711C259.176 111.68 256.079 113.488 257.176 115.521ZM288.901 105.77C285.76 106.186 282.523 107.501 280.452 110.001C278.534 112.316 277.625 115.957 280.243 118.169C282.688 120.234 285.914 119.556 288.711 118.783C289.921 118.448 291.667 117.877 292.811 118.706C293.624 119.296 293.247 120.574 292.873 121.332C291.493 124.128 288.12 124.611 285.737 122.802C284.965 122.216 283.732 122.68 283.284 123.445C282.746 124.365 283.154 125.311 283.927 125.898C286.506 127.855 290.291 128.051 293.032 126.305C295.581 124.681 297.614 121.253 296.64 118.173C296.125 116.545 294.737 115.409 293.122 114.96C291.405 114.482 289.593 114.825 287.914 115.283C286.532 115.66 282.277 117.036 282.172 114.537C282.117 113.234 283.347 111.988 284.31 111.269C285.634 110.28 287.258 109.573 288.903 109.356C289.863 109.229 290.696 108.623 290.696 107.563C290.694 106.693 289.868 105.642 288.901 105.77Z" fill="#0A213B"/>
<path d="M281.084 106.3C285.163 113.859 288.953 121.569 292.447 129.415C292.84 130.297 294.132 130.512 294.9 130.058C295.809 129.521 295.94 128.497 295.543 127.605C292.049 119.759 288.259 112.049 284.18 104.49C283.083 102.459 279.987 104.267 281.084 106.3Z" fill="#0A213B"/>
<path opacity="0.12" d="M219.605 440.768L310.807 63.707L421.461 371.777L219.605 440.768Z" fill="#0A213B"/>
<path d="M497.028 285.306V416.525C497.028 425.429 490.373 432.666 482.146 432.666H288.508C280.281 432.666 273.626 425.429 273.626 416.525V285.306H497.028Z" fill="#F6E1C4"/>
<path d="M273.626 285.306H497.028V308.226H273.626V285.306Z" fill="#8CDBF9"/>
<path d="M456.779 300.9C459.081 300.9 460.948 298.875 460.948 296.378C460.948 293.881 459.081 291.856 456.779 291.856C454.477 291.856 452.61 293.881 452.61 296.378C452.61 298.875 454.477 300.9 456.779 300.9Z" fill="#FFC151"/>
<path d="M469.718 300.9C472.021 300.9 473.887 298.875 473.887 296.378C473.887 293.881 472.021 291.856 469.718 291.856C467.416 291.856 465.549 293.881 465.549 296.378C465.549 298.875 467.416 300.9 469.718 300.9Z" fill="#FFAAC9"/>
<path d="M487.401 296.378C487.401 298.875 485.535 300.9 483.232 300.9C480.929 300.9 479.063 298.875 479.063 296.378C479.063 293.881 480.93 291.856 483.232 291.856C485.534 291.856 487.401 293.88 487.401 296.378ZM480.5 421.376H297.343C297.11 421.376 296.886 421.283 296.721 421.118C296.556 420.953 296.463 420.729 296.463 420.496V325.069C296.463 324.836 296.556 324.612 296.721 324.447C296.886 324.282 297.11 324.189 297.343 324.189C297.576 324.189 297.8 324.282 297.965 324.447C298.13 324.612 298.223 324.836 298.223 325.069V419.617H480.5C480.728 419.625 480.944 419.721 481.103 419.885C481.262 420.049 481.35 420.268 481.35 420.496C481.35 420.725 481.262 420.944 481.103 421.108C480.944 421.272 480.728 421.368 480.5 421.376Z" fill="#7886F3"/>
<path d="M311.427 408.873C311.188 408.873 310.954 408.805 310.753 408.676C310.552 408.547 310.393 408.363 310.293 408.146C310.193 407.929 310.158 407.688 310.191 407.452C310.224 407.215 310.324 406.993 310.48 406.812L338.936 373.682C339.136 373.45 339.414 373.3 339.718 373.259C340.021 373.219 340.329 373.291 340.583 373.463L375.355 397.06L413.702 354.13C413.905 353.904 414.183 353.759 414.485 353.723C414.787 353.687 415.092 353.762 415.342 353.935L437.759 369.423L473.131 326.558C473.342 326.303 473.645 326.142 473.975 326.11C474.304 326.079 474.633 326.179 474.888 326.39C475.143 326.601 475.304 326.904 475.336 327.234C475.367 327.563 475.267 327.892 475.056 328.147L438.954 371.894C438.541 372.394 437.816 372.493 437.282 372.125L414.83 356.613L376.489 399.536C376.287 399.76 376.011 399.904 375.711 399.941C375.412 399.978 375.109 399.906 374.858 399.738L340.103 376.153L312.373 408.44C312.256 408.576 312.11 408.685 311.947 408.76C311.784 408.834 311.607 408.873 311.427 408.873Z" fill="#FFAAC9"/>
<path d="M473.457 337.945C473.275 337.945 473.094 337.906 472.929 337.829C472.764 337.752 472.617 337.64 472.5 337.5C472.383 337.36 472.298 337.196 472.251 337.02C472.204 336.844 472.196 336.66 472.228 336.48L473.736 327.927L465.032 331.682C464.728 331.813 464.385 331.818 464.077 331.696C463.77 331.574 463.523 331.335 463.392 331.031C463.261 330.727 463.256 330.384 463.378 330.076C463.5 329.769 463.739 329.522 464.043 329.391L474.873 324.72C475.08 324.63 475.307 324.598 475.53 324.627C475.754 324.656 475.965 324.745 476.142 324.885C476.319 325.025 476.454 325.21 476.534 325.421C476.614 325.632 476.635 325.86 476.595 326.082L474.683 336.913C474.633 337.202 474.482 337.464 474.258 337.652C474.034 337.841 473.75 337.945 473.457 337.945ZM468.147 385.327H479.827V397.007H468.147V385.327Z" fill="#FFAAC9"/>
<path d="M468.147 400.829H479.827V412.509H468.147V400.829Z" fill="#FFC151"/>
<path d="M468.147 367.807H479.827V379.487H468.147V367.807Z" fill="#8CDBF9"/>
<path d="M66.603 159.391C95.79 144.855 131.235 156.731 145.771 185.918C155.824 206.104 153.237 229.279 141.034 246.465L161.771 262.964L131.103 257.273C127.478 260.345 123.497 262.968 119.244 265.087C90.057 279.624 54.612 267.747 40.075 238.56C25.538 209.373 37.416 173.928 66.603 159.391Z" fill="#F6E1C4"/>
<path d="M81.514 208.579C88.446 208.579 88.457 197.806 81.514 197.806C74.583 197.806 74.571 208.579 81.514 208.579ZM81.736 232.738C90.8437 221.538 100.431 210.737 110.472 200.365C112.433 198.339 112.639 194.737 110.472 192.748C108.351 190.801 104.948 190.585 102.854 192.748C92.8133 203.12 83.2257 213.921 74.118 225.121C72.343 227.303 71.824 230.633 74.118 232.738C76.087 234.545 79.837 235.072 81.736 232.738ZM103.518 229.972C110.45 229.972 110.461 219.199 103.518 219.199C96.586 219.199 96.575 229.972 103.518 229.972Z" fill="#0A213B"/>
<path d="M119.454 405.714C123.324 405.714 126.462 402.576 126.462 398.706C126.462 394.836 123.324 391.698 119.454 391.698C115.584 391.698 112.446 394.836 112.446 398.706C112.446 402.576 115.584 405.714 119.454 405.714Z" fill="#F6E1C4"/>
<path d="M201.317 369.633C201.538 369.944 201.741 370.268 201.956 370.608C204.259 374.232 206.091 378.134 207.407 382.221C207.541 382.594 207.658 382.978 207.762 383.345C208.709 386.439 209.353 389.618 209.685 392.837C209.737 393.241 209.761 393.64 209.784 394.039C210.107 397.757 210.004 401.569 209.468 405.428C209.43 405.741 209.38 406.036 209.324 406.361C209.271 406.762 209.205 407.146 209.123 407.542C208.467 411.221 207.41 414.816 205.972 418.265C205.818 418.634 205.664 419.003 205.497 419.354C203.497 423.899 200.841 428.126 197.613 431.9C197.363 432.207 197.101 432.496 196.839 432.786C194.422 435.536 191.707 438.009 188.743 440.159C188.427 440.409 188.098 440.642 187.77 440.875C183.933 443.567 179.746 445.721 175.326 447.278C174.89 447.431 174.47 447.573 174.021 447.709C168.911 449.37 163.571 450.219 158.198 450.223C157.637 450.237 157.076 450.227 156.516 450.195C154.635 450.151 152.758 449.998 150.895 449.738C122.479 445.804 102.639 419.564 106.573 391.148C110.521 362.826 136.591 343.002 164.921 346.815C164.997 346.813 165.069 346.84 165.145 346.838C165.47 346.893 165.812 346.937 166.149 347.009C170.064 347.602 173.893 348.663 177.555 350.17C177.941 350.312 178.31 350.466 178.679 350.62C183.317 352.626 187.633 355.308 191.485 358.579C191.792 358.829 192.099 359.079 192.371 359.353C195.797 362.367 198.806 365.824 201.317 369.633Z" fill="#8CDBF9"/>
<path d="M158.198 450.224C157.637 450.238 157.076 450.228 156.516 450.196C152.38 446.15 148.303 442.046 144.285 437.883L145.12 437.083C149.396 441.505 153.771 445.883 158.198 450.224ZM175.325 447.279C174.889 447.432 174.469 447.574 174.02 447.71L162.615 437.772L163.377 436.868L175.325 447.279ZM188.742 440.16C188.426 440.41 188.097 440.643 187.769 440.876C183.665 437.137 179.386 433.444 174.47 430.903L174.998 429.853C180.142 432.493 184.518 436.324 188.742 440.16ZM197.613 431.901C197.363 432.208 197.101 432.497 196.839 432.787C192.062 429.199 187.095 425.871 181.959 422.818L182.542 421.808C187.746 424.894 192.778 428.264 197.613 431.901ZM205.971 418.267C205.817 418.636 205.663 419.005 205.496 419.356C199.66 416.84 193.759 414.476 187.8 412.266L188.215 411.167C194.194 413.38 200.115 415.748 205.971 418.267ZM209.323 406.362C209.27 406.763 209.204 407.147 209.122 407.543C203.237 405.555 197.289 403.76 191.287 402.161L191.602 401.029C197.568 402.605 203.478 404.384 209.323 406.362ZM209.685 392.837C209.737 393.241 209.761 393.64 209.784 394.039C203.634 393.564 197.494 392.963 191.369 392.236L191.506 391.074C197.551 391.803 203.612 392.391 209.685 392.837ZM207.407 382.221C207.541 382.594 207.658 382.978 207.762 383.345C201.461 384.383 195.032 384.654 188.606 384.197L188.702 383.013C194.975 383.475 201.221 383.203 207.407 382.221ZM201.317 369.633C201.538 369.944 201.741 370.268 201.956 370.608C197.227 372.894 192.242 374.605 187.106 375.704L186.844 374.565C191.844 373.489 196.701 371.834 201.317 369.633ZM192.371 359.354C189.096 362.404 185.743 365.369 182.314 368.246L181.554 367.356C184.941 364.518 188.252 361.591 191.485 358.579C191.792 358.83 192.099 359.08 192.371 359.354ZM178.679 350.621L170.191 361.544L169.265 360.824L177.556 350.172C177.941 350.313 178.31 350.467 178.679 350.621ZM166.149 347.011C164.042 350.266 162.054 353.597 160.191 356.998L159.158 356.457C160.952 353.169 162.874 349.954 164.92 346.817C164.996 346.815 165.068 346.842 165.144 346.84C165.47 346.895 165.812 346.938 166.149 347.011Z" fill="#F6E1C4"/>
<path d="M204.071 404.677C200.132 433.09 173.905 452.929 145.492 448.989C117.079 445.05 97.2401 418.823 101.179 390.41C105.118 361.997 131.345 342.158 159.758 346.097C188.171 350.038 208.011 376.265 204.071 404.677Z" fill="#FFC151"/>
<path d="M152.656 446.177C150.441 446.177 148.202 446.026 145.946 445.714C119.387 442.03 100.774 417.423 104.457 390.865C106.241 377.999 112.928 366.598 123.287 358.761C133.646 350.924 146.44 347.586 159.303 349.375C172.17 351.159 183.572 357.848 191.408 368.206C199.245 378.565 202.577 391.357 200.793 404.223C197.424 428.528 176.532 446.177 152.656 446.177ZM152.524 350.08C142.26 350.08 132.323 353.399 123.996 359.698C113.886 367.344 107.36 378.471 105.619 391.027C102.026 416.944 120.188 440.956 146.107 444.55C172.022 448.171 196.036 429.981 199.631 404.064C201.372 391.507 198.119 379.024 190.473 368.917C182.825 358.807 171.699 352.281 159.143 350.542C156.95 350.235 154.738 350.081 152.524 350.08Z" fill="#F6E1C4"/>
<path d="M163.41 376.575C156.661 375.097 149.5 376.113 143.519 379.625C138.521 382.56 132.822 389.045 137.201 394.926C140.889 399.878 148.583 398.645 153.887 398.38C157.512 398.199 161.578 397.799 164.802 399.816C167.737 401.652 168.452 404.915 166.651 407.842C162.399 414.753 151.99 414.818 145.666 411.136C143.895 410.105 142.294 412.85 144.062 413.88C149.91 417.285 157.267 417.725 163.401 414.781C168.563 412.304 173.219 405.755 169.613 400.168C165.544 393.863 157.02 395.045 150.619 395.367C147.777 395.51 144.641 395.788 141.945 394.666C138.469 393.219 138.228 389.342 140.243 386.497C142.513 383.291 146.616 381.22 150.286 380.115C154.271 378.912 158.499 378.749 162.565 379.641C164.558 380.075 165.41 377.013 163.41 376.575Z" fill="#F6E1C4"/>
<path d="M145.178 369.599C150.889 387.106 155.507 404.951 159.004 423.031C159.392 425.037 162.455 424.188 162.068 422.186C158.571 404.106 153.953 386.261 148.242 368.754C147.611 366.819 144.541 367.647 145.178 369.599Z" fill="#F6E1C4"/>
<path d="M461.121 179.602C461.229 179.968 461.317 180.339 461.411 180.731C462.419 184.905 462.891 189.19 462.816 193.483C462.823 193.879 462.809 194.28 462.789 194.662C462.685 197.896 462.267 201.112 461.541 204.265C461.46 204.664 461.353 205.05 461.246 205.435C460.324 209.132 458.989 212.713 457.266 216.111C457.129 216.394 456.986 216.658 456.829 216.947C456.649 217.31 456.463 217.651 456.257 218C454.447 221.269 452.285 224.331 449.81 227.13C449.545 227.429 449.28 227.729 449.009 228.007C445.648 231.662 441.768 234.804 437.494 237.332C437.158 237.542 436.817 237.731 436.475 237.92C433.299 239.741 429.93 241.204 426.431 242.281C426.051 242.415 425.665 242.53 425.279 242.644C420.778 243.951 416.12 244.637 411.433 244.682C410.97 244.686 410.528 244.684 410.059 244.669C404.686 244.59 399.359 243.667 394.273 241.934C393.738 241.766 393.21 241.576 392.69 241.364C390.924 240.714 389.197 239.963 387.518 239.115C361.899 226.208 351.603 194.965 364.509 169.345C377.399 143.818 408.476 133.484 434.054 146.248C434.127 146.27 434.185 146.32 434.259 146.342C434.548 146.499 434.858 146.651 435.154 146.829C438.667 148.655 441.948 150.897 444.926 153.506C445.246 153.765 445.545 154.03 445.844 154.295C449.585 157.692 452.802 161.625 455.391 165.965C455.601 166.3 455.81 166.636 455.979 166.984C458.247 170.942 459.976 175.186 461.121 179.602Z" fill="#8CDBF9"/>
<path d="M394.27 241.933C393.735 241.765 393.207 241.575 392.687 241.363C390.08 236.198 387.548 230.996 385.092 225.758L386.141 225.271C388.777 230.861 391.487 236.415 394.27 241.933ZM411.43 244.681C410.967 244.685 410.525 244.683 410.056 244.668L402.475 231.577L403.488 230.968L411.43 244.681ZM426.428 242.28C426.048 242.414 425.662 242.529 425.276 242.643C422.601 237.778 419.745 232.9 415.914 228.908L416.753 228.085C420.767 232.245 423.67 237.285 426.428 242.28ZM437.492 237.332C437.156 237.542 436.815 237.731 436.473 237.92C433.11 232.971 429.473 228.214 425.613 223.678L426.491 222.91C430.42 227.512 434.092 232.327 437.492 237.332ZM449.808 227.13C449.543 227.429 449.278 227.729 449.007 228.007C444.297 223.74 439.477 219.596 434.553 215.578L435.301 214.672C440.243 218.7 445.08 222.854 449.808 227.13ZM456.827 216.947C456.647 217.31 456.461 217.651 456.255 218C451.329 214.217 446.28 210.596 441.116 207.143L441.78 206.174C446.917 209.593 451.935 213.186 456.827 216.947ZM461.54 204.265C461.459 204.664 461.352 205.05 461.245 205.435C455.579 202.998 449.963 200.445 444.401 197.777L444.907 196.722C450.392 199.364 455.938 201.879 461.54 204.265ZM462.816 193.483C462.823 193.879 462.809 194.28 462.789 194.662C456.491 193.608 450.319 191.787 444.386 189.277L444.859 188.187C450.62 190.64 456.646 192.417 462.816 193.483ZM461.121 179.602C461.229 179.968 461.317 180.339 461.411 180.731C456.197 181.366 450.927 181.374 445.711 180.755L445.832 179.593C450.932 180.184 456.039 180.198 461.121 179.602ZM455.977 166.984C451.892 168.812 447.76 170.534 443.586 172.149L443.154 171.061C447.276 169.47 451.356 167.771 455.389 165.965C455.598 166.3 455.808 166.636 455.977 166.984ZM445.842 154.294L434.279 161.887L433.636 160.906L444.924 153.505C445.243 153.764 445.542 154.029 445.842 154.294ZM435.151 146.828C432.105 149.228 429.148 151.738 426.285 154.353L425.483 153.507C428.243 150.976 431.101 148.554 434.052 146.247C434.125 146.269 434.183 146.319 434.257 146.341C434.546 146.499 434.856 146.65 435.151 146.828Z" fill="#F6E1C4"/>
<path d="M452.402 213.656C439.492 239.271 408.261 249.569 382.646 236.659C357.031 223.749 346.732 192.518 359.643 166.903C372.554 141.288 403.784 130.989 429.399 143.9C455.013 156.81 465.312 188.041 452.402 213.656Z" fill="#FFC151"/>
<path d="M405.974 238.933C398.475 238.933 391.025 237.179 384.134 233.704C360.189 221.635 350.528 192.336 362.597 168.392C374.666 144.446 403.967 134.787 427.91 146.854C439.509 152.7 448.137 162.715 452.205 175.049C456.273 187.386 455.294 200.567 449.447 212.165C443.601 223.766 433.587 232.395 421.252 236.462C416.324 238.095 411.166 238.929 405.974 238.933ZM406.1 142.828C388.735 142.828 371.981 152.382 363.645 168.918C351.868 192.286 361.296 220.879 384.663 232.656C395.982 238.36 408.844 239.316 420.884 235.349C432.923 231.38 442.694 222.958 448.4 211.64C454.106 200.321 455.061 187.458 451.091 175.418C447.122 163.381 438.701 153.607 427.382 147.902C420.784 144.566 413.494 142.828 406.1 142.828Z" fill="#F6E1C4"/>
<path d="M422.911 173.861C416.843 170.188 409.493 168.94 402.563 170.516C399.296 171.259 395.916 172.643 393.808 175.362C391.949 177.759 391.309 180.961 392.645 183.76C395.347 189.418 403.511 190.445 408.819 192.02C412.153 193.009 415.891 194.308 417.624 197.586C419.212 200.589 417.692 203.555 415.021 205.237C408.526 209.328 399.638 206.202 394.964 200.807C393.622 199.259 391.383 201.514 392.717 203.054C397.025 208.026 403.756 210.824 410.333 210.104C415.703 209.516 422.013 205.62 421.444 199.478C420.753 192.025 412.597 189.792 406.624 188.081C403.59 187.212 400.28 186.531 397.639 184.707C394.588 182.6 394.346 178.958 397.135 176.422C400.201 173.633 405.182 172.93 409.169 173.019C413.476 173.115 417.63 174.379 421.308 176.605C423.062 177.667 424.661 174.92 422.911 173.861Z" fill="#F6E1C4"/>
<path d="M408.003 161.522C407.758 179.793 406.38 198.031 403.876 216.132C403.598 218.132 406.66 218.997 406.94 216.977C409.5 198.597 410.916 180.077 411.181 161.522C411.209 159.477 408.032 159.476 408.003 161.522Z" fill="#F6E1C4"/>
</svg>
