<svg width="512" height="512" viewBox="0 0 512 512" fill="none" xmlns="http://www.w3.org/2000/svg">
<path d="M211.351 188.737L202.699 198.319L189.978 190.172L186.731 202.051L193.182 220.577L209.1 255.041L216.211 257.291C225.96 256.507 236.786 255.644 244.383 255.041L246.007 232.765L211.351 188.737Z" fill="white"/>
<path d="M201.263 196.166L189.978 190.172V190.154L180.458 186.193C180.458 186.193 116.468 247.33 130.326 260.779C144.184 274.23 202.061 263.224 202.061 263.224V258.43C206.005 258.106 210.946 257.715 216.21 257.291L196.387 206.54L201.263 196.166ZM154.779 250.996L178.826 222.468L194.885 244.085L154.779 250.996ZM254.227 254.256C254.114 254.256 250.199 254.568 244.381 255.04L219.894 206.899L208.814 200.181L209.297 189.841L211.35 188.737L254.226 205.661C254.226 205.661 253.819 214.479 243.629 226.82C243.631 226.82 254.635 254.256 254.227 254.256Z" fill="#0050A2"/>
<path d="M286.019 211.872L296.207 189.861C296.207 189.861 310.064 165 320.253 166.221C330.443 167.445 303.136 186.193 303.136 186.193L358.566 183.339L352.861 202.088C352.861 202.088 335.743 215.945 303.951 197.606L291.725 215.133" fill="#FF6C43"/>
<path d="M319.153 198.6C316.785 188.085 305.345 188.024 304.773 188.028L304.759 186.397C304.851 186.364 318.082 186.425 320.743 198.242L319.153 198.6Z" fill="#021673"/>
<path d="M324.384 198.511L324.453 196.881L354.418 198.138L354.35 199.768L324.384 198.511Z" fill="#021673"/>
<path d="M318.493 195.355L318.466 193.723L356.003 193.103L355.7 194.739L318.493 195.355Z" fill="#021673"/>
<path d="M315.035 189.821L357.33 186.429L357.46 188.052L315.165 191.444L315.035 189.821Z" fill="#021673"/>
<path d="M240.371 210.169L271.345 243.252L283.981 203.886L303.835 211.362L270.124 267.464L237.11 224.506L240.371 210.169Z" fill="#0050A2"/>
<path d="M179.235 133.207C178.6 133.436 177.958 133.649 177.312 133.846C183.359 147.036 185.285 160.566 167.415 168.261C160.895 171.114 135.625 172.744 150.706 180.488C158.858 184.564 172.308 188.23 161.303 198.421C151.897 207.826 140.695 205.873 129.528 204.484C129.69 204.354 129.822 204.223 129.92 204.127C137.255 196.383 136.848 185.379 127.882 179.673C115.247 171.93 94.8687 176.413 83.8639 167.039C72.8602 158.072 90.7929 146.659 98.5366 143.399C101.39 142.176 114.431 139.73 115.653 136.063C117.285 131.58 108.725 128.318 105.872 125.872C87.125 112.017 65.5234 90.8219 60.6309 67.5899C54.5167 39.4683 69.5972 8.89941 98.5356 1.5626C123.918 -4.59856 146.742 7.95369 156.034 30.6139C163.861 29.1983 173.642 32.4914 179.642 35.8004C196.352 45.5814 197.983 67.9977 197.983 85.1136C197.983 101.418 197.167 125.871 179.235 133.207Z" fill="#FFB2D2"/>
<path opacity="0.2" d="M98.0767 161.379C110.651 161.57 122.398 155.409 129.715 145.231C139.122 132.146 129.23 121.009 118.599 113.332C103.941 102.748 90.0941 94.1778 86.0573 75.2815C82.9652 60.8028 83.2411 39.2462 97.4739 30.5878C100.21 28.9223 96.1823 27.7207 94.4338 28.7854C73.567 41.4816 76.7871 78.0116 89.5213 95.2045C98.7425 107.654 114.448 112.888 124.749 124.12C139.247 139.924 114.691 158.523 99.8082 158.299C97.7698 158.266 94.8767 161.329 98.0767 161.379Z" fill="white"/>
<path opacity="0.2" d="M90.6951 11.7195C78.0229 13.6339 70.1682 30.2769 66.4024 40.9378C60.964 56.3272 61.2919 74.8206 71.9897 87.8157C72.7075 88.6875 77.1382 87.062 76.4444 86.2192C67.2331 75.0306 66.3904 60.3769 69.2225 46.673C70.4302 40.8298 72.6925 35.2445 75.4307 29.967C77.9859 25.0395 83.9291 14.3047 89.8034 13.417C91.6848 13.1321 94.0251 11.2146 90.6951 11.7195ZM141.702 197.932C142.024 197.327 147.197 195.74 148.63 194.43C150.258 192.939 151.674 189.629 150.844 187.426C147.753 179.216 138.279 176.832 132.572 171.001C130.139 168.515 142.46 166.639 143.373 166.433C147.612 165.471 151.727 164.204 155.791 162.674C163.35 159.826 169.57 154.776 172.949 147.393C174.109 144.858 169.334 144.708 168.402 146.743C163.625 157.178 152.793 160.501 142.45 162.979C138.198 163.997 128.695 163.578 127.062 168.703C125.277 174.298 136.107 178.939 139.355 181.37C143.548 184.508 150.282 190.481 142.199 194.045C140.241 194.905 138.214 195.3 137.156 197.281C135.86 199.715 140.657 199.892 141.702 197.932Z" fill="white"/>
<path d="M165.234 15.2884C114.768 32.7162 111.343 89.4323 125.8 118.464L141.331 128.317L213.064 130.762L256.002 85.9303L262.514 47.1099C237.822 23.36 201.476 2.77819 165.234 15.2884Z" fill="#FFB2D2"/>
<path opacity="0.2" d="M128.649 120.28L125.795 118.47C111.351 89.4364 114.774 32.7164 165.231 15.2906C165.476 15.2096 165.704 15.1277 165.95 15.0447C120.821 34.4139 116.387 89.1575 128.649 120.28ZM148.019 111.788L147.142 110.415C147.559 110.148 188.816 83.1983 190.193 30.0712L191.823 30.1142C190.423 84.13 148.442 111.519 148.019 111.788Z" fill="white"/>
<path opacity="0.2" d="M128.974 108.218L128.292 106.737C128.799 106.501 178.925 82.7393 183.72 21.1987L185.346 21.3267C180.473 83.847 129.488 107.98 128.974 108.218Z" fill="white"/>
<path opacity="0.2" d="M138.849 90.6639L137.837 89.3853C138.143 89.1413 168.455 64.6866 166.329 25.1105L167.957 25.0215C170.129 65.4614 139.161 90.4179 138.849 90.6639ZM241.067 48.6584C218.916 48.6584 208.803 27.5597 208.688 27.3138L210.165 26.624C210.683 27.7297 223.13 53.6089 251.571 45.4764L252.019 47.0459C248.087 48.1686 244.436 48.6584 241.067 48.6584Z" fill="white"/>
<path opacity="0.2" d="M240.468 44.6717C223.662 44.6717 217.282 30.5919 217.208 30.4189L218.701 29.7651C219.047 30.5529 227.453 48.9534 251.545 41.1387L252.049 42.6883C247.735 44.0879 243.885 44.6717 240.468 44.6717Z" fill="white"/>
<path d="M236.293 158.478C213.471 170.232 211.385 184.186 211.351 188.737C211.351 189.732 211.432 190.268 211.432 190.268L219.893 206.883V206.899C212.443 212.475 203.182 209.929 196.384 206.539L189.977 190.172V190.154L171.083 141.768C171.083 141.768 142.143 157.664 125.841 141.768C117.135 133.289 118.538 123.64 126.07 118.797C132.656 114.541 143.922 113.953 157.225 120.981C157.225 120.981 198.797 99.3813 198.389 30.092C198.389 30.092 234.354 81.2518 262.411 46.7371C279.824 63.2851 291.513 81.4147 293.354 90.8199C297.838 113.646 264.01 144.213 236.293 158.478Z" fill="#FF6C43"/>
<path d="M188.772 100.57C188.772 100.57 189.853 81.7495 219.059 79.4792ZM225.765 70.9318C225.765 70.9318 246.318 59.4662 263.409 79.4792Z" fill="#021673"/>
<path d="M214.795 137.082C214.795 140.568 211.271 143.398 206.925 143.398C202.58 143.398 199.055 140.568 199.055 137.082C199.055 133.592 202.58 130.762 206.925 130.762C211.272 130.762 214.795 133.592 214.795 137.082ZM210.568 154.391C210.568 158.61 207.045 162.033 202.698 162.033C198.352 162.033 194.83 158.61 194.83 154.391C194.83 150.172 198.352 146.749 202.698 146.749C207.045 146.749 210.568 150.172 210.568 154.391Z" fill="#FFB2D2"/>
<path d="M209.587 149.41L212.053 153.936C203.869 157.913 195.817 155.92 194.514 146.112C192.928 134.076 200.571 127.927 200.976 127.623C200.866 128.287 198.648 141.754 215.209 138.645L209.587 149.41Z" fill="white"/>
<path d="M204.554 156.669C203.127 156.669 201.771 156.443 200.518 155.974C197.881 154.995 194.563 152.508 193.735 146.221C192.063 133.55 200.174 127.249 200.523 126.986L202.151 125.752L201.767 127.76C201.757 127.817 200.737 133.412 204.232 136.393C207.458 139.138 213.74 138.937 222.393 135.796L222.928 137.273C213.574 140.667 206.938 140.773 203.204 137.579C200.486 135.258 200.019 131.805 200.041 129.589C197.876 131.943 194.154 137.368 195.297 146.017C195.872 150.375 197.868 153.311 201.069 154.5C205.656 156.206 212.242 154.082 217.849 149.085L218.895 150.258C214.236 154.408 209.057 156.669 204.554 156.669Z" fill="#021673"/>
<path d="M203.847 126.512L194.7 128.858C194.7 128.858 199.333 123.936 205.61 124.961L203.847 126.512ZM194.707 147.285L204.533 149.007L194.659 144.488" fill="#021673"/>
<path d="M191.015 115.949L197.279 107.828L198.65 108.885L192.385 117.006L191.015 115.949Z" fill="#021673"/>
<path d="M196.329 117.692L199.719 111.093L201.26 111.885L197.869 118.483L196.329 117.692Z" fill="#021673"/>
<path d="M225.765 97.4648C225.765 97.4648 225.282 110.704 211.78 116.069C199.856 120.81 195.113 112.538 193.417 107.744C199.197 103.832 209.67 98.6945 225.765 97.4648Z" fill="white"/>
<path d="M188.487 112.895L187.183 111.755C187.654 111.221 198.973 98.6296 225.701 96.6082L225.83 98.3326C199.803 100.303 188.596 112.77 188.487 112.895Z" fill="#021673"/>
<path d="M209.428 107.905C209.428 110.725 206.96 113.011 203.916 113.011C200.873 113.011 198.406 110.725 198.406 107.905C198.406 105.087 200.873 102.8 203.916 102.8C206.959 102.801 209.428 105.087 209.428 107.905Z" fill="#021673"/>
<path d="M262.271 95.127L262.818 93.4841L272.336 96.6522L271.79 98.295L262.271 95.127Z" fill="#021673"/>
<path d="M262.193 99.4102L262.909 97.8348L270.048 101.08L269.332 102.655L262.193 99.4102Z" fill="#021673"/>
<path d="M267.58 91.4587C266.559 96.8241 263.306 107.106 253.32 107.848C239.751 108.869 236.012 96.0283 236.012 96.0283C236.41 96.1473 250.447 87.7368 267.58 91.4587Z" fill="white"/>
<path d="M235.826 95.1887C235.952 95.1497 236.21 95.0257 236.59 94.8468C252.553 87.45 265.323 89.3165 273.224 92.1856L272.634 93.8121C265.039 91.0569 252.748 89.2715 237.318 96.4183C236.584 96.7582 236.279 96.9012 236.017 96.9012L235.826 95.1887Z" fill="#021673"/>
<path d="M251.796 97.4709C251.796 100.289 249.329 102.575 246.284 102.575C243.241 102.575 240.776 100.289 240.776 97.4709C240.776 94.6507 243.241 92.3664 246.284 92.3664C249.329 92.3664 251.796 94.6507 251.796 97.4709ZM224.737 129.021L224.969 127.896C224.998 127.753 225.718 124.372 228.023 123.455C229.227 122.976 230.568 123.245 232.009 124.253L231.074 125.588C230.111 124.915 229.288 124.707 228.627 124.97C227.829 125.284 227.266 126.244 226.925 127.083L241.901 125.074C233.67 106.357 233.31 90.6809 233.307 90.5219L234.939 90.4919C234.941 90.6509 235.317 106.569 243.833 125.4L244.285 126.399L224.737 129.021ZM123.046 132.802C123.046 132.802 127.698 124.964 139.069 124.438C150.429 123.912 157.561 127.832 154.956 132.608C152.338 137.383 131.947 140.101 139.395 131.821L133.267 132.211L141.887 130.742C141.887 130.742 135.08 136.107 143.459 136.315C151.838 136.508 156.927 130.96 152.726 128.075C148.518 125.185 135.189 122.076 123.046 132.802Z" fill="#021673"/>
<path d="M158.721 150.034C158.721 153.697 156.226 156.668 153.15 156.668C150.074 156.668 147.581 153.697 147.581 150.034C147.581 146.369 150.074 143.398 153.15 143.398C156.226 143.398 158.721 146.369 158.721 150.034Z" fill="#FFD500"/>
<path d="M452.716 205.66L59.2852 272.19L90.2609 512L235.807 488.533L421.918 417.123L452.716 231.498V205.66Z" fill="#7287F6"/>
<path d="M452.716 231.498V453.558L235.626 488.562C283.323 467.142 296.365 448.494 311.654 417.57C329.308 381.86 332.749 340.808 351.18 305.478C371.71 266.124 410.859 243.116 452.716 231.498Z" fill="#FFB2D2"/>
<path d="M92.8135 304.711L171.883 288.817L182.889 371.961L108.71 385.818L92.8135 304.711Z" fill="#FFD500"/>
<path d="M111.447 382.176L98.6646 309.364L169.077 295.726L171.794 323.714L146.441 328.593L151.071 352.292L174.176 348.757L177.962 369.625L111.447 382.176ZM100.549 310.662L112.766 380.271L176.067 368.324L172.852 350.607L149.767 354.14L144.526 327.3L170.028 322.391L167.626 297.668L100.549 310.662Z" fill="#7287F6"/>
<path d="M148.973 345.821L173.084 340.727L173.421 342.32L149.309 347.414L148.973 345.821Z" fill="#7287F6"/>
<path d="M148.993 339.148L170.775 335.022L171.078 336.624L149.296 340.75L148.993 339.148Z" fill="#7287F6"/>
<path d="M146.637 333.777L169.44 329.316L169.753 330.916L146.95 335.376L146.637 333.777Z" fill="#7287F6"/>
<path d="M107.108 333.006L103.555 313.462L165.539 299.78L167.411 319.07L107.108 333.006ZM105.44 314.716L108.406 331.034L165.651 317.803L164.095 301.767L105.44 314.716ZM114.413 375.87L112.264 361.702L171.725 353.09V366.131L114.413 375.87ZM114.121 363.081L115.776 373.986L170.096 364.755V354.974L114.121 363.081Z" fill="#7287F6"/>
<path d="M195.031 301.965L325.598 280.788L328.208 296.88L197.641 318.057L195.031 301.965Z" fill="white"/>
<path d="M201.304 339.896L285.31 324.004L288.341 340.023L204.335 355.915L201.304 339.896Z" fill="white"/>
<path d="M253.052 454.618L266.281 438.003L268.832 440.035L255.603 456.65L253.052 454.618Z" fill="white"/>
<path d="M249.336 442.838L250.98 440.021L271.428 451.953L269.785 454.77L249.336 442.838Z" fill="white"/>
<path d="M277.143 450.866L290.377 434.255L292.927 436.287L279.693 452.898L277.143 450.866Z" fill="white"/>
<path d="M273.447 439.035L275.09 436.22L295.539 448.155L293.896 450.97L273.447 439.035Z" fill="white"/>
<path d="M298.943 446.98L312.167 430.358L314.718 432.387L301.494 449.009L298.943 446.98Z" fill="white"/>
<path d="M295.226 435.147L296.868 432.333L317.316 444.267L315.674 447.082L295.226 435.147Z" fill="white"/>
<path d="M320.36 443.59L333.582 426.971L336.134 429.001L322.912 445.62L320.36 443.59Z" fill="white"/>
<path d="M316.639 431.768L318.28 428.954L338.731 440.883L337.089 443.698L316.639 431.768Z" fill="white"/>
<path d="M339.754 432.137L354.632 429.753L355.147 432.968L340.269 435.352L339.754 432.137Z" fill="white"/>
<path d="M364.563 441.264C360.069 441.264 356.415 436.48 356.415 430.607C356.415 424.731 360.069 419.952 364.563 419.952C369.058 419.952 372.713 424.731 372.713 430.607C372.713 436.48 369.058 441.264 364.563 441.264ZM364.563 423.007C361.801 423.007 359.467 426.487 359.467 430.607C359.467 434.73 361.801 438.212 364.563 438.212C367.325 438.212 369.661 434.73 369.661 430.607C369.661 426.487 367.325 423.007 364.563 423.007ZM382.803 438.652C378.309 438.652 374.653 433.867 374.653 427.995C374.653 422.119 378.309 417.338 382.803 417.338C387.297 417.338 390.952 422.119 390.952 427.995C390.952 433.867 387.297 438.652 382.803 438.652ZM382.803 420.391C380.04 420.391 377.706 423.873 377.706 427.996C377.706 432.113 380.04 435.597 382.803 435.597C385.566 435.597 387.9 432.113 387.9 427.996C387.9 423.873 385.566 420.391 382.803 420.391ZM400.94 436.782C396.446 436.782 392.792 432.002 392.792 426.128C392.792 420.249 396.446 415.473 400.94 415.473C405.434 415.473 409.089 420.249 409.089 426.128C409.089 432.002 405.434 436.782 400.94 436.782ZM400.94 418.525C398.177 418.525 395.842 422.007 395.842 426.128C395.842 430.252 398.177 433.73 400.94 433.73C403.702 433.73 406.037 430.252 406.037 426.128C406.037 422.007 403.702 418.525 400.94 418.525ZM419.28 434.237C414.787 434.237 411.132 429.457 411.132 423.582C411.132 417.708 414.787 412.924 419.28 412.924C423.774 412.924 427.429 417.708 427.429 423.582C427.429 429.457 423.774 434.237 419.28 434.237ZM419.28 415.978C416.518 415.978 414.183 419.46 414.183 423.582C414.183 427.703 416.518 431.185 419.28 431.185C422.044 431.185 424.378 427.703 424.378 423.582C424.378 419.46 422.044 415.978 419.28 415.978Z" fill="white"/>
<path d="M202.06 242.846V263.224C202.06 263.224 144.183 274.229 130.325 260.778C119.744 250.522 154.503 212.488 171.557 195.046L175.583 226.317L154.778 250.996L202.06 242.846Z" fill="#0050A2"/>
<path d="M239.148 284.417L216.242 279.935V267.462C216.242 267.462 208.58 271.376 208.58 260.779L202.06 260.095V245.472C211.254 241.851 225.113 237.63 231.403 242.031C241.266 248.909 239.148 284.417 239.148 284.417Z" fill="#FF6C43"/>
<path d="M221.506 281.363L219.892 281.121C219.921 280.923 222.812 261.122 216.722 256.105L217.758 254.848C224.558 260.447 221.632 280.513 221.506 281.363ZM227.503 282.541L225.888 282.309C225.924 282.056 229.397 257.099 220.997 252.038L221.838 250.641C231.161 256.257 227.656 281.472 227.503 282.541ZM233.598 283.621L231.993 283.346C232.038 283.078 236.511 256.128 227.632 250.974L228.451 249.561C238.303 255.281 233.795 282.469 233.598 283.621Z" fill="#021673"/>
</svg>
