<svg width="512" height="512" viewBox="0 0 512 512" fill="none" xmlns="http://www.w3.org/2000/svg">
<path d="M272.948 371.875L235.044 393.024L239.425 415.296C239.425 415.296 138.626 461.769 123.831 409.521C109.036 357.272 195.964 309.413 195.964 309.413C195.964 309.413 300.924 292.85 272.948 371.875Z" fill="#001B42"/>
<path d="M164.29 333.92L212.715 357.297L233.334 348.937L237.704 311.035L164.29 333.92Z" fill="#0090BC"/>
<path d="M196.888 316.584L190.876 329.528L210.065 333.92L212.715 357.3L231.334 366.285L233.334 348.935L217.465 331.144L218.157 313.345L196.888 316.584ZM233.319 369.864L172.266 367.93L175.883 349.723L154.881 352.968L158.756 338.158L159.651 338.397L156.132 351.843L177.046 348.608L173.387 367.044L233.349 368.937L233.319 369.864ZM245.333 374.535L244.464 374.221L258.71 335.137L247.058 331.332L257.515 322.304L249.707 312.113L251.257 312.566L258.791 322.423L248.902 330.963L259.906 334.56L245.333 374.535Z" fill="white"/>
<path d="M191.554 341.945L172.497 339.592L172.61 338.68L190.525 340.886L189.547 330.901L190.469 330.815L191.554 341.945ZM224.972 331.117L217.047 321.845L217.75 321.252L224.85 329.552L233.303 315.763L234.09 316.247L224.972 331.117Z" fill="#001B42"/>
<path d="M250.988 351.029L254.916 388.252L361.036 429.399L440.793 371.153V360.508C440.793 360.508 498.127 299.709 512 223.182L364.268 180.18L334.678 321.437L250.988 351.029Z" fill="#FF486B"/>
<path d="M338.145 322.822L253.761 352.186L356.177 396.106L436.632 359.819L490.501 224.568L362.883 201.91L338.145 322.822Z" fill="#001B42"/>
<path d="M259.308 352.88L341.384 322.359L434.593 359.016L356.407 394.26L259.308 352.88Z" fill="#45D895"/>
<path d="M296.543 368.948L295.733 368.555L364.399 331.258L365.307 331.609L296.543 368.948ZM329.627 383.075L328.789 382.696L397.227 344.153L398.113 344.56L329.627 383.075Z" fill="white"/>
<path d="M412.996 368.872L316.225 331.628L317.14 331.258L413.857 368.493L412.996 368.872ZM382.977 382.477L285.094 343.192L286.101 342.775L384.164 381.962L382.977 382.477ZM365.816 344.735C365.513 348.475 371.578 349.652 373.882 347.519C375.65 345.864 373.487 343.35 372.554 341.802C371.995 340.875 371.448 338.918 373.15 339.219C374.625 339.477 375.926 341.185 375.703 342.648C375.609 343.306 378.175 342.829 378.265 342.198C378.925 337.762 373.038 337.467 370.357 339.083C368.162 340.409 370.323 342.992 371.153 344.442C371.843 345.644 372.684 348.3 370.305 347.051C369.212 346.479 368.311 345.305 368.411 344.041C368.444 343.659 365.88 343.945 365.816 344.735Z" fill="white"/>
<path d="M366.819 348.198L366.234 347.634L376.057 337.468L376.642 338.04L366.819 348.198Z" fill="white"/>
<path d="M367.515 348.374L377.34 338.218L377.926 338.785L368.101 348.941L367.515 348.374Z" fill="white"/>
<path d="M334.484 332.933C333.97 336.752 339.973 338.01 342.37 335.99C344.21 334.455 342.174 331.799 341.332 330.213C340.805 329.233 340.406 327.408 342.101 327.794C343.561 328.121 344.75 329.918 344.46 331.361C344.336 331.98 346.887 331.562 347.02 330.908C347.893 326.621 342.003 325.767 339.294 327.503C337.138 328.891 339.012 331.303 339.828 332.915C340.439 334.124 340.966 336.63 338.807 335.349C337.735 334.709 336.907 333.487 337.078 332.238C337.125 331.894 334.588 332.126 334.484 332.933Z" fill="white"/>
<path d="M335.352 336.48L334.801 335.88L345.143 326.249L345.694 326.838L335.352 336.48ZM336.527 337.188L335.974 336.588L346.322 326.973L346.881 327.57L336.527 337.188ZM400.193 358.429C400.007 362.112 406.115 363.243 408.355 361.031C410.072 359.327 407.849 356.9 406.865 355.365C406.116 354.216 405.932 352.013 408.022 352.92C409.284 353.471 410.159 354.805 409.999 356.163C409.961 356.509 412.505 356.268 412.597 355.463C413.109 351.118 407.093 351.014 404.576 352.645C402.599 353.92 404.333 356.182 405.248 357.521C405.799 358.339 407.392 361.953 404.781 360.677C403.662 360.141 402.729 358.997 402.789 357.735C402.808 357.325 400.231 357.647 400.193 358.429Z" fill="white"/>
<path d="M401.492 361.975L400.892 361.422L410.397 350.961L410.997 351.514L401.492 361.975Z" fill="white"/>
<path d="M402.021 362.051L411.539 351.608L412.139 352.156L402.622 362.598L402.021 362.051Z" fill="white"/>
<path d="M375.122 371.07C374.637 374.885 380.647 376.134 383.032 374.108C384.868 372.552 382.814 369.917 381.969 368.333C381.435 367.358 381.027 365.517 382.725 365.891C384.177 366.222 385.381 368.002 385.097 369.45C384.973 370.071 387.529 369.644 387.661 368.999C388.502 364.699 382.618 363.888 379.909 365.622C377.753 367.012 379.646 369.422 380.475 371.026C381.088 372.224 381.632 374.749 379.47 373.477C378.398 372.847 377.563 371.63 377.721 370.377C377.759 370.035 375.227 370.272 375.122 371.07Z" fill="white"/>
<path d="M375.842 374.605L375.289 374.013L385.579 364.319L386.137 364.914L375.842 374.605ZM377.202 375.325L376.642 374.725L386.937 365.058L387.496 365.649L377.202 375.325ZM342.366 356.877C342.016 360.641 348.064 361.834 350.391 359.723C352.174 358.103 350.043 355.555 349.129 353.993C348.604 353.09 348.077 351.132 349.774 351.446C351.232 351.724 352.515 353.453 352.278 354.911C352.173 355.556 354.735 355.097 354.836 354.467C355.558 350.015 349.669 349.697 346.971 351.277C344.759 352.582 346.901 355.201 347.71 356.648C348.387 357.871 349.177 360.499 346.822 359.219C345.731 358.63 344.843 357.445 344.96 356.187C344.994 355.814 342.443 356.091 342.366 356.877Z" fill="white"/>
<path d="M343.338 360.312L342.757 359.74L352.704 349.697L353.282 350.265L343.338 360.312ZM344.599 361.1L344.02 360.527L353.973 350.502L354.552 351.074L344.599 361.1ZM310.348 344.144C309.921 347.936 315.942 349.161 318.309 347.097C320.115 345.513 318.038 342.915 317.158 341.343C316.626 340.404 316.165 338.506 317.86 338.86C319.32 339.159 320.556 340.92 320.294 342.374C320.181 342.999 322.741 342.564 322.858 341.919C323.674 337.442 317.771 337.103 315.059 338.627C312.826 339.885 314.916 342.564 315.691 344.018C316.316 345.199 316.921 347.767 314.739 346.524C313.654 345.911 312.798 344.707 312.943 343.454C312.982 343.091 310.44 343.35 310.348 344.144Z" fill="white"/>
<path d="M311.256 347.615L310.684 347.028L320.827 337.188L321.399 337.775L311.256 347.615Z" fill="white"/>
<path d="M311.896 347.787L322.087 337.999L322.651 338.586L312.46 348.374L311.896 347.787Z" fill="white"/>
<path d="M281.614 356.401C281.219 360.173 287.257 361.391 289.601 359.307C291.405 357.708 289.3 355.125 288.406 353.558C287.876 352.642 287.387 350.712 289.083 351.047C290.55 351.342 291.801 353.086 291.547 354.544C291.436 355.185 293.998 354.734 294.109 354.098C294.886 349.625 288.985 349.299 286.28 350.842C284.06 352.119 286.169 354.775 286.963 356.228C287.587 357.39 288.231 359.983 286.034 358.762C284.943 358.151 284.078 356.962 284.211 355.7C284.246 355.342 281.697 355.604 281.614 356.401Z" fill="white"/>
<path d="M282.964 359.797L282.392 359.21L292.454 349.289L293.026 349.872L282.964 359.797ZM283.794 360.628L283.222 360.045L293.294 350.135L293.864 350.72L283.794 360.628ZM348.741 384.911C348.254 388.724 354.271 389.969 356.651 387.934C358.485 386.377 356.435 383.739 355.571 382.163C355.046 381.204 354.625 379.343 356.32 379.716C357.78 380.038 358.991 381.823 358.707 383.266C358.583 383.891 361.141 383.464 361.273 382.82C362.108 378.52 356.215 377.717 353.515 379.451C351.359 380.841 353.265 383.262 354.087 384.85C354.704 386.05 355.257 388.578 353.088 387.312C352.016 386.684 351.181 385.478 351.337 384.214C351.377 383.871 348.841 384.11 348.741 384.911Z" fill="white"/>
<path d="M349.117 387.919L359.403 378.226L359.962 378.82L349.676 388.512L349.117 387.919Z" fill="white"/>
<path d="M350.82 389.164L350.259 388.574L360.54 378.871L361.102 379.462L350.82 389.164ZM316.514 371.32C315.995 375.144 321.999 376.397 324.396 374.394C326.236 372.846 324.206 370.19 323.365 368.604C322.838 367.62 322.443 365.799 324.142 366.189C325.6 366.52 326.785 368.317 326.486 369.763C326.362 370.376 328.92 369.962 329.052 369.308C329.925 365.021 324.041 364.154 321.326 365.899C319.176 367.284 321.044 369.691 321.86 371.311C322.471 372.52 322.992 375.026 320.833 373.736C319.763 373.096 318.941 371.874 319.104 370.625C319.15 370.284 316.621 370.513 316.514 371.32Z" fill="white"/>
<path d="M317.526 374.819L316.966 374.219L327.321 364.593L327.874 365.201L317.526 374.819ZM318.553 375.575L318 374.975L328.363 365.367L328.914 365.972L318.553 375.575ZM363.745 359.718C363.745 361.163 361.441 362.329 358.602 362.329C355.763 362.329 353.463 361.163 353.463 359.718C353.463 358.279 355.762 357.107 358.602 357.107C361.442 357.107 363.745 358.279 363.745 359.718ZM341.39 352.319C341.39 353.758 339.088 354.924 336.251 354.924C333.412 354.924 331.108 353.758 331.108 352.319C331.108 350.87 333.412 349.697 336.251 349.697C339.089 349.697 341.39 350.869 341.39 352.319ZM310.149 340.062C310.149 341.503 307.848 342.673 305.006 342.673C302.167 342.673 299.867 341.503 299.867 340.062C299.867 338.615 302.166 337.443 305.006 337.443C307.848 337.442 310.149 338.615 310.149 340.062ZM329.319 347.536C329.319 348.984 327.02 350.151 324.186 350.151C321.347 350.151 319.043 348.983 319.043 347.536C319.043 346.097 321.347 344.925 324.186 344.925C327.02 344.925 329.319 346.097 329.319 347.536ZM335.607 329.878C335.607 331.321 333.305 332.489 330.464 332.489C327.625 332.489 325.325 331.321 325.325 329.878C325.325 328.439 327.624 327.267 330.464 327.267C333.305 327.267 335.607 328.439 335.607 329.878ZM354.42 335.105C354.42 336.544 352.127 337.708 349.288 337.708C346.449 337.708 344.145 336.544 344.145 335.105C344.145 333.655 346.449 332.49 349.288 332.49C352.127 332.49 354.42 333.655 354.42 335.105ZM364.702 339.816C364.702 341.257 362.403 342.427 359.563 342.427C356.73 342.427 354.42 341.257 354.42 339.816C354.42 338.373 356.73 337.207 359.563 337.207C362.402 337.207 364.702 338.373 364.702 339.816ZM385.131 347.02C385.131 348.459 382.83 349.625 379.997 349.625C377.155 349.625 374.854 348.459 374.854 347.02C374.854 345.57 377.156 344.409 379.997 344.409C382.83 344.409 385.131 345.57 385.131 347.02ZM398.41 352.835C398.41 354.274 396.106 355.446 393.267 355.446C390.434 355.446 388.128 354.274 388.128 352.835C388.128 351.388 390.434 350.22 393.267 350.22C396.107 350.22 398.41 351.388 398.41 352.835ZM419.751 361.302C419.751 362.743 417.447 363.913 414.614 363.913C411.775 363.913 409.475 362.743 409.475 361.302C409.475 359.855 411.774 358.693 414.614 358.693C417.448 358.694 419.751 359.855 419.751 361.302ZM395.406 373.939C395.406 375.384 393.105 376.546 390.269 376.546C387.43 376.546 385.13 375.385 385.13 373.939C385.13 372.5 387.429 371.328 390.269 371.328C393.105 371.328 395.406 372.5 395.406 373.939ZM375.289 366.285C375.289 367.724 372.988 368.894 370.148 368.894C367.313 368.894 365.011 367.724 365.011 366.285C365.011 364.844 367.312 363.678 370.148 363.678C372.987 363.679 375.289 364.844 375.289 366.285ZM352.086 379.785C352.086 381.224 349.793 382.396 346.953 382.396C344.114 382.396 341.81 381.224 341.81 379.785C341.81 378.344 344.114 377.174 346.953 377.174C349.793 377.174 352.086 378.344 352.086 379.785ZM338.149 373.939C338.149 375.384 335.85 376.546 333.008 376.546C330.175 376.546 327.874 375.385 327.874 373.939C327.874 372.5 330.175 371.328 333.008 371.328C335.85 371.328 338.149 372.5 338.149 373.939ZM317.349 366.858C317.349 368.297 315.05 369.467 312.21 369.467C309.368 369.467 307.065 368.297 307.065 366.858C307.065 365.417 309.369 364.247 312.21 364.247C315.049 364.247 317.349 365.417 317.349 366.858ZM305.006 359.27C305.006 360.713 302.707 361.881 299.867 361.881C297.034 361.881 294.733 360.713 294.733 359.27C294.733 357.825 297.034 356.655 299.867 356.655C302.707 356.655 305.006 357.825 305.006 359.27ZM282.826 350.841C282.826 352.282 280.525 353.452 277.689 353.452C274.85 353.452 272.55 352.282 272.55 350.841C272.55 349.402 274.849 348.23 277.689 348.23C280.525 348.23 282.826 349.402 282.826 350.841ZM369.279 386.627C369.279 388.074 366.978 389.238 364.145 389.238C361.306 389.238 359.004 388.074 359.004 386.627C359.004 385.186 361.306 384.016 364.145 384.016C366.978 384.016 369.279 385.186 369.279 386.627Z" fill="white"/>
<path d="M263.366 356.06L274.845 361.142L270.979 373.207L263.026 370.651L263.366 356.06ZM330.174 384.726L341.785 389.493L338.251 401.664L330.23 399.325L330.174 384.726ZM383.82 182.877V188.193L399.072 192.358L401.156 187.616L383.82 182.877ZM470.516 208.541V213.857L485.774 218.016L487.86 213.28L470.516 208.541Z" fill="#FFCE00"/>
<path d="M417.146 200.558L421.965 173.572L470.516 187.068L454.562 211.141L449.709 208.944L460.569 190.449L424.279 183.517L418.724 200.558H417.146Z" fill="#FF486B"/>
<path d="M223.244 396.106L225.556 409.057L253.761 396.106C253.761 396.106 259.542 414.138 277.689 411.595C295.836 409.057 293.293 389.868 293.293 389.868L256.711 385.009L254.685 366.285C254.685 366.285 238.5 364.432 249.83 382.24L223.244 396.106Z" fill="#FFCE00"/>
<path d="M265.444 401.465C262.02 401.465 258.896 399.981 258.704 399.885L259.913 397.387C259.968 397.415 265.575 400.066 268.82 397.754C270.961 396.238 271.667 391.978 271.065 386.639L273.931 386.962C274.661 393.465 273.483 397.854 270.421 400.026C268.898 401.102 267.135 401.465 265.444 401.465ZM274.857 408.091L274.528 405.339C274.596 405.326 281.138 404.489 284.009 399.931C285.704 397.239 285.64 392.677 284.193 388.39L287.013 388.535C288.744 393.657 288.52 397.993 286.345 401.426C282.75 407.104 275.175 408.055 274.857 408.091Z" fill="#001B42"/>
<path d="M216.769 387.325L237.704 374.381L253.761 405.816L227.638 415.069L216.769 387.325Z" fill="#0090BC"/>
<path d="M239.425 415.295C239.425 415.295 138.626 461.768 123.831 409.52C118.045 389.078 127.819 369.317 141.873 352.835C150.504 356.872 162.21 362.583 162.21 362.583C157.125 423.85 231.566 375.297 231.566 375.297L235.044 393.023L239.425 415.295Z" fill="#001B42"/>
<path d="M163.596 362.675C163.443 363.552 163.312 368.149 163.31 368.603C163.278 376.596 164.934 386.11 172.593 390.333C181.455 395.219 192.418 392.468 201.432 389.502C207.275 387.579 212.936 385.182 218.462 382.486C226.507 378.525 231.566 375.298 231.566 375.298C231.566 375.298 226.607 378.673 218.656 382.873C214.678 384.957 209.954 387.258 204.706 389.312C195.618 392.869 184.672 396.149 174.977 393.128C172.933 392.499 171.003 391.546 169.261 390.305C167.24 388.851 165.567 386.967 164.362 384.788C160.733 378.417 160.398 370.721 160.771 363.571C160.807 362.875 160.824 362.499 160.824 362.499L163.596 362.675Z" fill="white"/>
<path d="M451.53 388.655C441.799 399.176 427.533 401.791 419.664 394.518C411.788 387.229 413.287 372.81 423.012 362.289C432.741 351.776 447.007 349.153 454.885 356.431C462.76 363.715 461.255 378.145 451.53 388.655Z" fill="#FFCE00"/>
<path d="M453.962 381.237L451.208 380.927C453.573 359.819 431.977 355.457 431.142 355.32L433.522 353.367C433.754 353.408 456.617 357.558 453.962 381.237ZM441.654 388.969C441.116 381.49 438.691 376.311 434.451 373.576C427.423 369.054 416.114 372.604 416.016 372.641L417.168 369.815C417.621 369.653 427.778 365.976 435.957 371.247C440.966 374.475 443.82 380.374 444.424 388.764L441.654 388.969Z" fill="#001B42"/>
<path d="M81.988 155.443L26.037 149.431L20.03 216.017L81.988 155.443Z" fill="#FFCE00"/>
<path d="M23.4899 219.487L18.8809 219.164L23.9019 146.839L89.9019 155.052L89.3299 159.638L28.1769 152.027L23.4899 219.487Z" fill="#FF6700"/>
<path d="M40.5271 192.125L37.2881 163.329L71.6611 167.774L40.5271 192.125Z" fill="#FF6700"/>
<path d="M204.307 115.453L278.881 121.446L243.539 80.9519L204.307 115.453Z" fill="#FFCE00"/>
<path d="M282.741 131.04L243.294 84.2509L202.113 120.421L199.062 116.947L243.789 77.6599L286.274 128.058L282.741 131.04Z" fill="#FF6700"/>
<path d="M225.943 114.908L244.436 96.5688L263.085 118.764L225.943 114.908Z" fill="#FF6700"/>
<path d="M340.273 170.466C358.8 226.662 298.392 297.077 205.345 327.748C112.306 358.425 21.861 337.744 3.34098 281.552C-15.187 225.362 45.22 154.943 138.263 124.271C231.304 93.5949 321.746 114.277 340.273 170.466Z" fill="#FFCE00"/>
<path d="M194.235 259.267C194.235 259.267 202.117 243.201 221.502 245.59L211.105 259.529L194.235 259.267ZM107.428 202.232L90.782 202.065C90.791 200.934 91.034 190.699 97.219 179.838C103.043 169.618 115.278 157.013 140.529 155.032L141.835 171.625C127.672 172.737 117.635 178.09 112.001 187.53C107.635 194.849 107.428 202.159 107.428 202.232ZM249.457 149.108C240.068 140.109 229.707 136.484 218.656 138.35C209.969 139.812 203.893 144.2 203.831 144.24L193.882 130.89C194.77 130.228 202.885 124.342 215.039 122.085C226.612 119.933 243.978 120.796 260.977 137.092L249.457 149.108Z" fill="#001B42"/>
<path d="M224.553 249.615C234.265 263.022 224.553 273.661 219.466 274.12C214.383 274.583 211.453 266.722 211.453 266.722C211.453 266.722 203.131 284.448 189.105 282.288C188.763 282.236 188.422 282.173 188.084 282.099C175.369 279.31 160.889 306.273 171.74 306.513C177.069 306.631 183.402 305.177 189.835 302.131C189.835 302.131 167.612 315.965 157.57 301.905C149.724 290.921 165.561 263.177 183.134 262.487C183.134 262.487 177.637 278.738 188.683 280.98C202.321 283.755 211.224 265.26 211.224 265.26C211.224 265.26 215.79 274.76 221.504 272.194C231.797 267.572 224.553 249.615 224.553 249.615Z" fill="#001B42"/>
<path d="M188.084 282.098L171.749 306.511C160.895 306.272 154.2 299.519 159.313 286.411C166.952 266.878 180.936 263.482 180.936 263.482C180.936 263.482 175.368 279.306 188.084 282.098Z" fill="white"/>
<path d="M165.815 288.012C165.709 288.012 165.604 287.986 165.51 287.935C164.959 287.634 164.539 286.041 164.248 284.406C161.874 288.362 161.142 288.065 160.855 287.952C160.556 287.83 159.756 287.508 160.569 281.069L161.487 281.182C161.197 283.475 161.036 286.163 161.229 286.976C161.814 286.5 163.11 284.561 164.094 282.821L164.758 281.64L164.952 282.985C165.178 284.55 165.578 286.367 165.868 286.967C166.218 286.608 166.737 285.718 167.076 284.941L167.221 284.619L180.904 286.758L180.761 287.665L167.776 285.641C167.435 286.354 166.745 287.644 166.077 287.951C165.996 287.992 165.906 288.013 165.815 288.012Z" fill="#001B42"/>
<path d="M183.415 253.166C168.368 260.053 123.824 277.103 108.75 245.519C90.4861 207.265 130.712 172.969 161.306 194.927C184.709 211.722 184.709 240.537 183.415 253.166Z" fill="white"/>
<path d="M129.922 210.927C132.938 216.345 133.996 222.446 133.504 228.605C133.143 233.116 131.87 238.378 129.561 242.398C129.285 242.878 128.782 243.868 127.757 245.35C121.932 234.473 122.877 220.952 129.922 210.927Z" fill="#001B42"/>
<path d="M219.589 236.173C211.756 227.223 196.175 205.193 204.98 179.693C216.492 146.339 265.817 150.792 272.551 189.928C278.119 222.239 234.839 233.3 219.589 236.173Z" fill="white"/>
<path d="M220.625 184.906C226.386 194.439 225.572 208.356 219.642 217.654C219.276 218.228 218.86 218.773 218.467 219.329C212.744 208.672 213.761 195.228 220.426 185.203C220.491 185.104 220.558 185.005 220.625 184.906Z" fill="#001B42"/>
<path d="M101.158 139.178C101.158 139.178 104.55 139.055 109.56 139.422C118.615 140.086 127.226 143.25 135.32 147.318C141.332 150.34 146.944 154.135 152.093 158.46C172.251 175.394 185.483 199.523 193.759 224.194C196.238 231.585 198.484 239.019 200.59 246.524C193.359 220.753 181.804 194.064 163.981 173.777C149.992 157.854 127.67 144.452 108.67 142.841C105.643 142.584 98.5109 141.779 95.4829 142.035L101.158 139.178ZM195.475 111.426C195.475 111.426 193.536 118.389 192.85 122.361C191.966 127.48 191.24 132.627 190.764 137.8C189.812 148.152 189.735 158.567 190.533 168.932C191.425 180.506 193.421 192.085 196.237 203.331C199.62 217.177 204.133 230.789 210.034 243.772C201.681 225.394 194.795 206.819 190.804 186.966C186.652 166.312 185.46 144.836 188.335 123.932C188.896 119.853 189.708 115.869 190.555 111.848L195.475 111.426ZM100.713 246.53C100.713 246.53 111.578 289.218 167.99 263.481C167.99 263.481 109.96 304.101 100.713 246.53ZM270.63 167.407C270.63 167.407 300.814 199.395 249.464 231.669C249.464 231.669 314.18 206.116 270.63 167.407Z" fill="#FF6700"/>
<path d="M59.097 241.214C59.097 241.214 61.433 304.79 141.184 287.22C141.184 287.22 54.234 328.92 59.097 241.214ZM288.903 149.431C288.903 149.431 328.203 192.898 277.69 238.672C277.69 238.671 352.942 189.892 288.903 149.431Z" fill="#FF6700"/>
<path d="M47.8372 298.502L192.034 273.097L192.195 274.008L47.9977 299.413L47.8372 298.502Z" fill="#001B42"/>
<path d="M24.547 288.945L24.447 288.027L197.994 268.712L198.095 269.634L24.547 288.945Z" fill="#001B42"/>
<path d="M221.391 265.205L322.681 231.094L322.977 231.972L221.687 266.084L221.391 265.205Z" fill="#001B42"/>
<path d="M216.948 264.397L216.59 263.55L338.427 212.659L338.788 213.511L216.948 264.397Z" fill="#001B42"/>
</svg>
