<svg width="512" height="512" viewBox="0 0 512 512" fill="none" xmlns="http://www.w3.org/2000/svg">
<path d="M353.369 57.0649H26.0381C11.7861 57.0649 0.232056 68.6189 0.232056 82.8709V98.3819L26.2641 134.564L0.232056 161.251V288.707C0.232056 302.959 11.7861 314.513 26.0381 314.513H353.369C367.621 314.513 379.175 302.96 379.175 288.707V161.251L334.45 128.038L379.175 98.3819V82.8699C379.175 68.6179 367.621 57.0649 353.369 57.0649Z" fill="#00AFFF"/>
<path d="M0 98.3809H379.175V161.251H0V98.3809Z" fill="#00EEE4"/>
<path d="M343.696 170.252L180.521 173.211L134.279 174.05C133.158 174.07 132.037 174.2 130.924 174.39C127.863 174.624 124.867 175.459 122.247 177.148C117.662 180.104 113.722 184.46 112.43 189.914C104.416 223.737 104.468 259.079 102.965 293.627C102.479 304.806 113.138 315.49 124.326 314.989C136.316 314.452 145.166 305.603 145.688 293.627C146.763 268.907 147.101 243.977 150.181 219.397C150.327 218.423 150.47 217.448 150.627 216.476L297.455 213.813L343.697 212.975C349.236 212.874 354.859 210.661 358.802 206.718C362.507 203.013 365.297 196.934 365.059 191.613C364.547 180.213 355.666 170.035 343.696 170.252Z" fill="#004587"/>
<path d="M481.546 197.488H163.512C146.693 197.488 133.058 211.123 133.058 227.942V424.481C133.058 441.3 146.693 454.935 163.512 454.935H481.546C498.365 454.935 512 441.3 512 424.481V227.942C512 211.122 498.365 197.488 481.546 197.488Z" fill="#FF854A"/>
<path d="M264.187 225.719H203.833C191.435 225.719 181.386 235.769 181.386 248.166V274.888C181.386 287.285 191.436 297.336 203.833 297.336H264.187C276.584 297.336 286.634 287.286 286.634 274.888V248.166C286.635 235.769 276.585 225.719 264.187 225.719Z" fill="#FFD548"/>
<path d="M459.767 375.452H362.487C354.073 375.452 347.253 382.272 347.253 390.686V398.648C347.253 407.062 354.073 413.882 362.487 413.882H459.767C468.18 413.882 475.001 407.061 475.001 398.648V390.686C475.001 382.272 468.181 375.452 459.767 375.452Z" fill="#FFA4AD"/>
<path d="M293.824 355.17H175.783C174.066 355.17 172.42 355.852 171.206 357.066C169.992 358.28 169.309 359.927 169.309 361.643C169.309 363.36 169.992 365.007 171.206 366.221C172.42 367.435 174.066 368.117 175.783 368.117H293.824C295.541 368.117 297.187 367.435 298.401 366.221C299.615 365.007 300.297 363.361 300.297 361.644C300.297 360.794 300.13 359.952 299.805 359.166C299.48 358.381 299.003 357.667 298.402 357.066C297.801 356.465 297.087 355.988 296.301 355.662C295.516 355.337 294.674 355.17 293.824 355.17ZM293.824 382.767H175.783C174.066 382.767 172.42 383.449 171.206 384.663C169.992 385.877 169.31 387.523 169.31 389.24C169.31 390.957 169.992 392.603 171.206 393.817C172.42 395.031 174.066 395.713 175.783 395.713H293.824C295.541 395.713 297.187 395.031 298.401 393.817C299.615 392.603 300.297 390.957 300.297 389.24C300.297 387.523 299.615 385.877 298.401 384.663C297.187 383.449 295.541 382.767 293.824 382.767ZM456.584 245.744C471.21 246.049 479.818 257.884 480.03 272.713C480.136 280.311 468.985 281.116 468.871 273.503C468.758 265.191 465.849 258.763 457.586 257.571C448.507 256.254 443.635 263.138 444.54 272.054C445.315 279.626 434.155 280.371 433.395 272.835C431.834 257.447 441.836 245.421 456.584 245.744ZM340.369 241.776C354.974 242.536 363.261 254.611 363.077 269.444C362.982 277.044 351.814 277.518 351.911 269.889C352.011 261.587 349.285 255.074 341.053 253.637C332.01 252.047 326.968 258.779 327.633 267.72C328.201 275.317 317.032 275.724 316.474 268.168C315.319 252.733 325.646 241.014 340.369 241.776ZM378.758 264.263C378.425 261.063 379.603 257.969 382.853 257.113C385.515 256.422 389.27 258.218 389.597 261.425C390.074 266.046 390.944 274.063 395.931 275.742C403 278.109 406.294 269.071 406.754 263.423C407.374 255.88 418.534 256.125 417.925 263.743C416.892 276.318 409.908 287.975 396.835 287.688C385.062 287.445 379.854 274.982 378.758 264.263ZM166.374 112.139C181.001 112.444 189.608 124.279 189.82 139.108C189.926 146.706 178.775 147.511 178.66 139.898C178.547 131.586 175.638 125.158 167.375 123.966C158.296 122.649 153.424 129.533 154.329 138.449C155.103 146.021 143.944 146.766 143.184 139.23C141.624 123.843 151.626 111.816 166.374 112.139ZM50.159 108.171C64.764 108.931 73.051 121.006 72.867 135.839C72.771 143.439 61.603 143.913 61.701 136.284C61.801 127.982 59.075 121.469 50.843 120.032C41.8 118.443 36.758 125.174 37.423 134.115C37.991 141.713 26.822 142.12 26.264 134.563C25.109 119.128 35.436 107.409 50.159 108.171ZM88.548 130.658C88.215 127.458 89.393 124.364 92.643 123.508C95.305 122.817 99.06 124.613 99.386 127.82C99.863 132.441 100.733 140.457 105.72 142.137C112.789 144.504 116.084 135.466 116.543 129.818C117.163 122.275 128.323 122.52 127.714 130.138C126.681 142.714 119.696 154.37 106.624 154.084C94.853 153.841 89.644 141.378 88.548 130.658Z" fill="#004587"/>
<path d="M501.458 389.668L501.461 332.893C501.461 323.087 486.251 323.085 486.254 332.893L486.252 389.674C486.252 399.479 501.462 399.475 501.458 389.668ZM501.46 411.978C501.461 402.173 486.252 402.172 486.248 411.977C486.251 421.784 501.46 421.783 501.46 411.978ZM501.46 309.069C501.46 299.262 486.252 299.263 486.251 309.066C486.252 318.874 501.461 318.877 501.46 309.069ZM159.897 316.838L159.9 260.063C159.9 250.257 144.69 250.255 144.692 260.063L144.69 316.844C144.691 326.65 159.901 326.646 159.897 316.838ZM159.899 339.149C159.9 329.344 144.69 329.343 144.687 339.148C144.69 348.955 159.9 348.954 159.899 339.149ZM159.9 236.24C159.9 226.433 144.692 226.434 144.691 236.237C144.691 246.045 159.9 246.048 159.9 236.24ZM30.157 262.451L30.16 205.676C30.16 195.87 14.95 195.868 14.953 205.676L14.951 262.457C14.951 272.262 30.161 272.259 30.157 262.451ZM30.159 284.761C30.16 274.956 14.95 274.955 14.947 284.76C14.95 294.568 30.159 294.567 30.159 284.761ZM30.159 181.852C30.159 172.045 14.951 172.046 14.95 181.849C14.951 191.657 30.16 191.66 30.159 181.852ZM305.945 72.1429L259.511 72.1409C251.491 72.1409 251.489 84.5809 259.511 84.5789L305.95 84.5799C313.969 84.5789 313.966 72.1389 305.945 72.1429ZM324.192 72.1409C316.173 72.1399 316.172 84.5799 324.191 84.5819C332.212 84.5799 332.211 72.1409 324.192 72.1409ZM240.026 72.1409C232.005 72.1409 232.006 84.5789 240.024 84.5799C248.045 84.5789 248.047 72.1399 240.026 72.1409Z" fill="white"/>
<path d="M358.349 318.57C357.318 317.573 355.254 303.599 353.378 303.716C351.501 303.826 349.862 317.683 348.981 318.595C347.222 320.421 334.346 321.721 334.449 323.499C334.553 325.265 347.203 326.105 348.991 327.834C349.987 328.802 352.082 342.809 353.963 342.695C355.835 342.589 357.444 328.772 358.356 327.827C360.053 326.061 373.036 324.694 372.933 322.913C372.826 321.135 360.064 320.241 358.349 318.57Z" fill="#004587"/>
<path d="M74.614 208.305C73.749 207.47 72.012 195.72 70.432 195.815C68.853 195.91 67.478 207.561 66.738 208.327C65.261 209.866 54.428 210.959 54.516 212.45C54.604 213.938 65.243 214.645 66.742 216.1C67.581 216.91 69.344 228.689 70.927 228.597C72.499 228.505 73.852 216.888 74.621 216.093C76.046 214.605 86.964 213.458 86.876 211.959C86.789 210.464 76.058 209.713 74.614 208.305ZM68.196 269.043C60.86 269.043 60.848 280.444 68.196 280.444C75.531 280.444 75.544 269.043 68.196 269.043ZM226.545 139.802C219.209 139.802 219.197 151.203 226.545 151.203C233.881 151.203 233.893 139.802 226.545 139.802ZM298.734 118.844C291.398 118.844 291.386 130.245 298.734 130.245C306.07 130.245 306.082 118.844 298.734 118.844ZM353.458 137.474C346.122 137.474 346.11 148.875 353.458 148.875C360.794 148.874 360.806 137.474 353.458 137.474ZM191.615 72.2709C184.279 72.2709 184.267 83.6719 191.615 83.6719C198.951 83.6719 198.963 72.2709 191.615 72.2709ZM81.003 69.9419C73.667 69.9419 73.655 81.3429 81.003 81.3429C88.339 81.3429 88.351 69.9419 81.003 69.9419ZM218.395 265.55C211.059 265.55 211.047 276.951 218.395 276.951C225.731 276.951 225.743 265.55 218.395 265.55ZM317.363 221.306C310.027 221.306 310.015 232.707 317.363 232.707C324.699 232.706 324.711 221.306 317.363 221.306ZM410.51 224.799C403.174 224.799 403.162 236.2 410.51 236.2C417.846 236.199 417.858 224.799 410.51 224.799ZM440.783 338.904C433.447 338.904 433.435 350.305 440.783 350.305C448.119 350.305 448.131 338.904 440.783 338.904ZM481.535 223.634C474.199 223.634 474.187 235.035 481.535 235.035C488.871 235.035 488.883 223.634 481.535 223.634ZM299.898 328.424C292.562 328.424 292.55 339.825 299.898 339.825C307.234 339.825 307.246 328.424 299.898 328.424ZM192.78 319.11C185.444 319.11 185.432 330.511 192.78 330.511C200.115 330.511 200.128 319.11 192.78 319.11ZM174.15 209.662C166.814 209.662 166.802 221.063 174.15 221.063C181.486 221.063 181.498 209.662 174.15 209.662ZM153.192 409.928C145.856 409.928 145.844 421.329 153.192 421.329C160.528 421.329 160.54 409.928 153.192 409.928ZM254.489 421.572C247.153 421.572 247.141 432.973 254.489 432.973C261.825 432.972 261.837 421.572 254.489 421.572ZM381.402 388.97C374.066 388.97 374.054 400.371 381.402 400.371C388.738 400.371 388.75 388.97 381.402 388.97ZM322.021 416.914C314.685 416.914 314.673 428.315 322.021 428.315C329.357 428.315 329.369 416.914 322.021 416.914ZM430.304 432.05C422.968 432.05 422.956 443.451 430.304 443.451C437.64 443.451 437.652 432.05 430.304 432.05Z" fill="white"/>
</svg>
