<svg width="512" height="512" viewBox="0 0 512 512" fill="none" xmlns="http://www.w3.org/2000/svg">
<path d="M117.97 20.4925C93.2941 20.5626 69.6526 30.4142 52.2287 47.8877C34.8048 65.3612 25.0204 89.0306 25.0205 113.707C25.0201 127.475 28.0695 141.072 33.9496 153.521C39.8297 165.97 48.3946 176.962 59.0286 185.707C57.5546 191.697 53.9489 200.677 45.2031 205.723C31.2718 213.762 25.0205 209.298 25.0205 215.191C25.0205 221.087 48.9562 223.589 64.1385 214.658C73.2094 209.321 78.8106 203.433 81.8758 199.54C93.3784 204.412 105.743 206.922 118.235 206.921C130.476 206.921 142.597 204.51 153.906 199.826C165.216 195.141 175.491 188.275 184.147 179.619C192.803 170.963 199.669 160.688 204.354 149.378C209.038 138.069 211.449 125.948 211.449 113.707C211.449 101.466 209.038 89.3445 204.354 78.0352C199.669 66.726 192.803 56.4501 184.147 47.7943C175.491 39.1386 165.216 32.2725 153.906 27.588C142.597 22.9036 130.476 20.4925 118.235 20.4925C118.147 20.4924 118.058 20.4924 117.97 20.4925Z" fill="#599EFC"/>
<path d="M64.6032 67.7894C64.6032 67.7894 170.237 53.4801 174.232 62.8382C178.231 72.2001 180.136 88.0098 167.516 90.1679C154.892 92.326 69.4221 95.395 65.3478 93.1915C61.2772 90.9918 52.3236 68.738 64.6032 67.7894ZM73.6627 111.507C73.6627 111.507 198.243 109.644 200.976 116.81C203.708 123.976 199.324 126.33 188.209 125.862C177.097 125.389 78.3418 125.038 70.4048 124.195C62.4678 123.348 60.5591 111.42 73.6627 111.507ZM73.4586 142.953C73.4586 142.953 134.252 140.352 136.985 147.518C139.717 154.684 135.333 157.035 124.218 156.566C113.106 156.098 78.1377 156.491 70.2007 155.64C62.1768 154.783 66.0243 141.962 73.4586 142.953Z" fill="#FDE580"/>
<path d="M129.721 345.75C113.934 345.777 92.326 354.413 93.2218 376.474C93.5997 385.809 113.548 441.228 125.642 471.442C133.368 490.744 145.462 490.933 159.945 490.744H460.946C473.608 490.744 486.269 485.317 486.269 467.439V417.962C486.269 417.962 486.269 396.815 475.482 390.59C460.999 382.23 443.175 373.904 429.259 369.27L429.221 369.259C424.748 367.765 420.24 366.376 415.702 365.094C414.87 364.856 414.757 364.829 414.08 364.644C411.408 363.911 409.469 363.404 409.469 363.404L400.765 390.87C394.195 387.575 387.608 384.312 381.006 381.081C360.948 371.254 341.975 362.218 341.971 362.218C339.184 362.533 336.4 362.87 333.618 363.227L331.955 363.453C329.744 363.752 327.321 364.104 324.585 364.519C323.345 364.708 322.17 364.886 320.843 365.101C317.744 365.596 314.535 366.137 311.1 366.776L311.017 366.795C299.342 368.964 263.78 370.385 251.005 392.507C241.802 408.445 190.968 440.265 190.968 440.265C190.968 440.265 161.317 364.519 143.882 349.394C141.184 347.054 135.896 345.739 129.721 345.75Z" fill="#599EFC"/>
<path d="M455.851 233.827C455.851 233.827 452.711 291.023 422.153 294.704C391.603 298.389 419.889 240.808 425.468 236.284C431.05 231.76 455.851 233.827 455.851 233.827ZM277.254 138.326C277.254 138.326 263.156 160.123 262.212 194.294C261.255 228.464 264.46 236.042 264.46 236.042C264.46 236.042 317.06 168.57 315.223 146.381C313.39 124.195 277.254 138.326 277.254 138.326Z" fill="black"/>
<path d="M337.284 361.545C332.503 361.772 324.793 364.618 317.68 378.212C306.3 399.952 294.235 426.794 292.368 433.76C290.497 440.726 315.643 454.823 319.04 459.752C322.438 464.677 319.377 481.495 314.278 487.781C313.889 488.261 313.813 489.281 314.002 490.744H408.762C409.533 488.537 409.953 486.87 409.923 485.914C409.583 475.38 400.75 466.547 404.148 456.354C407.545 446.161 432.683 454.313 429.289 430.192C425.887 406.071 425.294 360.967 411.28 362.667C397.265 364.368 341.975 362.214 341.975 362.214C341.975 362.214 340.153 361.409 337.284 361.545Z" fill="black"/>
<path d="M328.72 380.246C328.72 380.246 338.055 442.287 345.236 490.744H386.138C397.11 450.783 407.179 410.792 407.882 396.218C409.469 363.405 375.605 404.371 375.605 404.371L366.394 405.406L328.72 380.246Z" fill="white"/>
<path d="M402.84 354.164C402.84 354.164 399.953 316.074 402.84 305.105L345.123 321.845C345.123 321.845 348.011 346.083 345.705 355.32C347.455 375.563 356.666 391.218 367.059 406.14C381.535 391.044 393.75 373.972 402.84 354.164Z" fill="#FFB899"/>
<path d="M402.84 305.105L345.127 321.845C345.127 321.845 347.084 338.369 346.468 349.33C351.144 348.593 356.227 347.236 361.764 345.066C391.479 333.425 399.711 318.655 401.978 310.737C402.179 308.492 402.458 306.553 402.84 305.105Z" fill="black"/>
<path d="M237.29 230.218C237.238 233.23 237.782 236.223 238.89 239.024C239.999 241.825 241.65 244.379 243.749 246.539C245.849 248.7 248.354 250.424 251.122 251.613C253.89 252.801 256.866 253.431 259.878 253.466C262.89 253.5 265.88 252.939 268.674 251.814C271.469 250.69 274.014 249.024 276.162 246.912C278.31 244.8 280.02 242.285 281.193 239.51C282.365 236.735 282.978 233.756 282.995 230.743C283.03 224.705 280.673 218.898 276.44 214.592C272.207 210.285 266.442 207.829 260.404 207.759C254.365 207.69 248.545 210.013 244.214 214.221C239.883 218.429 237.394 224.18 237.29 230.218Z" fill="#FFB899"/>
<path d="M260.258 220.278C262.672 220.309 264.997 221.196 266.819 222.78C268.641 224.364 269.843 226.543 270.21 228.93C270.577 231.316 270.086 233.755 268.824 235.814C267.563 237.873 265.612 239.417 263.319 240.173C264.007 238.9 264.396 237.49 264.46 236.042C263.953 236.658 263.295 237.133 262.55 237.42C261.806 237.707 261 237.798 260.21 237.683C259.42 237.568 258.674 237.251 258.042 236.763C257.41 236.276 256.915 235.633 256.604 234.898C256.293 234.163 256.177 233.36 256.267 232.567C256.357 231.774 256.65 231.018 257.118 230.371C257.585 229.724 258.212 229.209 258.936 228.875C259.661 228.541 260.46 228.4 261.255 228.464C259.813 227.18 258.017 226.362 256.102 226.115C254.186 225.869 252.242 226.207 250.521 227.085C251.231 225.077 252.552 223.341 254.298 222.121C256.044 220.901 258.128 220.254 260.258 220.278Z" fill="black"/>
<path d="M438.651 249.739C439.274 195.201 400.326 118.212 351.193 117.645C302.059 117.082 265.519 181.511 264.891 236.054C263.92 320.753 297.41 340.444 348.645 339.639C419.277 338.528 437.993 306.916 438.651 249.739Z" fill="#FFB899"/>
<path d="M314.879 235.74C314.879 235.74 300.302 251.255 289.103 251.55C277.897 251.845 285.459 271.419 301.571 266.743C317.684 262.068 323.508 230.279 314.879 235.74Z" fill="black"/>
<path d="M366.394 405.406L354.5 411.431C354.5 411.431 354.742 429.206 356.904 433.53C359.066 437.857 360.267 440.019 360.267 440.019L350.237 490.74H378.352C376.198 469.458 373.239 440.125 373.239 439.301C373.239 438.099 386.452 415.275 386.21 410.467C385.972 405.667 366.394 405.406 366.394 405.406Z" fill="#FD6B6A"/>
<path d="M402.84 354.164C402.84 354.164 415.312 359.447 415.951 368.208C416.813 380.05 396.18 437.438 395.901 436.319C395.621 435.2 367.063 406.14 367.063 406.14L402.84 354.164ZM367.063 406.14L344.186 432.007C344.186 432.007 328.365 391.263 328.365 378.606C328.365 365.948 345.705 355.32 345.705 355.32L367.063 406.14ZM379.66 283.445C378.674 287.368 376.171 290.739 372.7 292.817C369.229 294.894 365.075 295.508 361.152 294.523C357.228 293.538 353.856 291.035 351.778 287.564C349.7 284.093 349.086 279.938 350.07 276.014C350.558 274.072 351.424 272.244 352.619 270.636C353.813 269.027 355.313 267.67 357.032 266.641C358.751 265.613 360.656 264.933 362.638 264.64C364.619 264.348 366.639 264.449 368.582 264.937C372.506 265.922 375.876 268.426 377.954 271.897C380.031 275.368 380.645 279.522 379.66 283.445ZM268.792 263.266C267.854 263.031 266.896 262.885 265.931 262.832C267 273.955 268.882 283.589 271.517 291.888C273.574 290.931 275.392 289.526 276.837 287.777C278.283 286.028 279.32 283.979 279.873 281.778C280.362 279.835 280.462 277.815 280.17 275.833C279.877 273.852 279.197 271.947 278.169 270.228C277.14 268.509 275.783 267.009 274.174 265.815C272.566 264.62 270.738 263.754 268.796 263.266H268.792Z" fill="white"/>
<path d="M479.772 236.129C479.754 239.141 479.141 242.12 477.968 244.894C476.795 247.669 475.085 250.184 472.936 252.295C470.788 254.406 468.243 256.071 465.449 257.196C462.654 258.32 459.665 258.881 456.653 258.846C453.641 258.811 450.666 258.181 447.898 256.992C445.131 255.804 442.625 254.08 440.526 251.919C438.427 249.759 436.776 247.205 435.667 244.405C434.559 241.604 434.015 238.612 434.066 235.6C434.17 229.562 436.66 223.81 440.991 219.601C445.322 215.393 451.143 213.07 457.182 213.139C463.221 213.209 468.987 215.667 473.22 219.974C477.452 224.282 479.808 230.09 479.772 236.129Z" fill="#FFB899"/>
<path d="M457.038 225.664C454.624 225.64 452.28 226.474 450.423 228.016C448.565 229.558 447.314 231.709 446.893 234.086C446.471 236.463 446.906 238.913 448.12 240.999C449.334 243.086 451.249 244.675 453.523 245.483C452.865 244.194 452.507 242.773 452.477 241.326C452.97 241.954 453.616 242.444 454.354 242.749C455.092 243.055 455.896 243.164 456.689 243.068C457.482 242.971 458.236 242.671 458.879 242.198C459.522 241.725 460.032 241.093 460.36 240.365C460.688 239.637 460.822 238.837 460.75 238.042C460.678 237.246 460.402 236.483 459.948 235.826C459.495 235.168 458.88 234.639 458.162 234.289C457.445 233.939 456.649 233.78 455.852 233.827C457.323 232.576 459.137 231.797 461.058 231.594C462.978 231.391 464.916 231.773 466.616 232.69C465.952 230.665 464.672 228.9 462.955 227.64C461.237 226.38 459.168 225.689 457.038 225.664Z" fill="black"/>
<path d="M101.442 354.216C101.442 354.216 89.189 369.191 92.5905 382.638C95.9921 396.082 116.417 410.376 136.501 398.633C156.582 386.89 157.942 362.384 145.689 349.62C133.436 336.857 101.442 354.216 101.442 354.216Z" fill="white"/>
<path d="M133.009 352.262L136.955 359.179C152.696 387.881 111.065 398.524 105.826 376.905C101.276 358.121 97.2848 342.145 97.9046 336.256C99.7263 318.942 133.009 352.262 133.009 352.262Z" fill="#FFB899"/>
<path d="M191.315 441.058C191.315 441.058 200.197 455.867 199.971 467.485C199.744 479.107 193.137 493.004 197.465 488.673C201.796 484.345 207.945 470.448 205.213 461.562C202.48 452.677 203.845 450.855 210.908 456.093C217.972 461.336 220.932 456.32 211.589 449.714C202.253 443.107 191.315 441.058 191.315 441.058ZM447.272 227.024C446.985 225.815 440.885 213.229 436.674 235.517C432.468 257.809 426.171 237.014 421.186 215.244C416.201 193.474 412.1 172.07 404.11 158.041C396.116 144.011 385.458 135.432 379.055 132.858C372.657 130.28 353.91 140.152 343.437 141.418C332.968 142.684 325.776 132.748 318.636 135.205C311.497 137.661 297.119 143.263 284.545 155.675C271.967 168.087 277.25 138.327 277.25 138.327C277.25 138.327 282.043 109.028 300.683 93.5318C319.316 78.0357 352.096 68.1221 403.921 89.2911C455.742 110.456 468.619 121.466 474.726 148.308C480.838 175.15 468.982 208.229 463.01 216.944C457.038 225.664 447.272 227.024 447.272 227.024Z" fill="black"/>
<path d="M133.009 352.263C133.009 352.263 137.011 323.75 125.438 305.71C113.866 287.671 119.312 265.209 112.165 267.59C105.014 269.971 105.698 285.63 105.698 285.63C105.698 285.63 99.2275 275.077 84.5932 263.164C69.9589 251.251 60.0868 256.701 60.0868 256.701C60.0868 256.701 48.5139 250.231 44.4282 252.956L40.3464 255.677C40.3464 255.677 31.1546 254.316 30.1341 260.779C29.8067 262.58 29.992 264.437 30.669 266.138C31.346 267.839 32.4873 269.315 33.9628 270.398C33.9628 270.398 23.3272 272.356 25.028 278.483C26.7288 284.605 33.8758 286.31 49.5344 302.989C65.1929 319.668 80.8477 345.195 91.4001 351.321C101.953 357.448 113.866 368 117.611 369.021C121.357 370.041 133.009 352.263 133.009 352.263Z" fill="#FFB899"/>
<path d="M105.698 285.63C105.698 285.63 105.562 295.683 106.764 300.014C107.969 304.35 107.969 304.588 107.969 304.588C107.969 304.588 103.638 317.827 105.324 327.934C107.006 338.044 97.3792 322.881 96.6573 314.456C95.9354 306.031 102.432 303.382 102.432 303.382L105.698 285.63ZM60.0867 256.697C60.0867 256.697 74.755 267.042 81.0139 273.301C87.269 279.56 84.68 273.974 81.1877 269.801C77.6992 265.632 64.6826 256.697 60.0867 256.697ZM40.3463 255.677C40.3463 255.677 59.9997 266.993 69.4485 274.824C78.8936 282.651 77.9525 281.544 75.7414 278.226C73.5304 274.907 45.7888 254.059 40.3463 255.677ZM33.9626 270.398C33.9626 270.398 62.2977 287.417 68.1673 294.054C74.0407 300.691 65.703 285.97 57.0215 280.353C48.3437 274.737 33.9626 270.398 33.9626 270.398Z" fill="black"/>
<path d="M165.517 94.0004C145.947 94.0555 127.197 101.868 113.379 115.726C99.5605 129.583 91.8007 148.354 91.8008 167.924C91.8009 185.831 98.3008 203.129 110.093 216.605C121.885 230.081 138.168 238.818 155.917 241.194C158.744 252.646 165.891 275.716 179.648 286.559C198.345 301.288 235.46 283.441 234.326 279.473C233.193 275.504 204.294 289.107 189.562 268.992C182.437 259.26 183.072 248.076 185.624 239.119C201.165 234.775 214.858 225.465 224.613 212.61C234.368 199.755 239.648 184.061 239.648 167.924C239.648 158.216 237.737 148.603 234.022 139.634C230.307 130.664 224.862 122.515 217.998 115.65C211.133 108.785 202.984 103.339 194.015 99.6241C185.046 95.9089 175.432 93.9967 165.724 93.9967C165.655 93.9966 165.586 94.0003 165.517 94.0004Z" fill="#80D092"/>
<path d="M164.579 121.304C163.206 121.304 161.889 121.849 160.918 122.82C159.947 123.791 159.401 125.108 159.401 126.482V131.463C157.385 132.347 155.512 133.528 153.845 134.967C149.431 138.742 146.898 143.1 146.279 147.432C145.659 151.767 146.906 155.678 148.573 158.694C150.665 162.388 153.536 165.582 156.986 168.056C157.137 168.175 157.295 168.284 157.458 168.385C157.458 168.385 165.547 173.355 171.136 179.24C173.933 182.184 175.861 185.34 176.231 187.245C176.602 189.146 176.719 189.91 173.518 192.083C166.223 197.034 162.682 195.549 159.458 193.398C156.234 191.244 154.325 187.823 154.325 187.823C154.01 187.22 153.58 186.684 153.058 186.248C152.536 185.811 151.933 185.481 151.284 185.278C150.634 185.074 149.951 185 149.273 185.061C148.595 185.122 147.936 185.315 147.333 185.631C146.116 186.267 145.202 187.36 144.791 188.67C144.38 189.979 144.506 191.399 145.141 192.616C145.141 192.616 147.915 198.149 153.709 202.015C155.319 203.089 157.251 203.973 159.401 204.563V209.363C159.401 210.736 159.947 212.053 160.918 213.024C161.889 213.995 163.206 214.541 164.579 214.541C165.952 214.541 167.269 213.995 168.24 213.024C169.211 212.053 169.757 210.736 169.757 209.363V204.831C172.841 204.181 176.076 202.866 179.338 200.655C184.951 196.845 187.438 190.563 186.406 185.268C185.374 179.969 182.12 175.767 178.639 172.104C171.991 165.101 163.823 160.134 163.082 159.688C163.026 159.647 159.465 156.971 157.64 153.672C156.721 152.009 156.306 150.451 156.529 148.898C156.752 147.341 157.572 145.406 160.576 142.836C163.23 140.568 164.953 140.243 166.51 140.349C168.06 140.455 169.761 141.237 171.424 142.556C174.75 145.186 177.161 149.389 177.161 149.389C177.813 150.598 178.919 151.497 180.234 151.891C181.55 152.284 182.967 152.139 184.176 151.487C184.775 151.164 185.304 150.726 185.733 150.199C186.163 149.671 186.484 149.064 186.679 148.412C186.874 147.761 186.938 147.077 186.869 146.4C186.799 145.723 186.597 145.067 186.273 144.468C186.273 144.468 183.325 138.761 177.849 134.43C175.672 132.707 172.958 131.127 169.761 130.401V126.482C169.761 125.108 169.215 123.791 168.244 122.82C167.273 121.849 165.956 121.304 164.583 121.304H164.579Z" fill="white"/>
</svg>
