<svg width="512" height="512" viewBox="0 0 512 512" fill="none" xmlns="http://www.w3.org/2000/svg">
<g clip-path="url(#clip0_11_397)">
<path d="M267.976 500.011C207.087 500.011 149.263 477.677 104.312 436.965C95.031 438.968 86.998 440.592 80.275 441.95C69.307 444.166 60.645 445.915 56.898 447.275C49.214 450.074 41.945 452.721 35.46 452.721C27.481 452.721 21.077 448.652 18.332 441.836C15.988 436.021 17.203 430.802 18.275 426.198C19.414 421.311 21.134 413.921 20.649 399.975C20.072 383.232 16.099 367.92 11.894 351.708C8.841 339.935 5.282 328.117 5.122 315.866C4.939 301.818 8.346 287.569 15.4 275.381C18.024 270.843 21.171 267.069 24.104 263.719C24.0206 261.143 23.9786 258.565 23.978 255.987C23.978 252.049 24.079 248.046 24.279 244.011L17.28 240.532L14.8 239.731C11.8337 238.777 9.11283 237.184 6.82916 235.065C4.54549 232.945 2.75467 230.35 1.583 227.463C0.405085 224.579 -0.125869 221.471 0.027559 218.359C0.180987 215.247 1.01506 212.207 2.471 209.452L5.5 203.714C6.482 201.854 7.305 200.294 8.049 198.974C11.307 190.931 19.004 185.756 27.762 185.756C28.4026 185.755 29.043 185.784 29.681 185.842C31.3634 183.727 33.4556 181.974 35.832 180.687C38.1754 173.452 40.857 166.331 43.868 159.347C50.7373 143.487 59.2612 128.397 69.298 114.326C115.038 50.244 189.31 11.989 267.976 11.989C402.532 11.989 512 121.446 512 255.988C512 293.688 503.629 329.836 487.117 363.435C486.96 363.764 486.473 364.773 486.473 364.773C481.046 375.626 474.849 386.023 468.059 395.671C422.443 460.989 347.635 500.011 267.976 500.011Z" fill="white"/>
<path d="M499.3 255.986C499.3 292.332 490.864 326.725 475.846 357.288C475.746 357.488 475.646 357.713 475.545 357.914C475.445 358.114 475.345 358.34 475.245 358.54C470.164 368.703 464.382 378.44 457.898 387.651C416.346 447.151 347.334 486.075 269.211 486.075C142.151 486.075 39.1479 383.071 39.1479 255.986C39.1479 223.621 45.831 192.807 57.896 164.872C64.3694 149.915 72.4075 135.685 81.8759 122.419C123.578 63.9951 191.939 25.9231 269.211 25.9231C396.296 25.9231 499.3 128.927 499.3 255.986Z" fill="#FFAAC9"/>
<path d="M415.135 92.666C415.135 92.666 435.385 101.322 435.932 129.321C436.479 157.319 434.564 165.638 434.564 165.638L359.038 162.595L415.135 92.666Z" fill="#7886F3"/>
<path d="M415.682 92.8019C415.682 92.8019 392.149 116.883 379.014 233.637C365.879 350.392 369.71 426.282 369.71 426.282H125.255C125.255 426.282 130.674 156.398 178.106 80.5069C178.106 80.5079 282.874 58.5059 415.682 92.8019Z" fill="#F6E1C4"/>
<path d="M358.541 207.234L358.5 207.233L164.228 200.038C164.065 200.031 163.906 199.988 163.763 199.912C163.619 199.835 163.494 199.728 163.398 199.597C163.301 199.466 163.235 199.315 163.204 199.156C163.174 198.996 163.179 198.831 163.221 198.674L189.787 99.5999C189.823 99.4619 189.886 99.3324 189.973 99.2191C190.06 99.1057 190.168 99.0107 190.291 98.9395C190.415 98.8683 190.552 98.8224 190.693 98.8045C190.835 98.7865 190.978 98.7968 191.116 98.8349C191.694 98.9899 192.037 99.5849 191.883 100.163L165.669 197.922L358.582 205.068C358.869 205.079 359.14 205.204 359.335 205.414C359.531 205.624 359.635 205.904 359.625 206.191C359.614 206.471 359.495 206.736 359.293 206.931C359.091 207.125 358.821 207.234 358.541 207.234Z" fill="#7886F3"/>
<path d="M255.04 187.862C254.886 187.862 254.734 187.829 254.594 187.766C254.454 187.703 254.329 187.61 254.228 187.495L217.93 146.322L181.108 185.308C180.911 185.517 180.639 185.639 180.351 185.647C180.064 185.655 179.786 185.548 179.577 185.351C179.368 185.154 179.247 184.882 179.238 184.594C179.23 184.307 179.337 184.029 179.534 183.82L217.17 143.97C217.379 143.748 217.687 143.613 217.975 143.63C218.281 143.636 218.569 143.768 218.769 143.997L255.015 185.11L294.058 137.934C294.26 137.688 294.562 137.545 294.879 137.54C295.237 137.588 295.503 137.674 295.709 137.912L320.898 166.854L366.575 113.566C366.765 113.359 367.029 113.233 367.309 113.216C367.59 113.199 367.867 113.292 368.081 113.475C368.294 113.658 368.429 113.917 368.455 114.198C368.481 114.478 368.398 114.757 368.222 114.977L321.729 169.218C321.523 169.458 321.253 169.526 320.906 169.597C320.593 169.597 320.294 169.461 320.09 169.224L294.914 140.3L255.876 187.469C255.776 187.59 255.651 187.688 255.51 187.756C255.368 187.824 255.214 187.86 255.057 187.863L255.04 187.862Z" fill="#8CDBF9"/>
<path d="M180.458 187.054C182.521 187.054 184.194 185.381 184.194 183.318C184.194 181.255 182.521 179.582 180.458 179.582C178.395 179.582 176.722 181.255 176.722 183.318C176.722 185.381 178.395 187.054 180.458 187.054Z" fill="#8CDBF9"/>
<path d="M258.361 186.224C258.361 187.215 257.967 188.165 257.267 188.866C256.566 189.567 255.615 189.96 254.624 189.96C253.633 189.96 252.683 189.567 251.982 188.866C251.282 188.165 250.888 187.215 250.888 186.224C250.888 185.233 251.282 184.283 251.982 183.582C252.683 182.881 253.633 182.487 254.624 182.487C255.615 182.487 256.566 182.881 257.267 183.582C257.967 184.283 258.361 185.233 258.361 186.224ZM221.278 144.989C221.278 145.98 220.884 146.93 220.184 147.631C219.483 148.332 218.532 148.725 217.541 148.725C216.55 148.725 215.6 148.332 214.899 147.631C214.199 146.93 213.805 145.98 213.805 144.989C213.805 143.998 214.199 143.048 214.899 142.347C215.6 141.646 216.55 141.252 217.541 141.252C218.532 141.252 219.483 141.646 220.184 142.347C220.884 143.048 221.278 143.998 221.278 144.989ZM298.904 139.178C298.904 140.169 298.51 141.119 297.81 141.82C297.109 142.521 296.158 142.914 295.167 142.914C294.176 142.914 293.226 142.521 292.525 141.82C291.825 141.119 291.431 140.169 291.431 139.178C291.431 138.187 291.825 137.237 292.525 136.536C293.226 135.835 294.176 135.441 295.167 135.441C296.158 135.441 297.109 135.835 297.81 136.536C298.51 137.237 298.904 138.187 298.904 139.178Z" fill="#8CDBF9"/>
<path d="M367.813 118.284C369.876 118.284 371.549 116.611 371.549 114.548C371.549 112.485 369.876 110.812 367.813 110.812C365.75 110.812 364.077 112.485 364.077 114.548C364.077 116.611 365.75 118.284 367.813 118.284Z" fill="#8CDBF9"/>
<path d="M325.333 167.682C325.333 168.673 324.939 169.623 324.238 170.324C323.538 171.025 322.587 171.419 321.596 171.419C320.605 171.419 319.655 171.025 318.954 170.324C318.254 169.623 317.86 168.673 317.86 167.682C317.86 166.691 318.254 165.741 318.954 165.04C319.655 164.339 320.605 163.946 321.596 163.946C322.587 163.946 323.538 164.339 324.238 165.04C324.939 165.741 325.333 166.691 325.333 167.682Z" fill="#8CDBF9"/>
<path d="M261.613 253.11C250.951 235.255 234.615 233.571 212.29 233.185C204.335 233.047 193.668 223.987 186.62 226.596C163.293 235.212 146.474 257.469 146.017 283.848C145.422 318.181 172.771 346.494 207.104 347.088C235.542 347.58 259.867 328.878 267.688 302.931C269.356 297.438 270.25 291.74 270.344 286C270.552 273.993 267.344 262.706 261.613 253.11ZM207.679 313.904C191.683 313.627 178.946 300.419 179.223 284.423C179.43 272.458 186.847 262.332 197.263 258.089C200.778 256.654 210.623 247.368 214.654 247.438C224.646 247.611 227.408 261.364 232.477 269.149C235.626 273.985 237.25 279.656 237.138 285.426C237.085 288.665 236.487 291.873 235.369 294.913C231.25 306.182 220.337 314.123 207.679 313.904Z" fill="#FFAAC9"/>
<path d="M261.613 253.11L232.477 269.148C227.408 261.363 218.674 256.139 208.682 255.966C204.771 255.892 200.885 256.614 197.262 258.088C194.207 249.167 189.692 235.712 186.619 226.596C193.86 223.918 201.537 222.617 209.256 222.76C231.582 223.147 250.951 235.256 261.613 253.11Z" fill="#8CDBF9"/>
<path d="M270.344 286.001C270.25 291.741 269.356 297.439 267.688 302.932L235.37 294.914C236.488 291.873 237.086 288.666 237.139 285.427C237.251 279.657 235.627 273.986 232.478 269.15L261.614 253.112C267.344 262.706 270.552 273.993 270.344 286.001ZM287.591 260.105L289.774 240.583L361.322 243.298L359.119 263.926L287.591 260.105Z" fill="#FFC151"/>
<path d="M354.62 290.397L354.568 290.396L284.326 286.966C284.184 286.959 284.044 286.924 283.915 286.863C283.787 286.803 283.671 286.717 283.576 286.611C283.48 286.506 283.406 286.383 283.358 286.249C283.31 286.114 283.289 285.972 283.296 285.83C283.323 285.233 283.718 284.787 284.43 284.8L354.672 288.23C354.956 288.242 355.223 288.365 355.417 288.572C355.611 288.78 355.716 289.055 355.709 289.339C355.703 289.623 355.585 289.893 355.381 290.091C355.177 290.289 354.904 290.399 354.62 290.397ZM354.37 304.786L354.318 304.785L284.076 301.355C283.934 301.348 283.794 301.313 283.665 301.252C283.537 301.192 283.421 301.106 283.326 301C283.23 300.895 283.156 300.772 283.108 300.638C283.06 300.503 283.039 300.361 283.046 300.219C283.073 299.623 283.463 299.163 284.18 299.189L354.422 302.619C354.706 302.631 354.973 302.754 355.167 302.961C355.361 303.169 355.466 303.444 355.459 303.728C355.453 304.012 355.335 304.282 355.131 304.48C354.927 304.678 354.654 304.788 354.37 304.786ZM354.123 319.174L354.073 319.173L280.635 315.743C280.493 315.737 280.353 315.702 280.224 315.642C280.095 315.581 279.979 315.496 279.883 315.39C279.788 315.285 279.713 315.162 279.665 315.028C279.617 314.894 279.596 314.751 279.603 314.609C279.63 314.012 280.082 313.538 280.735 313.577L354.173 317.007C354.315 317.01 354.455 317.042 354.586 317.099C354.716 317.157 354.833 317.239 354.932 317.342C355.03 317.445 355.107 317.566 355.159 317.699C355.21 317.832 355.235 317.973 355.231 318.116C355.228 318.258 355.197 318.398 355.139 318.528C355.082 318.658 354.999 318.776 354.896 318.874C354.793 318.973 354.672 319.05 354.539 319.101C354.407 319.153 354.265 319.177 354.123 319.174ZM353.873 333.562L353.823 333.561L279.528 330.132C279.386 330.126 279.246 330.091 279.117 330.031C278.988 329.97 278.873 329.885 278.777 329.78C278.681 329.674 278.607 329.551 278.559 329.417C278.51 329.283 278.489 329.141 278.496 328.999C278.521 328.401 278.981 327.957 279.628 327.966L353.923 331.395C354.21 331.402 354.483 331.522 354.682 331.73C354.88 331.938 354.988 332.216 354.981 332.504C354.975 332.791 354.854 333.064 354.646 333.262C354.439 333.461 354.16 333.569 353.873 333.562ZM233.455 369.037H153.753C153.465 369.037 153.19 368.923 152.986 368.72C152.783 368.516 152.669 368.241 152.669 367.953C152.669 367.666 152.783 367.39 152.986 367.187C153.19 366.983 153.465 366.869 153.753 366.869H233.455C233.742 366.869 234.018 366.983 234.221 367.187C234.425 367.39 234.539 367.666 234.539 367.953C234.539 368.241 234.425 368.516 234.221 368.72C234.018 368.923 233.742 369.037 233.455 369.037ZM233.455 379.553H153.753C153.465 379.553 153.19 379.439 152.986 379.236C152.783 379.032 152.669 378.757 152.669 378.469C152.669 378.182 152.783 377.906 152.986 377.703C153.19 377.499 153.465 377.385 153.753 377.385H233.455C233.742 377.385 234.018 377.499 234.221 377.703C234.425 377.906 234.539 378.182 234.539 378.469C234.539 378.757 234.425 379.032 234.221 379.236C234.018 379.439 233.742 379.553 233.455 379.553ZM233.455 390.068H153.753C153.465 390.068 153.19 389.954 152.986 389.751C152.783 389.547 152.669 389.272 152.669 388.984C152.669 388.697 152.783 388.421 152.986 388.218C153.19 388.014 153.465 387.9 153.753 387.9H233.455C233.742 387.9 234.018 388.014 234.221 388.218C234.425 388.421 234.539 388.697 234.539 388.984C234.539 389.272 234.425 389.547 234.221 389.751C234.018 389.954 233.742 390.068 233.455 390.068ZM352.454 369.037H272.752C272.464 369.037 272.189 368.923 271.985 368.72C271.782 368.516 271.668 368.241 271.668 367.953C271.668 367.666 271.782 367.39 271.985 367.187C272.189 366.983 272.464 366.869 272.752 366.869H352.454C352.741 366.869 353.017 366.983 353.22 367.187C353.424 367.39 353.538 367.666 353.538 367.953C353.538 368.241 353.424 368.516 353.22 368.72C353.017 368.923 352.741 369.037 352.454 369.037ZM352.454 379.553H272.752C272.464 379.553 272.189 379.439 271.985 379.236C271.782 379.032 271.668 378.757 271.668 378.469C271.668 378.182 271.782 377.906 271.985 377.703C272.189 377.499 272.464 377.385 272.752 377.385H352.454C352.741 377.385 353.017 377.499 353.22 377.703C353.424 377.906 353.538 378.182 353.538 378.469C353.538 378.757 353.424 379.032 353.22 379.236C353.017 379.439 352.741 379.553 352.454 379.553ZM352.454 390.068H272.752C272.464 390.068 272.189 389.954 271.985 389.751C271.782 389.547 271.668 389.272 271.668 388.984C271.668 388.697 271.782 388.421 271.985 388.218C272.189 388.014 272.464 387.9 272.752 387.9H352.454C352.741 387.9 353.017 388.014 353.22 388.218C353.424 388.421 353.538 388.697 353.538 388.984C353.538 389.272 353.424 389.547 353.22 389.751C353.017 389.954 352.741 390.068 352.454 390.068ZM473.209 199.093L422.068 384.552L389 419.683L382.277 372.67L432.402 188.759L473.209 199.093Z" fill="#7886F3"/>
<path d="M397.271 360.325C397.184 360.325 397.098 360.305 397.02 360.266C396.942 360.227 396.874 360.171 396.821 360.102C396.768 360.033 396.731 359.952 396.715 359.867C396.698 359.781 396.7 359.693 396.723 359.609L440.889 195.59C440.904 195.514 440.935 195.442 440.979 195.378C441.024 195.314 441.081 195.26 441.147 195.219C441.213 195.178 441.287 195.151 441.364 195.139C441.441 195.128 441.519 195.133 441.594 195.153C441.669 195.173 441.739 195.208 441.8 195.256C441.861 195.305 441.912 195.365 441.948 195.434C441.985 195.502 442.007 195.577 442.014 195.655C442.02 195.732 442.011 195.81 441.986 195.884L397.82 359.903C397.787 360.024 397.716 360.131 397.617 360.207C397.518 360.283 397.396 360.325 397.271 360.325ZM418.711 366.008C418.624 366.008 418.538 365.988 418.46 365.949C418.382 365.91 418.314 365.854 418.261 365.785C418.208 365.716 418.171 365.635 418.155 365.55C418.138 365.464 418.14 365.376 418.163 365.292L462.327 201.273C462.342 201.197 462.373 201.125 462.417 201.061C462.462 200.997 462.519 200.943 462.585 200.902C462.651 200.861 462.725 200.834 462.802 200.822C462.879 200.811 462.957 200.816 463.032 200.836C463.107 200.856 463.177 200.891 463.238 200.939C463.299 200.988 463.35 201.048 463.386 201.117C463.423 201.185 463.445 201.26 463.452 201.338C463.458 201.415 463.449 201.493 463.424 201.567L419.26 365.586C419.227 365.707 419.156 365.814 419.057 365.89C418.958 365.966 418.836 366.008 418.711 366.008Z" fill="#0A213B"/>
<path d="M422.068 384.552L401.52 406.375L389 419.683L386.253 400.487L382.277 372.67L397.271 359.756L403.462 376.297L419.472 364.414L422.068 384.552Z" fill="#FFC151"/>
<path d="M401.52 406.375L389 419.683L386.253 400.486C390.502 398.984 396.481 400.896 399.425 403.612C400.282 404.401 400.992 405.337 401.52 406.375Z" fill="#0A213B"/>
<path d="M432.402 188.759C432.402 188.759 435.237 204.778 448.152 207.361C461.067 209.944 473.209 199.093 473.209 199.093L432.402 188.759Z" fill="#FFC151"/>
<path d="M205.077 365.471C202.491 374.864 181.751 404.303 135.81 415.671C89.8761 427.02 63.4351 430.528 53.3771 434.178C43.3251 437.841 34.2861 441.079 32.4921 436.63C30.6981 432.181 36.7121 425.379 35.8111 399.491C35.2341 382.899 31.4101 366.744 27.2721 350.739C23.4281 335.871 18.7311 321.103 20.9341 305.582C21.9387 298.469 24.0992 291.568 27.3301 285.152C30.7331 278.417 35.6741 273.326 40.4651 267.591C46.1701 260.761 52.7651 252.788 55.7931 244.308L55.4281 243.943C55.4281 243.943 40.7341 236.011 40.7151 236.003L35.5921 233.457L35.5351 233.433L24.5081 227.954C24.3901 227.893 24.2771 227.845 24.1961 227.799L23.8041 227.599L20.3121 226.472C15.9281 225.057 13.8811 220.03 16.0301 215.955C16.0301 215.955 22.0761 204.49 22.0901 204.485L22.1491 204.33C23.9831 199.57 30.0661 198.181 33.9011 201.545C42.1481 208.779 53.3321 218.697 52.0371 216.748C51.0061 215.18 46.1931 208.357 41.6081 201.894C39.3321 198.685 40.6341 194.227 44.2501 192.677C49.1576 190.573 54.1741 188.734 59.2781 187.166C62.6311 186.136 66.1691 188.106 67.0501 191.5L68.0071 195.184L67.9241 188.137C67.9011 186.188 69.2411 184.459 71.1441 184.042C78.0772 182.519 85.1122 181.504 92.1931 181.005C97.9761 180.6 96.6321 188.818 96.1101 192.293C94.7761 201.17 92.7161 210.107 91.7631 219.025L91.0511 225.684C91.0511 225.684 91.0891 225.7 91.1721 225.713C91.5101 225.779 92.5791 226.034 94.1931 226.443C97.4711 227.271 103.003 228.781 109.253 230.951C111.928 231.867 114.716 232.908 117.515 234.055C121.606 235.74 125.698 237.658 129.452 239.822C133.658 242.255 137.438 244.985 140.234 248.017C140.293 248.087 140.366 248.151 140.43 248.234C144.12 252.246 148.234 257.661 152.385 263.668C163.351 279.547 174.529 299.548 178.213 308.688C183.313 321.339 194.474 345.085 198.521 350.215C202.581 355.338 207.649 356.084 205.077 365.471Z" fill="#7886F3"/>
<path d="M120.919 301.342C113.014 300.421 104.679 302.486 98.181 307.114C91.957 311.547 85.526 320.34 91.635 327.633C96.678 333.653 105.896 331.409 112.541 330.406C116.514 329.806 121.192 328.753 124.975 330.64C128.045 332.171 129.049 335.125 127.544 338.193C123.751 345.923 112.467 347.269 105.341 344.025C103.808 343.327 102.025 343.599 101.104 345.136C100.312 346.459 100.696 348.682 102.215 349.373C109.825 352.837 118.887 352.756 126.144 348.356C132.308 344.619 137.327 336.131 132.677 329.329C127.21 321.331 116.695 323.558 108.617 324.777C105.322 325.274 101.385 326.138 98.161 324.869C94.695 323.505 95.037 319.612 96.768 316.944C101.681 309.376 112.467 306.551 120.918 307.536C122.593 307.731 123.999 305.973 124.015 304.439C124.035 302.605 122.573 301.535 120.919 301.342Z" fill="#FFC151"/>
<path d="M98.2069 297.479C106.808 316.998 114.15 337.049 120.261 357.484C121.4 361.294 127.38 359.671 126.234 355.837C119.968 334.883 112.374 314.365 103.556 294.352C101.952 290.713 96.6129 293.861 98.2069 297.479ZM93.5379 225.897C89.5299 230.265 85.0549 234.005 79.8649 237.013C74.6749 240.02 69.3239 242.896 63.7369 245.079C60.7639 246.241 57.2739 247.392 54.0819 247.438C53.4069 245.889 53.1149 244.701 52.1709 243.299C67.5029 239.131 81.6179 230.585 92.4179 218.932C92.4139 221.494 93.1799 223.361 93.5379 225.897Z" fill="#FFC151"/>
<path d="M425.756 156.544L426.95 143.01C426.999 142.457 427.787 142.403 427.91 142.945L430.865 155.948C431.07 156.849 431.56 157.661 432.262 158.261C432.964 158.862 433.842 159.22 434.764 159.283L448.121 160.192C448.669 160.229 448.746 161.004 448.216 161.148L435.258 164.68C434.428 164.906 433.685 165.376 433.125 166.03C432.565 166.683 432.214 167.49 432.118 168.345L430.48 182.882C430.418 183.436 429.624 183.468 429.518 182.92L426.967 169.772C426.79 168.859 426.321 168.028 425.632 167.404C424.942 166.78 424.068 166.396 423.142 166.311L408.344 164.616C408.027 164.58 407.996 164.132 408.304 164.052L422.449 160.351C423.331 160.146 424.126 159.667 424.72 158.984C425.314 158.3 425.676 157.446 425.756 156.544ZM120.964 123.337L122.158 109.802C122.207 109.249 122.995 109.195 123.118 109.737L126.073 122.74C126.278 123.641 126.768 124.453 127.47 125.053C128.172 125.654 129.05 126.012 129.972 126.075L143.329 126.984C143.877 127.021 143.954 127.796 143.424 127.94L130.466 131.472C129.636 131.698 128.893 132.168 128.333 132.822C127.773 133.475 127.422 134.282 127.326 135.137L125.688 149.674C125.626 150.228 124.832 150.26 124.726 149.712L122.175 136.564C121.998 135.651 121.529 134.82 120.84 134.196C120.15 133.572 119.277 133.189 118.351 133.103L103.553 131.408C103.236 131.372 103.205 130.924 103.513 130.844L117.658 127.143C118.54 126.938 119.335 126.46 119.928 125.776C120.522 125.093 120.885 124.239 120.964 123.337ZM268.616 45.064L269.81 31.53C269.859 30.977 270.647 30.923 270.77 31.465L273.725 44.468C273.93 45.3693 274.42 46.1806 275.122 46.7813C275.824 47.3821 276.702 47.7404 277.624 47.803L290.981 48.712C291.529 48.749 291.606 49.524 291.076 49.668L278.119 53.2C277.289 53.4262 276.546 53.8965 275.986 54.5499C275.426 55.2034 275.075 56.0099 274.979 56.865L273.341 71.402C273.279 71.956 272.485 71.988 272.379 71.44L269.828 58.292C269.651 57.3789 269.182 56.5478 268.493 55.9237C267.803 55.2996 266.929 54.9162 266.003 54.831L251.205 53.136C250.889 53.1 250.857 52.652 251.165 52.572L265.311 48.871C266.193 48.6655 266.987 48.1868 267.58 47.5031C268.174 46.8195 268.536 45.9659 268.616 45.064ZM472.412 293.89L475.539 283.465C475.667 283.039 476.294 283.124 476.303 283.569L476.518 294.249C476.533 294.989 476.785 295.705 477.239 296.29C477.693 296.875 478.324 297.298 479.037 297.496L489.37 300.371C489.794 300.489 489.729 301.109 489.29 301.136L478.552 301.811C477.864 301.854 477.205 302.103 476.66 302.525C476.115 302.947 475.709 303.523 475.495 304.178L471.858 315.318C471.719 315.743 471.091 315.639 471.097 315.192L471.223 304.464C471.232 303.719 470.998 302.991 470.558 302.39C470.118 301.789 469.495 301.347 468.782 301.13L457.447 297.406C457.205 297.326 457.252 296.97 457.507 296.957L469.204 296.342C469.929 296.324 470.629 296.077 471.206 295.636C471.782 295.196 472.204 294.585 472.412 293.89ZM302.231 451.225L302.323 440.341C302.327 439.896 302.953 439.803 303.086 440.228L306.274 450.423C306.495 451.13 306.938 451.746 307.537 452.181C308.136 452.617 308.86 452.847 309.6 452.838L320.324 452.714C320.764 452.709 320.875 453.322 320.461 453.471L310.338 457.117C309.689 457.351 309.126 457.774 308.721 458.331C308.315 458.889 308.086 459.555 308.064 460.244L307.682 471.957C307.667 472.404 307.036 472.479 306.916 472.049L304.041 461.712C303.841 460.994 303.414 460.36 302.824 459.906C302.233 459.451 301.511 459.201 300.766 459.192L288.842 458.781C288.587 458.772 288.533 458.417 288.774 458.333L299.834 454.477C300.525 454.257 301.129 453.824 301.56 453.24C301.99 452.656 302.225 451.951 302.231 451.225ZM187.393 442.788L191.566 432.735C191.736 432.324 192.352 432.473 192.315 432.917L191.44 443.563C191.379 444.301 191.558 445.039 191.95 445.667C192.342 446.295 192.926 446.78 193.615 447.05L203.601 450.963C204.011 451.123 203.883 451.734 203.443 451.716L192.692 451.293C192.003 451.266 191.322 451.446 190.737 451.811C190.152 452.175 189.69 452.707 189.41 453.337L184.657 464.049C184.476 464.457 183.862 464.29 183.913 463.846L185.131 453.187C185.216 452.447 185.058 451.699 184.682 451.056C184.305 450.413 183.73 449.91 183.043 449.622L172.146 444.762C171.913 444.658 171.996 444.309 172.251 444.321L183.95 444.901C184.673 444.956 185.395 444.782 186.014 444.402C186.632 444.023 187.115 443.458 187.393 442.788Z" fill="#F6E1C4"/>
<path d="M181.759 68.0241C184.543 68.0241 186.799 65.7676 186.799 62.9841C186.799 60.2006 184.543 57.9441 181.759 57.9441C178.975 57.9441 176.719 60.2006 176.719 62.9841C176.719 65.7676 178.975 68.0241 181.759 68.0241Z" fill="#F6E1C4"/>
<path d="M345.422 64.7631C348.206 64.7631 350.462 62.5066 350.462 59.7231C350.462 56.9396 348.206 54.6831 345.422 54.6831C342.639 54.6831 340.382 56.9396 340.382 59.7231C340.382 62.5066 342.639 64.7631 345.422 64.7631Z" fill="#F6E1C4"/>
<path d="M405.906 231.094C405.906 232.431 405.375 233.713 404.43 234.658C403.485 235.603 402.203 236.134 400.866 236.134C399.529 236.134 398.247 235.603 397.302 234.658C396.357 233.713 395.826 232.431 395.826 231.094C395.826 229.757 396.357 228.475 397.302 227.53C398.247 226.585 399.529 226.054 400.866 226.054C402.203 226.054 403.485 226.585 404.43 227.53C405.375 228.475 405.906 229.757 405.906 231.094ZM487.737 237.024C487.737 238.361 487.206 239.643 486.261 240.588C485.316 241.533 484.034 242.064 482.697 242.064C481.36 242.064 480.078 241.533 479.133 240.588C478.188 239.643 477.657 238.361 477.657 237.024C477.657 235.687 478.188 234.405 479.133 233.46C480.078 232.515 481.36 231.984 482.697 231.984C484.034 231.984 485.316 232.515 486.261 233.46C487.206 234.405 487.737 235.687 487.737 237.024ZM448.6 375.781C448.6 377.118 448.069 378.4 447.124 379.346C446.178 380.291 444.896 380.822 443.559 380.822C442.222 380.822 440.94 380.291 439.994 379.346C439.049 378.4 438.518 377.118 438.518 375.781C438.518 374.444 439.049 373.162 439.994 372.216C440.94 371.271 442.222 370.74 443.559 370.74C444.896 370.74 446.178 371.271 447.124 372.216C448.069 373.162 448.6 374.444 448.6 375.781ZM380.407 443.974C380.407 445.311 379.876 446.593 378.93 447.539C377.985 448.484 376.703 449.015 375.366 449.015C374.029 449.015 372.747 448.484 371.801 447.539C370.856 446.593 370.325 445.311 370.325 443.974C370.325 442.637 370.856 441.355 371.801 440.41C372.747 439.464 374.029 438.933 375.366 438.933C376.703 438.933 377.985 439.464 378.93 440.41C379.876 441.355 380.407 442.637 380.407 443.974ZM122.758 204.706C122.758 206.043 122.227 207.325 121.282 208.27C120.337 209.215 119.055 209.746 117.718 209.746C116.381 209.746 115.099 209.215 114.154 208.27C113.209 207.325 112.678 206.043 112.678 204.706C112.678 203.369 113.209 202.087 114.154 201.142C115.099 200.197 116.381 199.666 117.718 199.666C119.055 199.666 120.337 200.197 121.282 201.142C122.227 202.087 122.758 203.369 122.758 204.706ZM252.917 443.974C252.917 445.311 252.386 446.593 251.44 447.539C250.495 448.484 249.213 449.015 247.876 449.015C246.539 449.015 245.257 448.484 244.311 447.539C243.366 446.593 242.835 445.311 242.835 443.974C242.835 442.637 243.366 441.355 244.311 440.41C245.257 439.464 246.539 438.933 247.876 438.933C249.213 438.933 250.495 439.464 251.44 440.41C252.386 441.355 252.917 442.637 252.917 443.974Z" fill="#F6E1C4"/>
</g>
<defs>
<clipPath id="clip0_11_397">
<rect width="512" height="512" fill="white"/>
</clipPath>
</defs>
</svg>
