<svg width="512" height="512" viewBox="0 0 512 512" fill="none" xmlns="http://www.w3.org/2000/svg">
<path d="M428.64 279.577C414.7 255.032 392.717 239.075 371.458 223.644L366.153 219.787C337.883 199.208 311.18 179.772 296.714 149.11C295.786 147.146 294.88 144.963 293.921 142.653C293.474 141.58 293.022 140.491 292.553 139.39C297.983 123.993 292.723 106.649 279.512 97.2083C277.755 91.8958 274.647 87.4019 270.371 83.9454C278.19 64.7802 278.955 51.0842 272.856 41.2477C269.507 35.8415 262.42 29.3416 247.681 29.0667L247.013 29.0595C240.478 29.0595 233.715 30.8587 226.823 34.4227C219.311 26.9414 209.312 22.7942 198.273 22.7942C195.58 22.7942 192.82 23.0425 190.07 23.532C173.88 26.4135 165.2 36.8906 157.542 46.1337C153.147 51.4385 148.996 56.4495 143.718 59.7053C139.482 62.3185 134.935 64.4372 130.122 66.6777C119.083 71.8197 106.572 77.6453 97.7253 90.5625C85.4665 108.466 87.1802 126.965 102.093 137.691C105.065 139.828 108.094 141.289 110.767 142.582C114.694 144.479 116.979 145.649 118.259 147.645C119.447 149.497 116.668 157.314 115.755 159.881L115.25 161.309C114.75 162.741 114.169 164.254 113.568 165.827C109.59 176.242 104.143 190.503 111.236 203.407C117.963 215.648 126.53 218.218 132.533 218.218C145.42 218.218 156.463 206.496 166.207 196.152C168.485 193.734 170.688 191.394 172.705 189.433C164.95 204.526 153.719 218.319 143.75 229.828C140.544 233.53 137.327 237.194 134.12 240.846C117.754 259.486 100.83 278.761 87.238 301.189C63.452 340.437 47.9722 396.536 74.4836 438.027C73.1381 454.456 78.6113 466.814 90.1129 473.076C95.7997 476.173 102.683 477.744 110.57 477.744C116.178 477.744 122.316 476.979 129.258 475.41C165.07 486.592 202.555 487.487 238.832 488.355C243.054 488.457 247.269 488.558 251.474 488.673C261.434 488.949 272.102 489.205 282.637 489.205C310.274 489.205 346.127 487.648 379.855 475.689C382.922 476.014 385.957 476.272 388.912 476.524C391.014 476.703 393.094 476.879 395.132 477.077C397.436 477.301 399.726 477.413 401.936 477.413H401.937C413.037 477.413 421.687 474.664 427.641 469.241C438.289 459.545 442.1 443.82 438.323 425.694C458.736 382.999 455.07 326.112 428.64 279.577Z" fill="white"/>
<path d="M419.922 284.527C406.283 260.513 383.717 244.98 361.852 229.057C332.516 207.695 303.495 186.978 287.646 153.388C285.608 149.07 283.806 144.157 281.625 139.47C288.01 127.041 283.983 111.461 271.953 104.231C271.578 104.006 271.18 103.833 270.796 103.63C269.411 95.3682 264.242 90.581 257.558 88.1377C265.953 70.4097 277.227 39.6462 247.495 39.0891C239.332 38.9371 231.426 42.6813 224.509 47.5699C217.474 36.1441 205.388 30.9883 191.827 33.4013C170.796 37.1456 165.593 57.9886 148.982 68.2378C134.001 77.4809 116.664 80.6487 105.997 96.2263C98.3474 107.399 95.9041 120.888 107.948 129.55C114.272 134.098 122.228 135.261 126.698 142.231C130.828 148.669 126.959 158.202 124.713 164.619C121.248 174.523 114.288 188.145 120.023 198.579C134.555 225.024 155.589 189.739 170.143 178.301C175.238 174.3 176.466 175.695 180.218 177.82C181.109 178.324 182.045 178.833 182.961 179.322C186.761 181.35 186.47 184.027 184.465 188.268C183.569 190.155 182.642 192.028 181.687 193.887C173.743 209.393 162.684 223.284 151.328 236.393C131.622 259.143 111.512 280.479 95.8119 306.386C73.6121 343.017 57.757 396.585 84.5725 435.087C84.6621 435.216 84.764 435.318 84.8628 435.426C83.251 446.693 84.7768 458.758 94.9052 464.271C104.376 469.426 117.467 468.045 129.657 465.012C168.937 477.889 210.874 477.518 251.753 478.653C294.062 479.827 338.386 480.347 378.644 465.466C384.528 466.161 390.465 466.553 396.099 467.098C403.882 467.851 414.698 467.469 420.891 461.83C430.839 452.771 431.193 437.672 427.738 424.465C450.13 381.196 443.429 325.917 419.922 284.527Z" fill="#68182B"/>
<path d="M264.294 101.24C251.839 98.4233 236.511 103.188 225.794 107.358C208.173 114.213 190.973 127.853 181.887 144.575C178.339 151.105 176.318 160.498 177.92 168.476C166.878 154.852 178.657 131.959 189.258 119.651C198.379 109.062 210.896 101.154 223.78 96.0225C234.012 91.9465 259.13 86.7425 264.294 101.24Z" fill="#FF801D"/>
<path d="M124.685 194.464C121.064 185.251 128.176 172.536 131.176 163.963C132.996 158.767 134.277 153.505 134.013 148.285C139.25 155.421 139.874 163.236 138.103 171.565C138.048 171.827 138.434 171.903 138.583 171.696C144.951 162.803 143.68 150.677 136.79 142.42C132.656 137.465 128.007 133.14 122.298 130.089C118.548 128.084 114.905 126.55 111.431 124.623C110.209 123.856 109.049 123.029 108.012 122.09C98.3156 113.301 111.557 97.9707 117.89 92.011C125.084 85.2413 134.159 81.2943 143.124 77.5321C154.661 72.6876 162.071 66.0009 169.443 56.0394C176.216 46.891 183.675 40.2222 195.389 38.8736C205.909 37.6596 214.553 42.3475 219.801 51.1733C217.812 52.8141 215.883 54.5262 214.018 56.3061C206.937 63.0482 196.997 74.8472 198.543 85.3263C198.585 85.6048 199.074 85.7431 199.19 85.4963C210.61 61.1092 227.005 51.0105 237.271 46.8014C249.844 41.6476 263.771 46.1214 260.465 61.4523C258.607 70.0574 254.566 78.3104 251.491 86.5699C248.187 86.0334 244.715 85.8956 241.281 86.0656C221.64 87.0328 203.37 98.2855 189.273 111.22C186.944 113.357 184.623 115.878 182.41 118.667C177.813 106.387 176.041 93.8444 176.805 80.5857C176.826 80.2288 176.34 80.2196 176.226 80.5074C171.288 92.951 173.281 106.608 177.068 119.208C179.473 127.209 175.459 129.024 169.481 128.48C160.684 127.691 151.25 128.444 144.527 134.269C144.337 134.435 144.484 134.79 144.735 134.774C154.355 134.115 163.034 133.12 172.451 135.05C167.042 147.212 165.312 160.547 171.918 170.423C159.794 177.249 133.492 216.866 124.685 194.464Z" fill="#FBF199"/>
<path d="M190.227 142.079C197.552 130.762 209.611 122.299 221.213 115.954C230.914 110.647 242.278 107.616 253.266 106.769C268.765 105.576 283.134 117.432 278.073 132.855C276.174 129.871 273.941 127.196 271.15 125.128C263.147 119.196 254.129 119.155 244.593 120.487C224.32 123.317 201.385 134.883 193.938 155.074C192.122 159.994 192.066 165.656 190.898 170.726C189.981 174.696 188.175 176.443 185.368 172.151C179.87 163.744 185.431 149.487 190.227 142.079Z" fill="#FF801D"/>
<path d="M425.118 416.454C424.221 414.206 423.24 412.075 422.198 410.129C421.826 409.436 420.633 409.731 420.688 410.539C421.594 424.012 428.665 449.313 414.336 458.01C404.442 464.018 391.584 461.017 379.211 459.611C378.901 459.497 378.551 459.461 378.174 459.497C371.64 458.804 365.268 458.632 359.576 460.577C359.218 460.699 359.234 461.16 359.576 461.287C361.764 462.109 364.045 462.753 366.362 463.322C330.498 474.046 291.997 473.784 254.877 472.842C216.606 471.873 177.297 472.26 140.156 462.005C143.936 460.801 147.474 459.576 150.574 458.508C151.019 458.353 151.11 457.619 150.574 457.513C136.966 454.796 123.368 460.172 109.741 460.7C83.4068 461.718 93.1046 437.976 89.835 421.655C89.6711 420.839 88.5821 420.996 88.343 421.655C87.6799 423.487 87.0915 425.346 86.5791 427.227C69.5342 397.744 76.8122 359.79 89.9793 330.106C103.168 300.375 124.204 274.263 146.31 250.714C165.999 229.744 184.634 206.474 194.533 179.162C198.555 168.063 197.622 156.509 205.184 146.882C209.379 141.539 214.875 137.494 220.95 134.383C218.899 137.38 217.201 140.653 215.814 143.842C210.806 155.349 208.89 171.002 213.561 182.902C213.616 183.042 213.829 183.028 213.832 182.865C214.075 170.88 214.141 159.839 218.238 148.365C223.218 134.413 228.936 130.623 235.963 128.622C243.93 126.347 249.131 127.818 253.038 133.245C257.363 139.252 259.168 147.256 261.236 154.256C261.313 154.522 261.689 154.52 261.767 154.256C264.229 146.084 259.248 134.988 254.366 128.499C253.533 127.388 252.572 126.378 251.502 125.492C265.307 124.725 271.775 133.408 277.898 146.278C284.537 160.227 290.624 173.825 300.647 185.752C322.734 212.044 354.635 230.166 381.473 251.011C425.952 285.562 445.09 345.903 430.921 400.475C429.489 405.98 427.495 411.3 425.118 416.454Z" fill="#FBF199"/>
<path d="M195.389 38.8736C190.354 39.4537 186.137 41.0629 182.39 43.3843C187.149 41.303 192.358 40.3676 197.912 41.1806C208.045 42.6634 209.383 52.8706 206.947 60.8215C206.198 63.2627 205.148 65.5902 204.042 67.8937C207.078 63.3968 210.834 59.3392 214.017 56.3067C215.883 54.5266 217.811 52.8145 219.8 51.1739C214.553 42.3475 205.909 37.6596 195.389 38.8736ZM168.948 123.755C163.215 128.006 154.884 126.509 149.466 131.091C155.489 128.213 162.668 127.867 169.479 128.48C175.458 129.023 179.472 127.209 177.067 119.207C174.985 112.284 173.455 105.039 173.311 97.8503C173.209 99.5865 173.202 101.327 173.243 103.04C173.418 110.162 175.632 118.795 168.948 123.755ZM125.035 181.035C125.021 180.828 125.038 180.612 125.028 180.405C123.624 185.337 123.033 190.265 124.685 194.465C133.492 216.867 159.793 177.25 171.917 170.423C165.31 160.547 167.041 147.212 172.45 135.05C165.595 133.645 159.129 133.795 152.409 134.232C154.703 134.549 156.975 135.36 158.983 136.307C165.138 139.204 163.943 145.568 162.86 150.853C162.26 153.782 161.988 156.544 162.418 159.538C163.46 166.787 162.933 171.659 158.274 177.54C153.257 183.875 144.922 191.59 137.286 194.28C128.654 197.318 125.43 186.866 125.035 181.035ZM189.273 111.22C203.37 98.2855 221.639 87.0328 241.281 86.0656C244.714 85.8956 248.187 86.0334 251.491 86.5699C254.566 78.3104 258.607 70.0574 260.464 61.4523C262.812 50.563 256.457 45.1773 248.077 44.802C251.233 45.1266 254.073 46.3488 256.103 49.0019C260.709 55.021 257.161 65.2329 254.107 71.0333C250.799 77.315 245.246 81.048 238.466 82.5856C226.668 85.2633 215.938 87.7435 205.463 94.1127C200.489 97.1356 196.23 101.147 191.284 104.198C182.169 109.819 178.714 100.896 176.896 93.1988C177.508 101.9 179.295 110.346 182.409 118.666C184.623 115.877 186.944 113.356 189.273 111.22ZM232.174 139.109C236.271 136.636 241.509 136.132 246.124 136.976C252.535 138.151 256.505 142.945 259.507 148.255C257.964 142.963 256.161 137.582 253.036 133.244C249.13 127.817 243.928 126.345 235.962 128.621C228.934 130.621 223.215 134.412 218.236 148.364C215.174 156.943 214.364 165.281 214.049 173.953C216.857 160.558 219.341 146.855 232.174 139.109Z" fill="#F3AF79"/>
<path d="M108.012 122.09C109.049 123.03 110.209 123.856 111.431 124.623C114.905 126.551 118.548 128.084 122.298 130.089C128.006 133.14 132.656 137.465 136.79 142.42C140.758 147.175 142.847 153.21 142.704 159.175C146.07 147.809 138.144 135.556 128.308 129.733C124.626 127.555 120.744 125.77 117.116 123.488C111.291 119.827 109.47 113.709 109.733 107.176C109.852 104.234 110.541 101.45 111.64 98.8247C105.963 106.001 101.015 115.748 108.012 122.09ZM424.327 307.811C426.449 317.477 427.882 327.28 428.461 337.255C428.949 345.669 428.711 354.11 428.128 362.512C427.458 372.179 427.207 382.256 424.245 391.537C422.096 398.274 415.738 402.037 411.67 407.418C407.368 413.108 407.733 418.169 408.35 425.059C410.304 446.878 378.62 437.601 366.526 436.021C358.974 435.034 344.871 430.14 341.173 439.876C339.085 445.372 340.707 451.18 336.088 455.732C330.154 461.583 317.461 462.216 309.754 463.146C291.319 465.373 272.592 466.14 254.035 466.172C234.654 466.204 214.678 465.668 195.542 462.426C186.618 460.915 172.857 458.606 167.504 450.625C163.191 444.191 171.343 431.593 164.389 426.654C158.585 422.533 149.607 426.733 143.735 428.711C136.704 431.078 130.006 434.307 122.948 436.612C114.932 439.232 104.327 440.966 100.397 431.454C96.3112 421.564 100.422 409.908 94.659 400.412C93.1742 397.967 89.5779 397.089 87.3061 395.655C80.9113 391.625 78.915 383.511 77.2254 376.612C77.2044 376.529 77.1895 376.442 77.1685 376.359C75.4052 394.034 77.6534 411.792 86.5776 427.226C87.0904 425.346 87.6788 423.487 88.3414 421.654C88.5805 420.995 89.6695 420.839 89.8334 421.654C93.103 437.975 83.4052 461.717 109.739 460.7C123.366 460.172 136.965 454.796 150.572 457.513C151.109 457.619 151.017 458.353 150.572 458.507C147.472 459.576 143.934 460.801 140.155 462.005C177.295 472.259 216.604 471.872 254.875 472.841C291.995 473.783 330.496 474.046 366.36 463.322C364.044 462.753 361.763 462.109 359.574 461.286C359.232 461.159 359.217 460.699 359.574 460.577C365.267 458.631 371.639 458.804 378.173 459.497C378.549 459.461 378.899 459.497 379.21 459.61C391.582 461.017 404.439 464.017 414.334 458.01C428.664 449.313 421.592 424.012 420.686 410.539C420.632 409.731 421.825 409.436 422.197 410.128C423.239 412.075 424.22 414.206 425.117 416.454C427.494 411.3 429.488 405.979 430.918 400.473C438.955 369.52 436.266 336.716 424.327 307.811ZM145.758 252.649C151.05 247.66 156.251 242.583 161.329 237.206C170.58 227.415 179.128 217.103 186.625 205.899C194.068 194.772 197.616 182.925 201.131 170.162C203.877 160.194 208.464 152.731 214.978 145.878C215.247 145.187 215.523 144.506 215.812 143.841C217.199 140.652 218.897 137.379 220.949 134.381C214.874 137.492 209.378 141.538 205.183 146.88C197.621 156.507 198.554 168.062 194.532 179.161C184.633 206.472 165.998 229.743 146.309 250.713C143.387 253.824 140.502 256.97 137.654 260.149C139.767 258.205 141.9 256.26 143.987 254.307C144.589 253.767 145.169 253.204 145.758 252.649ZM270.016 141.893C273.384 146.973 275.361 152.951 277.591 158.58C281.504 168.456 287.176 177.434 293.854 185.669C304.11 198.319 317.185 208.017 330.635 216.979C343.653 225.653 356.663 234.341 369.53 243.238C374.876 246.935 380.336 250.62 385.704 254.444C384.317 253.27 382.905 252.125 381.471 251.01C354.633 230.164 322.732 212.043 300.646 185.751C290.623 173.824 284.535 160.226 277.897 146.277C271.773 133.407 265.305 124.724 251.5 125.491C252.57 126.377 253.531 127.387 254.364 128.498C255.121 129.504 255.878 130.633 256.612 131.832C262.168 132.183 267.262 137.743 270.016 141.893Z" fill="#F3AF79"/>
<path d="M389.819 323.658C371.49 280.422 324.172 235.364 251.937 236.027C184.337 236.647 129.98 308.938 116.709 352.087C113.607 362.174 112.424 375.979 119.776 384.75C126.439 392.698 137.329 394.236 146.949 396.732C168.721 402.383 165.822 407.651 177.422 424.606C185.348 436.193 199.486 441.233 212.529 445.168C246.976 455.558 275.458 455.315 307.017 442.13C322.412 435.699 333.323 423.38 346.713 414.057C353.147 409.576 360.521 406.997 367.628 403.748C382.374 397.008 390.233 393.471 395.525 367.631C398.491 353.155 395.694 337.513 389.819 323.658ZM253.13 162.616C242.111 137.462 229.912 144.069 224.987 169.133C222.278 182.909 221.405 197.251 225.54 205.666C229.09 212.894 236.75 211.955 241.765 210.619C264.632 204.517 261.006 180.589 253.13 162.616ZM259.589 166.294C260.521 169.335 261.701 171.786 262.993 173.513C267.979 180.179 274.889 170.927 270.68 165.518C269.535 164.047 267.742 162.481 265.019 160.957C258.155 157.111 257.857 160.641 259.589 166.294ZM178.882 54.8976C170.153 69.9248 155.423 75.4298 149.632 78.1127C140.281 82.4437 129.399 88.5068 125.523 98.7141C118.952 116.027 147.213 124.625 156.148 111.45C161.714 103.244 161.583 92.6628 166.39 84.0115C169.256 78.8536 173.346 75.0684 178.822 72.8576C183.364 71.0226 187.9 70.5597 191.898 67.4258C209.503 53.6212 188.694 38.0026 178.882 54.8976ZM250.948 56.2252C247.731 49.9645 240.144 51.5195 234.8 53.9668C227.247 57.4254 220.153 63.7004 215.603 70.9714C213.079 75.0059 214.319 76.9377 221.028 74.8103C223.945 73.8821 226.954 73.2856 230.276 73.0091C234.277 72.6732 238.243 72.2058 242.112 71.0983C248.462 69.2812 254.567 63.2714 250.948 56.2252ZM147.617 167.843C145.462 172.075 143.385 176.8 137.808 174.949C132.111 173.056 128.537 178.532 130.015 183.663C133.123 194.452 145.229 187.201 149.866 180.671C152.237 177.333 154.123 171.57 154.642 167.284C156.114 155.103 151.921 159.379 147.617 167.843Z" fill="#FFF7CF"/>
<path d="M181.887 144.575C190.973 127.853 208.173 114.213 225.794 107.358C235.431 103.607 248.791 99.3976 260.444 100.629C255.125 98.9603 243.126 98.9577 242.231 99.0407C227.767 100.358 212.339 107.687 201.069 116.681C190.905 124.793 182.367 134.849 177.671 147.085C175.723 152.173 174.923 157.628 175.331 163.061C175.366 163.544 175.437 164.023 175.507 164.502C176.153 165.888 176.911 167.23 177.92 168.476C176.318 160.499 178.339 151.105 181.887 144.575Z" fill="#EF6200"/>
<path d="M266.171 118.753C256.192 114.312 244.513 115.184 234.37 118.367C221.43 122.426 207.715 130.094 198.587 140.225C194.438 144.83 191.647 150.433 190.102 156.399C188.743 161.649 189.94 169.427 186.504 173.616C188.669 175.886 190.111 174.129 190.898 170.726C192.066 165.656 192.123 159.993 193.938 155.073C201.385 134.883 224.32 123.317 244.593 120.487C254.129 119.154 263.147 119.195 271.15 125.127C273.83 127.112 275.986 129.668 277.836 132.509C277.057 126.221 272.343 121.501 266.171 118.753Z" fill="#EF6200"/>
<path d="M195.171 98.5733C196.878 96.8745 197.217 94.7855 197.831 92.5404C197.977 92.0064 198.314 89.2733 197.08 89.5032C195.532 89.7915 195.077 91.67 194.658 92.9546C194.043 94.8408 193.686 96.4823 194.433 98.3772C194.552 98.6793 194.917 98.8267 195.171 98.5733ZM284.746 337.004C284.959 322.216 285.411 307.446 286.143 292.725C293.851 295.914 300.717 300.699 305.582 307.252C312.299 316.297 327.661 307.496 320.853 298.326C312.252 286.745 300.376 278.883 287.198 274.538C287.589 268.758 288 262.986 288.499 257.231C289.485 245.866 271.792 245.96 270.815 257.231C270.421 261.772 270.114 266.331 269.788 270.888C263.079 270.223 256.266 270.354 249.559 271.257C249.426 267.951 249.271 264.641 249.094 261.338C248.484 249.997 230.798 249.937 231.41 261.338C231.663 266.053 231.854 270.776 232.02 275.498C230.047 276.204 228.102 276.984 226.187 277.835C210.235 284.962 196.74 303.85 199.285 321.696C201.847 339.679 216.703 348.372 232.662 352.107C232.676 365.955 232.712 379.907 232.196 393.803C219.093 390.577 206.499 384.003 200.368 371.979C195.187 361.818 179.93 370.768 185.099 380.904C193.971 398.303 211.788 407.725 231.14 411.817C230.792 416.19 230.392 420.553 229.864 424.894C228.489 436.197 246.19 436.066 247.548 424.894C247.983 421.316 248.345 417.721 248.654 414.12C255.106 414.499 261.479 414.387 267.521 413.878C267.59 417.092 267.649 420.316 267.724 423.526C267.991 434.91 285.676 434.938 285.408 423.526C285.309 419.312 285.228 415.08 285.142 410.854C309.341 404.018 334.223 385.137 321.933 357.464C315.746 343.529 298.529 338.809 284.746 337.004ZM268.699 288.306C267.835 304.323 267.308 320.404 267.071 336.505C261.547 336.717 255.905 337.034 250.365 336.961C250.417 320.93 250.427 304.865 250.084 288.818C255.985 287.787 262.354 287.605 268.699 288.306ZM223.995 301.285C226.472 298.458 229.36 296.256 232.499 294.512C232.712 307.832 232.712 321.16 232.681 334.472C228.937 333.24 225.395 331.457 222.164 328.873C212.514 321.15 217.243 308.995 223.995 301.285ZM249.754 396.336C250.338 382.333 250.344 368.265 250.338 354.29C255.796 354.386 261.365 354.112 266.918 353.96C266.865 368.126 266.972 382.276 267.196 396.386C261.26 396.791 255.321 396.682 249.754 396.336ZM296.959 387.36C293.29 389.925 289.182 391.815 284.835 393.213C284.646 380.377 284.555 367.51 284.598 354.626C290.003 355.388 295.246 356.839 300.176 359.575C313.079 366.733 306.401 380.761 296.959 387.36ZM154.396 440.779C143.961 442.349 132.598 445.628 122.78 449.503C122.656 449.552 122.672 449.729 122.812 449.738C133.44 450.434 145.251 446.019 154.666 441.419C155.052 441.23 154.757 440.726 154.396 440.779ZM156.807 433.796C154.492 433.908 152.494 435.022 150.388 435.902C148.133 436.843 145.792 437.603 143.575 438.636C143.385 438.723 143.5 438.981 143.673 438.994C147.943 439.333 154.219 437.797 157.067 434.423C157.26 434.195 157.154 433.779 156.807 433.796ZM400.188 448.467C393.848 447.874 387.616 447.977 381.321 446.795C374.949 445.6 368.754 443.671 362.373 442.506C362.202 442.473 362.063 442.724 362.245 442.807C373.214 447.839 388.344 454.076 400.288 449.209C400.686 449.048 400.627 448.509 400.188 448.467ZM407.047 449.273C406.585 449.374 406.188 449.289 405.717 449.414C405.265 449.531 404.819 449.888 404.404 450.102C403.517 450.558 402.559 451.064 401.592 451.327C401.325 451.399 401.167 451.636 401.153 451.903C401.077 451.87 401.001 451.836 400.926 451.802C400.797 451.83 400.79 452.046 400.926 452.068L401.174 452.062C401.226 452.328 401.5 452.488 401.751 452.501C402.873 452.556 403.752 452.49 404.831 452.098C405.414 451.889 405.952 451.536 406.478 451.216C407.062 450.86 407.088 450.309 407.453 449.8C407.65 449.525 407.326 449.211 407.047 449.273ZM115.387 300.993C107.089 309.906 100.816 321.212 95.595 332.144C90.3311 343.163 87.0978 354.871 87.8489 367.139C87.874 367.558 88.5089 367.687 88.6087 367.243C91.2895 355.255 94.4829 343.433 99.3966 332.148C104.062 321.429 110.909 311.821 115.575 301.139C115.626 301.024 115.486 300.888 115.387 300.993ZM88.004 369.971C86.7368 373.485 86.5612 377.065 87.9959 380.533C88.1044 380.796 88.452 380.754 88.4843 380.467C88.875 376.944 89.6266 373.434 88.4669 369.971C88.3891 369.74 88.086 369.747 88.004 369.971ZM394.096 291.076C393.923 290.97 393.746 291.212 393.884 291.352C414.247 312.315 419.048 342.66 416.055 370.809C416.009 371.239 416.628 371.255 416.76 370.905C422.012 356.99 420.47 341.531 416.951 327.39C413.586 313.867 406.318 298.686 394.096 291.076ZM414.406 376.863C413.76 380.471 412.664 383.722 410.679 386.843C410.48 387.155 410.881 387.572 411.195 387.361C412.979 386.156 414.664 384.95 415.496 382.898C416.313 380.883 416.37 378.665 415.281 376.748C415.089 376.409 414.481 376.443 414.406 376.863Z" fill="#68182B"/>
<path d="M322.294 240.45C322.701 240.717 323.207 240.077 322.819 239.771C312.099 231.336 300.979 225.451 287.651 222.25C273.378 218.824 258.466 218.494 243.939 220.221C216.313 223.505 186.203 235.893 168.228 257.921C167.961 258.25 168.37 258.671 168.698 258.39C190.37 239.78 215.411 227.756 243.939 224.163C270.209 220.857 299.86 225.782 322.294 240.45ZM279.815 215.895C285.991 216.804 292.167 218.718 298.069 220.712C298.396 220.825 298.569 220.348 298.296 220.175C288.479 213.951 274.95 210.96 263.526 213.998C263.393 214.032 263.376 214.26 263.526 214.283C268.923 215.093 274.404 215.1 279.815 215.895ZM331.744 245.032C331.227 244.62 330.557 244.367 329.975 244.056C328.893 243.473 327.749 243.089 326.581 242.714C325.972 242.518 325.73 243.343 326.177 243.674C327.124 244.376 327.955 245.166 328.991 245.74C329.586 246.067 330.198 246.354 330.825 246.609C331.522 246.896 332.036 246.702 332.73 246.679C332.984 246.669 333.17 246.331 332.952 246.145C332.496 245.753 332.224 245.414 331.744 245.032Z" fill="#68182B"/>
</svg>
