<svg width="512" height="512" viewBox="0 0 512 512" fill="none" xmlns="http://www.w3.org/2000/svg">
<path d="M385.125 160.047C378.692 152.904 272.231 56.4433 161.491 85.7421C50.7399 115.033 87.182 208.633 80.0349 217.919C72.8917 227.209 62.8873 205.776 61.4586 159.333C60.03 112.89 98.4677 25.009 256.089 25.009C324.392 25.009 415.131 60.733 439.426 120.748C463.72 180.767 385.125 160.047 385.125 160.047Z" fill="#FD6B6A"/>
<path d="M144.302 285.335C144.302 285.335 182.214 240.887 209.453 257.291L218.199 262.65C245.487 279.378 254.052 315.061 237.323 342.352C220.595 369.644 184.913 378.205 157.621 361.477L146.914 354.912C119.83 338.116 127.63 312.536 144.306 285.331L144.302 285.335Z" fill="black"/>
<path d="M127.661 275.13C135.694 262.026 148.603 252.65 163.55 249.063C178.496 245.477 194.254 247.974 207.359 256.006C220.464 264.039 229.842 276.949 233.428 291.896C237.015 306.843 234.517 322.603 226.484 335.708C218.45 348.812 205.541 358.189 190.595 361.775C175.649 365.361 159.89 362.864 146.785 354.833C133.68 346.799 124.303 333.889 120.716 318.942C117.13 303.995 119.628 288.235 127.661 275.13Z" fill="#599EFC"/>
<path d="M157.632 338.955C158.114 339.251 158.65 339.449 159.209 339.537C159.767 339.626 160.338 339.604 160.888 339.472C161.438 339.34 161.957 339.101 162.414 338.768C162.872 338.436 163.259 338.016 163.555 337.534L165.717 334.004C167.417 334.246 169.254 334.238 171.178 333.936C175.94 333.18 179.629 331.188 181.95 328.387C184.274 325.587 185.087 322.272 185.215 319.411C185.338 315.885 184.694 312.375 183.325 309.123C183.268 308.973 183.203 308.827 183.129 308.685C183.129 308.685 179.557 301.651 178.151 295.048C177.452 291.749 177.456 288.676 178.019 287.164C178.586 285.652 178.835 285.063 182.044 284.915C189.361 284.575 191.228 287.168 192.578 290.093C193.927 293.015 193.795 296.269 193.795 296.269C193.756 296.834 193.828 297.4 194.009 297.937C194.189 298.474 194.473 298.969 194.845 299.396C195.218 299.822 195.67 300.171 196.177 300.423C196.684 300.674 197.236 300.823 197.801 300.861C198.938 300.937 200.059 300.558 200.918 299.809C201.777 299.059 202.303 297.999 202.382 296.862C202.382 296.862 202.82 291.737 200.394 286.48C199.652 284.907 198.665 283.463 197.468 282.202L199.555 278.8C200.151 277.827 200.336 276.656 200.07 275.546C199.803 274.436 199.107 273.478 198.134 272.881C197.16 272.285 195.99 272.1 194.88 272.366C193.77 272.633 192.811 273.329 192.215 274.302L190.246 277.515C187.485 276.556 184.562 276.147 181.644 276.313C176.012 276.578 171.518 279.945 169.95 284.148C168.381 288.347 168.861 292.739 169.734 296.847C171.405 304.697 175.037 311.769 175.366 312.404C175.392 312.46 176.749 315.9 176.613 319.029C176.537 320.609 176.16 321.894 175.328 322.899C174.493 323.901 173.068 324.918 169.821 325.432C166.956 325.889 165.596 325.371 164.541 324.619C163.483 323.871 162.621 322.578 162.017 320.923C160.8 317.612 160.92 313.587 160.92 313.587C160.952 313.022 160.871 312.457 160.684 311.923C160.496 311.39 160.206 310.898 159.829 310.477C159.451 310.056 158.995 309.713 158.485 309.469C157.975 309.224 157.422 309.082 156.858 309.051C156.293 309.02 155.727 309.101 155.193 309.288C154.66 309.476 154.168 309.767 153.747 310.144C153.326 310.522 152.983 310.979 152.738 311.489C152.494 312 152.353 312.553 152.322 313.118C152.322 313.118 151.933 318.44 153.932 323.89C154.726 326.055 155.962 328.353 157.916 330.258L156.215 333.036C155.618 334.009 155.433 335.179 155.698 336.289C155.964 337.399 156.66 338.358 157.632 338.955Z" fill="white"/>
<path d="M224.534 134.831C224.534 134.831 257.748 182.075 232.055 200.776L223.71 206.755C197.669 225.403 158.298 221.661 135.772 198.395C113.246 175.132 116.099 141.154 142.14 122.506L152.356 115.188C178.397 96.7444 202.079 111.639 224.534 134.831Z" fill="black"/>
<path d="M240.415 123.458C245.771 128.99 249.855 135.341 252.434 142.149C255.013 148.957 256.036 156.088 255.445 163.135C254.854 170.182 252.661 177.008 248.99 183.222C245.319 189.436 240.242 194.916 234.05 199.351C221.545 208.305 205.255 212.455 188.764 210.887C172.274 209.32 156.933 202.162 146.116 190.99C140.76 185.458 136.676 179.107 134.097 172.299C131.518 165.492 130.495 158.36 131.086 151.313C131.677 144.266 133.87 137.44 137.541 131.227C141.212 125.013 146.289 119.532 152.481 115.098C164.986 106.143 181.276 101.993 197.767 103.561C214.258 105.129 229.599 112.286 240.415 123.458Z" fill="#FDE580"/>
<path d="M165.225 129.615C164.765 129.944 164.387 130.351 164.114 130.813C163.84 131.274 163.677 131.781 163.633 132.305C163.588 132.829 163.664 133.359 163.856 133.865C164.047 134.371 164.351 134.843 164.749 135.254L167.659 138.262C166.822 139.756 166.246 141.382 165.959 143.07C165.18 147.484 166.015 151.347 168.132 154.261C170.248 157.179 173.382 158.94 176.269 159.953C179.859 161.174 183.646 161.711 187.434 161.537C187.605 161.534 187.775 161.522 187.944 161.503C187.944 161.503 196.323 160.592 203.546 161.438C207.155 161.865 210.307 162.837 211.672 163.808C213.032 164.779 213.562 165.184 212.666 168.041C210.629 174.568 207.363 175.385 203.928 175.646C200.488 175.91 197.2 174.765 197.2 174.765C196.634 174.553 196.029 174.438 195.42 174.427C194.811 174.416 194.211 174.509 193.652 174.701C193.094 174.892 192.588 175.179 192.165 175.544C191.742 175.909 191.41 176.346 191.187 176.829C190.737 177.802 190.758 178.904 191.246 179.894C191.735 180.884 192.65 181.681 193.791 182.109C193.791 182.109 198.905 184.108 205.08 183.636C206.8 183.503 208.622 183.106 210.421 182.422L213.225 185.321C213.623 185.732 214.108 186.074 214.652 186.328C215.196 186.581 215.788 186.742 216.395 186.799C217.002 186.857 217.611 186.811 218.189 186.663C218.766 186.516 219.3 186.271 219.76 185.941C220.22 185.611 220.597 185.204 220.87 184.742C221.142 184.28 221.305 183.773 221.349 183.249C221.392 182.726 221.316 182.196 221.123 181.69C220.931 181.184 220.627 180.713 220.229 180.302L217.583 177.566C219.434 175.501 220.811 173.057 221.616 170.403C222.35 168.11 222.337 165.642 221.578 163.356C220.819 161.07 219.354 159.085 217.394 157.685C213.599 154.987 208.939 154.023 204.445 153.494C195.855 152.485 187.422 153.441 186.663 153.532C186.598 153.532 182.63 153.637 179.467 152.53C177.872 151.971 176.677 151.23 175.918 150.187C175.162 149.136 174.58 147.568 175.113 144.563C175.577 141.906 176.553 140.878 177.667 140.186C178.779 139.498 180.389 139.151 182.278 139.139C186.069 139.117 190.159 140.489 190.159 140.489C191.307 140.902 192.58 140.911 193.7 140.512C194.82 140.113 195.694 139.339 196.13 138.361C196.565 137.381 196.526 136.277 196.022 135.292C195.517 134.307 194.588 133.521 193.439 133.107C193.439 133.107 188.11 131.081 181.874 131.119C179.391 131.134 176.632 131.493 174.047 132.604L171.753 130.235C170.949 129.407 169.81 128.876 168.586 128.76C167.363 128.644 166.154 128.951 165.225 129.615Z" fill="white"/>
<path d="M126.962 352.153C133.39 359.296 239.848 455.753 350.596 426.458C461.343 397.167 424.901 303.567 432.048 294.277C439.191 284.991 449.196 306.424 450.624 352.867C452.057 399.31 413.615 487.191 255.998 487.191C187.691 487.191 96.9522 451.467 72.6574 391.449C48.3665 331.43 126.962 352.153 126.962 352.153Z" fill="#80D092"/>
<path d="M122.343 351.96C76.195 351.68 78.8785 403.312 78.8785 403.312L79.0486 404.257C83.4139 411.59 88.7808 418.499 94.9755 424.954C108.294 418.748 133.534 407.357 171.046 406.884C182.742 406.746 194.438 406.524 206.131 406.219C161.374 384.343 130.34 355.91 126.962 352.153C125.423 352.036 123.882 351.973 122.339 351.964L122.343 351.96ZM397.326 405.149C385.798 413.767 370.612 421.167 350.599 426.462C323.289 433.685 296.25 433.254 270.897 428.408C286.733 439.838 328.402 465.799 366.345 453.818C387.998 446.981 395.542 426.058 397.326 405.149Z" fill="black"/>
<path d="M33.1463 310.858C20.5907 323.217 26.0975 343.271 26.0975 343.271L53.5594 451.841C53.5594 451.841 59.0964 468.12 72.3436 464.068C85.5909 460.016 88.3423 445.322 88.3423 445.322L99.817 378.583L166.726 368.159C166.726 368.159 181.466 365.634 185.725 352.455C189.981 339.272 173.793 333.482 173.793 333.482L65.6652 304.315C65.6652 304.315 45.7018 298.499 33.1463 310.858Z" fill="#80D092"/>
<path d="M271.966 367.01C271.966 367.01 238.763 414.239 264.453 432.94L272.794 438.912C298.827 457.556 338.187 453.814 360.706 430.555C383.224 407.296 380.371 373.329 354.337 354.685C354.254 354.625 344.208 347.428 344.121 347.372C318.088 328.928 294.413 343.826 271.966 367.01Z" fill="black"/>
<path d="M256.089 355.641C250.734 361.172 246.65 367.521 244.072 374.327C241.493 381.133 240.471 388.262 241.062 395.307C241.653 402.353 243.846 409.176 247.516 415.388C251.187 421.6 256.262 427.079 262.453 431.511C268.644 435.944 275.828 439.244 283.596 441.223C291.365 443.202 299.565 443.821 307.728 443.044C315.892 442.268 323.859 440.112 331.174 436.698C338.49 433.285 345.011 428.682 350.365 423.151C355.72 417.621 359.803 411.271 362.381 404.465C364.959 397.659 365.982 390.53 365.39 383.484C364.799 376.439 362.605 369.616 358.935 363.404C355.264 357.192 350.188 351.713 343.997 347.281C337.806 342.848 330.622 339.548 322.854 337.569C315.085 335.591 306.885 334.972 298.722 335.748C290.559 336.524 282.592 338.681 275.276 342.094C267.96 345.507 261.439 350.111 256.085 355.641H256.089Z" fill="#FDE580"/>
<path d="M286.574 354.349C285.481 354.677 284.626 355.407 284.2 356.378C283.773 357.349 283.809 358.481 284.299 359.527L286.075 363.314C284.798 364.454 283.725 365.805 282.904 367.309C280.739 371.232 280.278 375.155 281.332 378.598C282.39 382.041 284.779 384.721 287.187 386.618C290.185 388.936 293.591 390.672 297.229 391.736C297.391 391.789 297.555 391.835 297.72 391.872C297.72 391.872 305.941 393.724 312.498 396.868C315.771 398.441 318.439 400.383 319.415 401.744C320.39 403.105 320.752 403.656 318.98 406.071C314.94 411.582 311.587 411.295 308.25 410.429C304.916 409.56 302.172 407.413 302.172 407.413C301.706 407.029 301.172 406.724 300.6 406.516C300.029 406.308 299.431 406.201 298.841 406.201C298.25 406.201 297.68 406.308 297.161 406.516C296.643 406.724 296.187 407.029 295.819 407.413C295.077 408.188 294.739 409.238 294.88 410.333C295.02 411.428 295.627 412.478 296.567 413.253C296.567 413.253 300.755 416.801 306.753 418.355C308.53 418.809 310.363 419.006 312.196 418.941L313.908 422.592C314.15 423.11 314.498 423.591 314.93 424.008C315.362 424.424 315.87 424.768 316.425 425.02C316.98 425.271 317.572 425.425 318.166 425.473C318.76 425.52 319.345 425.461 319.887 425.298C320.98 424.969 321.833 424.239 322.259 423.268C322.685 422.297 322.649 421.165 322.158 420.12L320.541 416.669C322.962 415.318 325.057 413.452 326.679 411.204C328.116 409.273 328.903 406.935 328.927 404.528C328.951 402.121 328.21 399.768 326.811 397.809C324.097 394.03 320.004 391.603 315.922 389.646C308.125 385.904 299.84 384.075 299.096 383.916C299.032 383.893 295.245 382.71 292.614 380.635C291.284 379.588 290.399 378.504 290.017 377.268C289.639 376.032 289.602 374.361 291.076 371.689C292.38 369.327 293.638 368.669 294.912 368.382C296.189 368.091 297.822 368.28 299.617 368.885C303.208 370.094 306.628 372.717 306.628 372.717C307.099 373.096 307.637 373.394 308.21 373.594C308.784 373.795 309.382 373.895 309.97 373.887C310.559 373.88 311.126 373.766 311.641 373.552C312.155 373.337 312.605 373.027 312.967 372.638C313.328 372.249 313.593 371.789 313.746 371.285C313.9 370.78 313.939 370.242 313.861 369.699C313.783 369.156 313.59 368.62 313.292 368.122C312.995 367.624 312.599 367.173 312.128 366.795C312.128 366.795 307.743 363.155 301.832 361.167C299.481 360.373 296.756 359.821 293.948 360.033L292.55 357.051C292.059 356.007 291.154 355.135 290.035 354.628C288.915 354.122 287.668 354.021 286.574 354.349Z" fill="white"/>
<path d="M232.452 82.2158C313.628 94.3632 379.414 154.189 384.426 159.753C384.426 159.753 462.874 180.438 438.624 120.529C434.731 110.914 429.126 101.926 422.183 93.6073C408.052 117.758 355.724 120.654 307.135 97.3301C285.542 86.9667 257.487 83.1758 232.452 82.2158ZM109.795 110.645C91.6229 123.934 74.3468 146.105 61.8403 169.443C64.3235 208.542 73.3149 226.068 79.8875 217.523C85.5455 210.168 63.8435 149.862 109.795 110.645Z" fill="black"/>
<path d="M478.941 201.342C491.492 188.983 485.989 168.929 485.989 168.929L458.527 60.3589C458.527 60.3589 452.99 44.0805 439.743 48.1284C426.5 52.18 423.741 66.8786 423.741 66.8786L412.266 133.617L345.361 144.037C345.361 144.037 330.617 146.566 326.361 159.745C322.102 172.924 338.293 178.718 338.293 178.718L446.418 207.881C446.418 207.881 466.385 213.702 478.941 201.342Z" fill="#FD6B6A"/>
<path d="M352.017 163.143C352.017 163.143 350.274 172.558 349.25 181.511L401.041 195.484C380.843 166.703 352.017 163.143 352.017 163.143Z" fill="black"/>
<path d="M372.585 222.213C372.585 222.213 356.25 278.339 324.657 274.559L314.475 273.263C282.704 269.208 260.231 240.166 264.286 208.395C268.342 176.624 297.384 154.155 329.154 158.207L341.619 159.798C373.231 163.997 376.625 190.541 372.585 222.213Z" fill="black"/>
<path d="M391.959 224.685C390.012 239.942 382.085 253.8 369.921 263.212C357.756 272.625 342.351 276.819 327.094 274.873C319.539 273.91 312.248 271.468 305.637 267.686C299.025 263.905 293.224 258.859 288.563 252.835C283.902 246.811 280.473 239.929 278.473 232.58C276.472 225.231 275.938 217.56 276.902 210.005C277.866 202.45 280.309 195.159 284.09 188.548C287.872 181.938 292.918 176.136 298.942 171.476C304.965 166.815 311.848 163.387 319.196 161.387C326.545 159.386 334.216 158.853 341.77 159.817C349.325 160.78 356.617 163.222 363.228 167.003C369.839 170.785 375.641 175.831 380.302 181.855C384.963 187.879 388.391 194.761 390.392 202.11C392.393 209.459 392.923 217.13 391.959 224.685Z" fill="#599EFC"/>
<path d="M338.395 178.764C337.262 178.619 336.118 178.93 335.214 179.629C334.311 180.328 333.722 181.357 333.576 182.49L333.051 186.599C331.399 187.079 329.729 187.838 328.1 188.904C324.06 191.554 321.512 194.883 320.545 198.391C319.581 201.906 320.197 205.262 321.255 207.926C322.592 211.194 324.623 214.132 327.208 216.536C327.32 216.648 327.439 216.754 327.563 216.854C327.563 216.854 333.713 221.805 337.707 227.251C339.703 229.972 340.958 232.781 341.067 234.391C341.173 236.001 341.188 236.643 338.32 238.095C331.781 241.413 329.015 239.814 326.581 237.701C324.147 235.585 322.933 232.561 322.933 232.561C322.737 232.03 322.438 231.543 322.053 231.128C321.668 230.713 321.205 230.377 320.69 230.141C320.176 229.905 319.619 229.772 319.054 229.751C318.488 229.73 317.923 229.821 317.393 230.018C316.323 230.415 315.454 231.221 314.978 232.259C314.502 233.296 314.457 234.48 314.853 235.551C314.853 235.551 316.557 240.408 320.934 244.206C322.147 245.264 323.648 246.194 325.356 246.908L324.853 250.866C324.709 251.999 325.02 253.143 325.719 254.046C326.418 254.95 327.447 255.539 328.58 255.684C329.713 255.829 330.857 255.518 331.761 254.819C332.665 254.12 333.254 253.091 333.399 251.958L333.875 248.216C336.789 247.959 339.625 247.132 342.22 245.782C347.247 243.227 349.964 238.306 349.666 233.831C349.375 229.352 347.134 225.543 344.647 222.153C339.9 215.678 333.682 210.716 333.119 210.273C333.074 210.232 330.421 207.65 329.264 204.736C328.678 203.27 328.501 201.94 328.848 200.681C329.196 199.422 330.077 197.911 332.824 196.108C335.255 194.513 336.71 194.43 337.98 194.679C339.25 194.929 340.569 195.756 341.804 197.015C344.272 199.536 345.818 203.259 345.818 203.259C346.23 204.324 347.047 205.182 348.091 205.645C349.135 206.108 350.32 206.137 351.386 205.727C352.452 205.315 353.31 204.497 353.773 203.452C354.236 202.408 354.265 201.222 353.854 200.156C353.854 200.156 352.024 195.137 347.961 190.99C346.344 189.339 344.273 187.748 341.71 186.814L342.126 183.579C342.269 182.446 341.957 181.302 341.257 180.399C340.558 179.496 339.528 178.908 338.395 178.764Z" fill="white"/>
</svg>
