<svg width="512" height="512" viewBox="0 0 512 512" fill="none" xmlns="http://www.w3.org/2000/svg">
<g clip-path="url(#clip0_8_82)">
<path d="M256 512C114.842 512 0 397.159 0 256C0 114.841 114.842 0 256 0C282.876 0 309.315 4.142 334.589 12.313C371.518 24.183 405.871 44.809 433.909 71.951C484.262 120.595 512 185.96 512 256C512 397.159 397.158 512 256 512Z" fill="white"/>
<path d="M500.09 256C500.09 389.848 391.591 498.347 257.743 498.347C123.895 498.347 15.396 389.848 15.396 256C15.396 122.152 123.895 13.6531 257.743 13.6531C283.707 13.6531 308.693 17.7261 332.131 25.3041C367.812 36.7731 399.851 56.2971 426.157 81.7611C471.736 125.793 500.09 187.574 500.09 256Z" fill="#7886F3"/>
<path d="M59.8419 333.66C59.6552 333.66 59.4715 333.613 59.3069 333.525C59.1424 333.437 59.002 333.309 58.8981 333.154C58.7942 332.999 58.73 332.821 58.7112 332.635C58.6923 332.449 58.7194 332.262 58.7899 332.089L107.594 213.566C107.67 213.382 107.793 213.221 107.951 213.099C108.109 212.977 108.296 212.899 108.494 212.872C108.692 212.846 108.893 212.872 109.077 212.947C109.261 213.023 109.423 213.146 109.545 213.303L182.563 307.617L233.051 140.851C233.11 140.659 233.218 140.486 233.365 140.35C233.512 140.213 233.692 140.117 233.888 140.073C234.083 140.028 234.287 140.036 234.479 140.095C234.67 140.155 234.843 140.264 234.979 140.411L330.112 243.984L426.122 116.482C426.307 116.251 426.575 116.101 426.868 116.064C427.162 116.027 427.459 116.106 427.695 116.285C427.931 116.463 428.089 116.726 428.135 117.018C428.18 117.311 428.11 117.609 427.939 117.851L331.107 246.445C330.904 246.715 330.592 246.88 330.254 246.897C329.902 246.895 329.59 246.778 329.361 246.53L234.651 143.42L184.101 310.386C184.04 310.586 183.926 310.765 183.77 310.905C183.614 311.044 183.423 311.137 183.218 311.175C183.013 311.216 182.8 311.198 182.604 311.123C182.409 311.049 182.238 310.92 182.112 310.753L108.948 216.25L60.8939 332.956C60.808 333.164 60.6621 333.343 60.4749 333.468C60.2876 333.593 60.0673 333.66 59.8419 333.66Z" fill="#8CDBF9"/>
<path d="M66.621 334.265C66.621 336.114 65.8865 337.887 64.579 339.195C63.2714 340.502 61.4981 341.237 59.649 341.237C57.7999 341.237 56.0266 340.502 54.7191 339.195C53.4116 337.887 52.677 336.114 52.677 334.265C52.677 332.416 53.4116 330.643 54.7191 329.335C56.0266 328.028 57.7999 327.293 59.649 327.293C61.4981 327.293 63.2714 328.028 64.579 329.335C65.8865 330.643 66.621 332.416 66.621 334.265ZM115.811 213.805C115.811 215.654 115.076 217.427 113.769 218.735C112.461 220.042 110.688 220.777 108.839 220.777C106.99 220.777 105.217 220.042 103.909 218.735C102.602 217.427 101.867 215.654 101.867 213.805C101.867 211.956 102.602 210.183 103.909 208.875C105.217 207.568 106.99 206.833 108.839 206.833C110.688 206.833 112.461 207.568 113.769 208.875C115.076 210.183 115.811 211.956 115.811 213.805Z" fill="#8CDBF9"/>
<path d="M330.004 252.538C333.854 252.538 336.976 249.417 336.976 245.566C336.976 241.715 333.854 238.594 330.004 238.594C326.153 238.594 323.032 241.715 323.032 245.566C323.032 249.417 326.153 252.538 330.004 252.538Z" fill="#8CDBF9"/>
<path d="M427.223 124.333C431.073 124.333 434.195 121.211 434.195 117.361C434.195 113.51 431.073 110.389 427.223 110.389C423.372 110.389 420.251 113.51 420.251 117.361C420.251 121.211 423.372 124.333 427.223 124.333Z" fill="#8CDBF9"/>
<path d="M427.431 361.309C426.903 361.309 426.375 361.292 425.848 361.257C420.596 360.91 415.506 358.822 411.463 355.469C410.656 356.069 409.79 356.584 408.879 357.008C404.951 358.828 400.512 358.843 397.001 357.052C393.105 355.063 390.668 350.826 391.076 346.748C391.091 346.599 391.135 346.455 391.205 346.323C391.276 346.192 391.372 346.075 391.487 345.981C391.603 345.886 391.736 345.815 391.879 345.772C392.022 345.729 392.172 345.714 392.321 345.729C392.47 345.744 392.614 345.788 392.746 345.858C392.877 345.929 392.994 346.025 393.088 346.14C393.183 346.256 393.254 346.389 393.297 346.532C393.34 346.675 393.355 346.825 393.34 346.974C393.029 350.091 395.004 353.476 398.036 355.025C400.883 356.479 404.673 356.448 407.922 354.944C408.557 354.648 409.164 354.298 409.739 353.898C408.958 353.117 408.231 352.283 407.563 351.403C404.476 347.326 402.014 340.573 405.241 334.957C405.899 333.813 406.653 332.996 407.546 332.455C409.517 331.263 412.311 331.532 414.34 333.113C415.913 334.341 417.061 336.282 417.66 338.728C418.99 344.141 417.103 350.059 413.209 353.959C416.836 356.869 421.347 358.678 425.997 358.985C432.481 359.428 439.08 356.912 443.652 352.294C443.864 352.08 444.153 351.958 444.454 351.957C444.756 351.955 445.046 352.074 445.26 352.286C445.474 352.498 445.595 352.787 445.597 353.088C445.598 353.39 445.48 353.68 445.268 353.894C440.612 358.601 434.042 361.309 427.431 361.309ZM410.324 333.99C409.742 333.99 409.186 334.125 408.725 334.404C408.177 334.736 407.669 335.303 407.215 336.093C404.714 340.445 406.499 346.229 409.379 350.031C410.024 350.882 410.731 351.686 411.493 352.435C414.877 349.077 416.584 343.883 415.452 339.273C415.119 337.916 414.413 336.059 412.941 334.909C412.193 334.324 411.273 334.001 410.324 333.99Z" fill="#0A213B"/>
<path d="M175.266 436.326L184.175 481.256L195.02 473.122L204.703 482.805L212.837 444.847L175.266 436.326ZM315.479 432.452L324.388 477.383L335.233 469.249L344.916 478.932L351.888 424.706L315.479 432.452Z" fill="#FFAAC9"/>
<path d="M395.335 354.605C396.819 289.27 339.456 234.976 267.211 233.335C194.967 231.694 135.198 283.328 133.714 348.663C132.23 413.997 189.593 468.291 261.838 469.932C334.082 471.573 393.851 419.939 395.335 354.605Z" fill="#FFAAC9"/>
<path d="M165.97 273.648C165.97 273.648 166.745 222.133 173.329 220.972C179.914 219.81 205.864 231.042 214.773 243.437L165.97 273.648ZM146.992 397.585C146.992 397.585 112.131 390.69 101.299 387.55C99.5689 387.049 98.4539 386.64 98.1809 386.367C96.2469 384.433 102.846 317.031 104.393 313.163C104.598 312.617 105.531 312.23 106.942 311.957C115.748 310.182 143.897 312.776 143.897 312.776L146.992 397.585Z" fill="#FFAAC9"/>
<path d="M188.823 332.909C188.823 335.477 187.803 337.94 185.987 339.756C184.171 341.572 181.708 342.592 179.14 342.592C176.572 342.592 174.109 341.572 172.293 339.756C170.477 337.94 169.457 335.477 169.457 332.909C169.457 330.341 170.477 327.878 172.293 326.062C174.109 324.246 176.572 323.226 179.14 323.226C184.487 323.226 188.823 327.561 188.823 332.909ZM185.788 260.465C185.514 260.465 185.25 260.366 185.043 260.186C184.837 260.007 184.702 259.759 184.663 259.488C183.2 249.285 181.541 237.721 174.822 229.043C173.954 227.924 171.683 225.389 169.429 225.988C169.143 226.05 168.844 225.999 168.595 225.847C168.345 225.694 168.164 225.451 168.088 225.169C168.013 224.886 168.049 224.586 168.189 224.329C168.329 224.072 168.562 223.879 168.841 223.79C171.406 223.106 174.165 224.476 176.621 227.65C183.709 236.803 185.488 249.201 186.917 259.165C186.94 259.327 186.928 259.491 186.882 259.648C186.836 259.805 186.756 259.949 186.649 260.073C186.542 260.196 186.41 260.295 186.261 260.363C186.113 260.43 185.951 260.465 185.788 260.465Z" fill="#0A213B"/>
<path opacity="0.48" d="M106.851 373.897C105.463 378.721 103.756 383.636 101.299 387.55C99.5689 387.049 98.4539 386.64 98.1809 386.367C96.2469 384.433 102.846 317.031 104.393 313.163C104.598 312.617 105.531 312.23 106.942 311.957C110.151 316.713 111.152 324.313 111.744 330.571C113.109 345.27 110.742 360.175 106.851 373.897Z" fill="#7886F3"/>
<path d="M106.75 350.568C106.187 357.175 104.78 362.451 103.608 362.351C102.436 362.251 101.942 356.814 102.505 350.206C103.068 343.598 104.475 338.323 105.647 338.423C106.819 338.523 107.313 343.961 106.75 350.568ZM291.755 249.996H240.628C239.479 249.995 238.378 249.538 237.565 248.726C236.752 247.914 236.295 246.812 236.294 245.663C236.295 244.514 236.752 243.412 237.565 242.6C238.377 241.787 239.479 241.33 240.628 241.329H291.755C292.904 241.33 294.006 241.787 294.818 242.6C295.631 243.412 296.088 244.514 296.089 245.663C296.088 246.812 295.631 247.914 294.818 248.726C294.006 249.538 292.904 249.995 291.755 249.996ZM240.628 243.606C240.082 243.607 239.559 243.824 239.173 244.209C238.788 244.595 238.571 245.118 238.57 245.664C238.571 246.21 238.788 246.732 239.174 247.118C239.56 247.504 240.083 247.721 240.628 247.721H291.755C292.301 247.721 292.824 247.504 293.209 247.118C293.595 246.732 293.812 246.21 293.813 245.664C293.813 245.118 293.596 244.595 293.21 244.209C292.824 243.824 292.301 243.607 291.755 243.606H240.628Z" fill="#0A213B"/>
<path d="M334.005 274.666C334.427 278.593 336.779 282.023 339.231 285.118C341.486 287.964 343.89 290.69 346.431 293.285C349.902 296.828 353.898 300.258 358.777 301.148C360.707 301.5 362.808 301.404 364.481 300.379C366.947 298.87 367.924 295.645 367.56 292.777C367.196 289.909 365.741 287.309 364.264 284.824C361.561 280.277 358.649 275.785 354.822 272.134C349.061 266.638 332.4 259.733 334.005 274.666ZM369.109 311.324C368.668 312.82 368.961 314.448 369.543 315.895C370.413 318.055 372.271 320.118 374.599 320.078C375.917 320.055 377.137 319.354 378.128 318.486C379.25 317.503 380.177 316.252 380.576 314.814C380.974 313.376 380.793 311.743 379.91 310.541C379.173 309.538 378.035 308.916 376.901 308.402C373.934 307.056 370.157 307.767 369.109 311.324Z" fill="#F6E1C4"/>
<path d="M426.157 81.761C409.978 96.165 395.073 109.5 385.766 117.965C362.669 138.923 330.265 173.466 314.496 185.731C312.971 186.892 311.629 187.87 310.445 188.598C309.444 189.212 308.556 189.667 307.828 189.941C307.515 190.045 307.196 190.129 306.872 190.191C306.303 190.282 305.848 190.168 305.552 189.872C304.642 188.962 304.755 186.936 305.598 184.229C305.734 183.706 305.917 183.182 306.121 182.613C306.594 181.326 307.118 180.059 307.691 178.813C308.351 177.311 309.147 175.718 309.989 174.08C316.383 161.678 326.555 146.728 326.555 146.728L322.14 142.859C322.14 142.859 322.004 142.995 321.753 143.291C320.001 145.362 311.877 154.714 302.456 164.226C301.682 165.022 300.886 165.796 300.089 166.57L298.109 168.55C297.859 168.755 297.631 169.005 297.381 169.233C285.639 180.52 273.26 190.236 269.028 186.004C267.526 184.502 266.775 182.75 266.571 180.861C266.389 179.382 266.548 177.812 266.958 176.242C268.005 172.078 270.667 167.8 273.034 164.614C273.74 163.658 274.476 162.724 275.241 161.815C275.687 161.27 276.15 160.739 276.629 160.222C274.672 162.111 268.21 167.185 253.532 169.415C250.71 169.847 248.412 169.87 246.5 169.62C246.295 169.597 246.113 169.552 245.908 169.529C236.146 167.845 238.057 158.356 238.057 158.356C238.057 158.356 225.883 156.126 222.56 150.596C219.238 145.066 226.975 100.261 230.297 87.54C233.483 75.32 308.076 37.592 332.128 25.304C367.811 36.773 399.851 56.297 426.157 81.761Z" fill="#FF9D8A"/>
<path d="M249.885 171.081C245.47 171.081 242.217 170.084 240.017 168.073C237.662 165.922 236.591 162.627 236.831 158.279C237.394 148.169 271.481 84.15 272.931 81.43C273.083 81.1446 273.342 80.9313 273.651 80.8369C273.961 80.7426 274.295 80.775 274.58 80.927C274.865 81.0789 275.079 81.338 275.173 81.6473C275.267 81.9565 275.235 82.2906 275.083 82.576C262.881 105.456 239.692 150.75 239.267 158.415C239.065 162.046 239.848 164.617 241.662 166.274C244.119 168.519 248.707 169.167 255.3 168.205C266.943 166.501 276.738 160.968 284.413 151.758C292.566 141.976 313.978 108.245 314.194 107.906C314.31 107.732 314.467 107.589 314.651 107.49C314.835 107.391 315.041 107.34 315.25 107.34C315.503 107.34 339.805 107.749 351.469 97.145C363.142 86.535 365.229 81.093 365.249 81.039C365.362 80.738 365.587 80.4931 365.878 80.3565C366.169 80.2199 366.502 80.2025 366.805 80.308C367.436 80.533 367.768 81.221 367.546 81.853C367.463 82.091 365.367 87.805 353.108 98.948C341.722 109.3 320.12 109.837 315.888 109.784C312.93 114.435 294.047 144.005 286.285 153.319C278.215 163.005 267.908 168.825 255.652 170.617C253.545 170.926 251.624 171.081 249.885 171.081Z" fill="#0A213B"/>
<path d="M261.828 106.756C261.684 106.756 261.537 106.731 261.394 106.676C256.813 104.932 252.114 103.276 247.423 101.758C247.124 101.651 246.879 101.432 246.74 101.147C246.6 100.863 246.576 100.535 246.674 100.234C246.772 99.9319 246.983 99.6802 247.263 99.5318C247.544 99.3833 247.87 99.3497 248.175 99.4381C252.904 100.97 257.644 102.638 262.261 104.398C262.526 104.5 262.747 104.692 262.886 104.94C263.025 105.188 263.072 105.477 263.021 105.756C262.97 106.036 262.823 106.289 262.605 106.471C262.387 106.654 262.112 106.755 261.828 106.756ZM263 103.106C262.784 103.106 262.571 103.049 262.385 102.94C262.198 102.831 262.043 102.674 261.937 102.486L254.829 89.8711C254.67 89.5895 254.63 89.2565 254.717 88.9452C254.803 88.6339 255.01 88.3698 255.292 88.2111C255.573 88.0523 255.906 88.0119 256.218 88.0988C256.529 88.1856 256.793 88.3925 256.952 88.6741L264.06 101.289C264.165 101.474 264.219 101.684 264.217 101.897C264.216 102.109 264.159 102.318 264.051 102.502C263.944 102.686 263.791 102.838 263.606 102.944C263.422 103.05 263.213 103.106 263 103.106ZM323.554 145.967C323.284 145.967 323.012 145.877 322.785 145.694L316.558 140.62C311.971 136.886 307.227 133.022 301.587 131.174C301.291 131.064 301.05 130.844 300.913 130.56C300.776 130.276 300.754 129.95 300.852 129.651C300.95 129.351 301.161 129.101 301.439 128.953C301.718 128.805 302.043 128.771 302.346 128.857C308.416 130.847 313.559 135.035 318.098 138.731L324.325 143.804C324.846 144.229 324.925 144.997 324.5 145.52C324.385 145.66 324.241 145.772 324.077 145.85C323.913 145.927 323.735 145.967 323.554 145.967ZM248.065 159.549C244.497 159.549 240.924 158.43 238.088 156.239C237.961 156.141 237.855 156.019 237.775 155.881C237.696 155.742 237.644 155.588 237.624 155.43C237.603 155.271 237.614 155.11 237.656 154.955C237.698 154.801 237.77 154.656 237.868 154.529C237.966 154.402 238.088 154.296 238.226 154.216C238.365 154.137 238.519 154.085 238.677 154.065C238.836 154.044 238.997 154.056 239.152 154.097C239.306 154.139 239.451 154.211 239.578 154.309C243.877 157.631 250.168 158.054 254.877 155.348C256.779 154.254 258.227 152.798 259.064 151.138C259.968 149.343 260.109 147.282 259.441 145.625C258.957 144.426 258.039 143.369 257.205 142.493C254.487 139.637 251.295 137.275 247.77 135.51C247.627 135.438 247.499 135.339 247.394 135.218C247.29 135.097 247.21 134.957 247.159 134.805C247.109 134.653 247.089 134.493 247.1 134.334C247.111 134.174 247.154 134.018 247.226 133.875C247.298 133.732 247.397 133.604 247.518 133.5C247.639 133.395 247.779 133.315 247.931 133.264C248.083 133.214 248.243 133.194 248.402 133.205C248.562 133.217 248.718 133.259 248.861 133.331C252.638 135.221 256.059 137.752 258.971 140.812C259.964 141.854 261.065 143.134 261.702 144.715C262.628 147.012 262.456 149.824 261.241 152.235C260.19 154.323 258.408 156.13 256.092 157.461C253.657 158.861 250.862 159.549 248.065 159.549Z" fill="#0A213B"/>
<path d="M315.588 195.493C315.588 219.705 295.95 239.32 271.738 239.32C270.987 239.32 270.236 239.297 269.485 239.274C269.463 239.251 269.417 239.251 269.394 239.274C259.518 238.728 250.53 234.973 243.453 228.966C240.089 226.128 237.174 222.799 234.806 219.09C230.437 212.286 227.911 204.185 227.911 195.492C227.911 186.845 230.414 178.767 234.761 171.986C235.999 169.982 237.416 168.093 238.993 166.343C239.107 166.457 239.243 166.571 239.38 166.684C246.43 172.558 257.252 171.335 265.23 168.3C272.466 165.547 277.814 161.883 281.75 158.197C282.023 157.947 282.273 157.696 282.524 157.446C283.219 156.73 283.902 156.001 284.572 155.261C284.959 154.806 285.323 154.373 285.71 153.941C303.072 159.744 315.588 176.174 315.588 195.493Z" fill="#8CDBF9"/>
<path d="M310.991 195.493C310.991 218.909 292.605 238.046 269.485 239.275C269.463 239.252 269.417 239.252 269.394 239.275C268.643 239.298 267.892 239.321 267.141 239.321C242.952 239.321 223.314 219.706 223.314 195.494C223.314 182.956 228.593 171.624 237.035 163.614C237.035 163.614 237.228 163.395 237.251 163.418C237.342 163.668 237.582 164.888 238.674 166.003C238.742 166.117 238.856 166.23 238.993 166.344C239.107 166.458 239.243 166.572 239.38 166.685C240.813 167.959 243.095 169.366 246.593 169.848C247.092 169.917 247.436 170.026 247.709 170.026C252.756 170.898 257.789 171.145 265.23 168.301C272.466 165.548 277.814 161.884 281.75 158.198C282.023 157.948 282.273 157.697 282.524 157.447C283.22 156.731 283.902 156.002 284.572 155.262C300.114 161.997 310.991 177.471 310.991 195.493Z" fill="#FFC151"/>
<path d="M307.828 189.941C307.487 187.415 306.895 184.98 306.121 182.614C304.406 177.444 301.683 172.664 298.111 168.551C293.863 163.673 288.522 159.868 282.524 157.446C282.274 157.696 282.023 157.947 281.75 158.197C287.779 160.555 293.144 164.342 297.383 169.234C301.168 173.584 303.97 178.699 305.598 184.23C306.175 186.182 306.601 188.175 306.872 190.192C307.101 191.95 307.215 193.721 307.213 195.494C307.213 217.567 289.236 235.544 267.14 235.544C253.874 235.544 242.109 229.059 234.804 219.092C229.785 212.248 227.083 203.981 227.09 195.494C227.09 186.733 229.912 178.587 234.759 171.988C236.126 170.077 237.672 168.301 239.378 166.686C239.244 166.578 239.115 166.464 238.991 166.345C238.868 166.249 238.76 166.134 238.672 166.004C230.935 173.445 226.111 183.913 226.111 195.495C226.111 209.285 232.961 221.527 243.451 228.969C250.367 233.895 258.649 236.536 267.14 236.524C289.782 236.524 308.191 218.115 308.191 195.496C308.187 193.639 308.065 191.783 307.828 189.941Z" fill="#F6E1C4"/>
<path d="M273.554 175.796C267.812 175.348 261.942 177.047 257.349 180.529C252.954 183.86 248.576 190.314 253.071 195.449C256.792 199.7 263.437 197.85 268.161 196.952C271.002 196.412 274.324 195.501 277.116 196.713C279.469 197.734 280.268 199.94 279.189 202.243C276.447 208.096 268.309 208.919 262.981 206.736C261.859 206.276 260.543 207.235 260.239 208.292C259.873 209.565 260.688 210.579 261.796 211.034C267.168 213.236 273.808 212.696 278.631 209.379C283.05 206.34 286.271 200.052 282.431 195.274C278.117 189.907 270.54 191.976 264.806 193.066C262.57 193.491 259.862 194.157 257.647 193.299C255.138 192.328 255.392 189.48 256.618 187.537C260.043 182.113 267.47 179.778 273.554 180.253C276.415 180.477 276.4 176.018 273.554 175.796Z" fill="#F6E1C4"/>
<path d="M256.987 173.571C263.706 187.372 269.56 201.578 274.514 216.106C275.435 218.806 279.742 217.647 278.812 214.921C273.73 200.029 267.726 185.467 260.835 171.321C259.58 168.743 255.735 171 256.987 173.571Z" fill="#F6E1C4"/>
<path d="M156.739 458.085C176.173 458.085 191.927 442.331 191.927 422.897C191.927 403.463 176.173 387.709 156.739 387.709C137.305 387.709 121.551 403.463 121.551 422.897C121.551 442.331 137.305 458.085 156.739 458.085Z" fill="#8CDBF9"/>
<path d="M156.579 455.001C176.003 454.386 191.251 438.142 190.637 418.718C190.022 399.294 173.778 384.046 154.354 384.66C134.93 385.275 119.681 401.519 120.296 420.943C120.91 440.367 137.155 455.615 156.579 455.001Z" fill="#FFC151"/>
<path d="M155.456 452.779C147.045 452.779 139.08 449.628 132.922 443.843C119.682 431.403 119.032 410.511 131.472 397.272C137.497 390.858 145.66 387.176 154.456 386.902C163.218 386.643 171.628 389.795 178.041 395.822C184.455 401.848 188.137 410.011 188.411 418.808C188.685 427.604 185.517 435.979 179.491 442.393C173.466 448.807 165.303 452.489 156.507 452.763C156.157 452.773 155.807 452.779 155.456 452.779ZM155.507 387.681C155.166 387.681 154.824 387.686 154.481 387.697C145.898 387.963 137.932 391.558 132.051 397.816C126.171 404.075 123.079 412.249 123.346 420.833C123.613 429.416 127.208 437.383 133.466 443.264C139.725 449.144 147.883 452.254 156.483 451.967C165.066 451.701 173.032 448.106 178.913 441.848C184.793 435.589 187.885 427.415 187.617 418.831C187.35 410.248 183.755 402.281 177.497 396.4C171.489 390.756 163.714 387.681 155.507 387.681Z" fill="#F6E1C4"/>
<path d="M170.089 411.882C166.808 408.282 162.256 406.073 157.411 405.647C153.072 405.265 146.899 407.114 147.277 412.566C147.611 417.382 153.112 419.85 156.631 422.131C158.474 423.326 160.682 424.861 160.966 427.236C161.198 429.179 159.613 430.28 157.92 430.682C153.292 431.779 148.691 428.156 146.875 424.161C145.924 422.068 142.839 423.884 143.786 425.967C145.644 430.055 149.531 433.243 153.944 434.164C157.846 434.978 162.832 433.78 164.253 429.606C166.07 424.267 160.83 420.56 157.004 418.128C155.134 416.939 152.884 415.82 151.531 414.001C150.211 412.226 151.099 410.336 153.077 409.592C155.495 408.683 158.484 409.189 160.862 409.98C163.458 410.843 165.724 412.399 167.56 414.413C169.113 416.117 171.638 413.581 170.089 411.882Z" fill="#F6E1C4"/>
<path d="M161.599 401.359C157.95 413.128 153.572 424.658 148.492 435.883C147.549 437.964 150.631 439.785 151.581 437.689C156.799 426.187 161.297 414.371 165.049 402.31C165.734 400.106 162.281 399.163 161.599 401.359Z" fill="#F6E1C4"/>
<path d="M126.716 133.507L126.17 134.19C119.935 141.791 113.541 148.549 107.556 154.056C105.271 156.159 102.91 158.178 100.479 160.109C90.626 167.937 82.57 171.464 79.134 168.619L72.239 160.359L81.796 149.072C86.256 139.56 93.902 127.727 103.71 115.781C110.173 107.885 116.794 100.944 122.961 95.324C127.671 91.068 132.109 87.587 136.045 85.061L145.033 74.48L151.837 82.308L151.7 82.513C155.502 89.316 144.944 111.138 126.716 133.507Z" fill="#8CDBF9"/>
<path d="M126.716 133.507C126.466 131.414 125.624 129.434 124.099 128.023C121.937 126.043 118.296 125.588 116.089 127.5L112.312 125.429C115.202 115.212 118.433 104.904 122.962 95.324C127.672 91.068 132.11 87.587 136.046 85.061L145.034 74.48L151.838 82.308L151.701 82.513C155.502 89.316 144.944 111.138 126.716 133.507Z" fill="#F6E1C4"/>
<path d="M145.032 74.4731C151.233 79.5621 140.228 103.224 120.451 127.324C100.674 151.424 79.6149 166.835 73.4129 161.746C67.2119 156.657 78.2169 132.995 97.9939 108.895C117.771 84.7951 138.831 69.3841 145.032 74.4731Z" fill="#FFC151"/>
<path d="M78.6349 159.779C77.5129 159.779 76.5309 159.499 75.7489 158.857C72.1119 155.873 75.3039 147.086 78.6219 140.239C83.0689 131.061 90.4559 119.904 98.8879 109.629C107.322 99.3509 116.796 89.9449 124.88 83.8229C130.917 79.2529 138.873 74.4279 142.509 77.4149C145.352 79.7469 144.365 86.3499 139.73 96.0059C135.317 105.197 127.965 116.345 119.555 126.591C111.133 136.855 101.624 146.271 93.4679 152.424C88.6989 156.022 82.7379 159.779 78.6349 159.779ZM139.622 77.6309C136.612 77.6309 131.696 80.0889 125.568 84.7279C117.552 90.7989 108.147 100.137 99.7669 110.349C91.3899 120.558 84.0559 131.633 79.6459 140.734C75.2719 149.759 74.1149 156.044 76.4709 157.977C78.8329 159.908 84.7769 157.557 92.7849 151.515C100.872 145.414 110.309 136.065 118.678 125.867C127.031 115.688 134.33 104.623 138.705 95.5109C143.027 86.5079 144.151 80.2309 141.788 78.2919C141.248 77.8499 140.519 77.6309 139.622 77.6309Z" fill="#F6E1C4"/>
<path d="M418.322 219.349L417.565 218.912C409.114 213.89 401.472 208.583 395.128 203.494C392.706 201.551 390.356 199.52 388.081 197.407C378.862 188.842 374.164 181.408 376.46 177.583L383.591 169.525L396.185 177.278C406.259 180.258 419.106 186.04 432.391 193.941C441.168 199.144 449.025 204.648 455.508 209.9C460.423 213.918 464.531 217.781 467.62 221.294L479.432 228.59L472.715 236.493L472.492 236.389C466.336 241.169 443.175 234.009 418.322 219.349Z" fill="#8CDBF9"/>
<path d="M418.322 219.349C420.354 218.787 422.185 217.657 423.351 215.938C424.984 213.503 424.886 209.835 422.665 207.94L424.145 203.894C434.681 205.216 445.357 206.862 455.509 209.9C460.424 213.918 464.532 217.781 467.621 221.294L479.433 228.59L472.716 236.493L472.493 236.389C466.336 241.169 443.175 234.009 418.322 219.349Z" fill="#F6E1C4"/>
<path d="M479.437 228.588C475.338 235.483 450.291 228.158 423.493 212.226C396.696 196.294 378.295 177.79 382.395 170.894C386.494 163.999 411.541 171.324 438.339 187.256C465.136 203.188 483.537 221.693 479.437 228.588Z" fill="#FFC151"/>
<path d="M469.842 228.92C466.662 228.92 462.451 228.141 457.354 226.582C447.604 223.601 435.477 218.005 424.084 211.232C402.285 198.272 381.373 179.882 385.601 172.77C389.814 165.687 415.948 175.288 437.747 188.25C449.177 195.045 459.899 202.998 467.167 210.071C472.593 215.351 478.554 222.494 476.151 226.537C475.207 228.126 473.051 228.92 469.842 228.92ZM391.762 171.481C389.141 171.481 387.335 172.079 386.578 173.351C383.241 178.965 401.039 196.209 424.665 210.255C435.984 216.983 448.02 222.539 457.686 225.495C467.239 228.415 473.612 228.584 475.173 225.956C476.729 223.337 473.523 217.844 466.374 210.886C459.167 203.873 448.522 195.979 437.166 189.227C418.917 178.377 400.658 171.481 391.762 171.481ZM436.35 272.317L438.056 252.979C438.126 252.188 439.252 252.112 439.428 252.886L443.65 271.464C443.943 272.752 444.643 273.911 445.646 274.769C446.649 275.627 447.903 276.139 449.22 276.229L468.304 277.529C469.087 277.582 469.197 278.689 468.44 278.895L449.925 283.942C448.739 284.265 447.677 284.937 446.878 285.871C446.078 286.804 445.577 287.957 445.439 289.178L443.099 309.948C443.01 310.74 441.876 310.785 441.724 310.003L438.079 291.218C437.826 289.914 437.156 288.726 436.171 287.835C435.186 286.943 433.938 286.395 432.615 286.273L411.472 283.851C411.02 283.799 410.975 283.16 411.415 283.045L431.626 277.757C432.886 277.464 434.022 276.78 434.87 275.803C435.719 274.826 436.237 273.606 436.35 272.317ZM412.048 384.885L412.881 375.45C412.915 375.064 413.465 375.027 413.55 375.405L415.61 384.469C415.753 385.097 416.094 385.663 416.584 386.081C417.073 386.5 417.684 386.75 418.327 386.794L427.638 387.428C428.02 387.454 428.074 387.994 427.704 388.095L418.671 390.557C418.092 390.715 417.574 391.043 417.184 391.498C416.794 391.954 416.549 392.516 416.482 393.112L415.34 403.245C415.297 403.631 414.743 403.653 414.669 403.272L412.891 394.107C412.767 393.471 412.441 392.892 411.96 392.457C411.479 392.022 410.871 391.755 410.225 391.695L399.91 390.513C399.689 390.488 399.667 390.176 399.882 390.12L409.742 387.54C410.357 387.397 410.911 387.063 411.326 386.586C411.74 386.11 411.993 385.514 412.048 384.885ZM155.279 151.326L156.112 141.891C156.146 141.505 156.696 141.468 156.781 141.845L158.841 150.909C158.984 151.537 159.325 152.103 159.815 152.521C160.304 152.94 160.915 153.19 161.558 153.234L170.869 153.868C171.251 153.894 171.305 154.434 170.935 154.534L161.902 156.996C161.323 157.154 160.805 157.482 160.415 157.937C160.025 158.393 159.78 158.955 159.713 159.551L158.571 169.685C158.528 170.071 157.974 170.093 157.9 169.711L156.122 160.546C155.998 159.91 155.672 159.331 155.191 158.896C154.71 158.461 154.102 158.194 153.456 158.134L143.141 156.952C142.92 156.927 142.898 156.615 143.113 156.559L152.973 153.979C153.588 153.837 154.143 153.504 154.557 153.027C154.971 152.551 155.224 151.955 155.279 151.326ZM68.712 360.548L69.544 351.113C69.578 350.727 70.128 350.69 70.213 351.067L72.273 360.131C72.4158 360.759 72.7574 361.325 73.247 361.744C73.7366 362.162 74.3482 362.412 74.991 362.456L84.302 363.09C84.684 363.116 84.738 363.656 84.368 363.756L75.335 366.218C74.7562 366.376 74.2381 366.704 73.8479 367.159C73.4576 367.615 73.2131 368.177 73.146 368.773L72.004 378.907C71.96 379.293 71.407 379.315 71.333 378.934L69.555 369.769C69.4314 369.133 69.1047 368.554 68.624 368.119C68.1433 367.684 67.5345 367.417 66.889 367.357L56.574 366.175C56.353 366.15 56.331 365.838 56.546 365.782L66.406 363.202C67.021 363.059 67.575 362.725 67.9891 362.249C68.4032 361.772 68.6562 361.177 68.712 360.548ZM200.758 52.412L202.464 33.074C202.534 32.283 203.66 32.207 203.836 32.981L208.058 51.559C208.351 52.8466 209.051 54.0056 210.054 54.8639C211.057 55.7223 212.311 56.2343 213.628 56.324L232.712 57.624C233.495 57.677 233.605 58.784 232.848 58.99L214.334 64.0371C213.148 64.3605 212.086 65.0325 211.286 65.966C210.486 66.8994 209.985 68.0515 209.847 69.2731L207.507 90.043C207.418 90.835 206.284 90.88 206.132 90.098L202.487 71.3131C202.234 70.0086 201.564 68.8215 200.579 67.9299C199.594 67.0382 198.346 66.4902 197.023 66.368L175.881 63.946C175.429 63.894 175.384 63.255 175.824 63.14L196.035 57.852C197.295 57.5582 198.43 56.8741 199.278 55.8972C200.126 54.9204 200.644 53.7007 200.758 52.412Z" fill="#F6E1C4"/>
<path d="M47.4481 215.549C52.5821 215.549 56.7441 211.387 56.7441 206.253C56.7441 201.119 52.5821 196.957 47.4481 196.957C42.3141 196.957 38.1521 201.119 38.1521 206.253C38.1521 211.387 42.3141 215.549 47.4481 215.549Z" fill="#F6E1C4"/>
<path d="M450.269 165.196C455.403 165.196 459.565 161.034 459.565 155.9C459.565 150.766 455.403 146.604 450.269 146.604C445.135 146.604 440.973 150.766 440.973 155.9C440.973 161.034 445.135 165.196 450.269 165.196Z" fill="#F6E1C4"/>
<path d="M394.107 241.499C394.107 243.965 393.128 246.329 391.384 248.072C389.641 249.816 387.277 250.795 384.811 250.795C382.346 250.795 379.981 249.816 378.238 248.072C376.495 246.329 375.515 243.965 375.515 241.499C375.515 239.034 376.495 236.669 378.238 234.926C379.981 233.183 382.346 232.203 384.811 232.203C387.277 232.203 389.641 233.183 391.384 234.926C393.128 236.669 394.107 239.034 394.107 241.499Z" fill="#F6E1C4"/>
<path d="M264.352 485.904C269.486 485.904 273.648 481.742 273.648 476.608C273.648 471.474 269.486 467.312 264.352 467.312C259.218 467.312 255.056 471.474 255.056 476.608C255.056 481.742 259.218 485.904 264.352 485.904Z" fill="#F6E1C4"/>
</g>
<defs>
<clipPath id="clip0_8_82">
<rect width="512" height="512" fill="white"/>
</clipPath>
</defs>
</svg>
