<svg width="512" height="512" viewBox="0 0 512 512" fill="none" xmlns="http://www.w3.org/2000/svg">
<path d="M368.669 474.59C368.669 474.59 398.142 477.939 407.432 463.29C416.722 448.644 431.905 392.371 414.043 378.08C396.177 363.79 344.503 411.983 288.347 376.455C232.187 340.928 265.417 424.527 274.703 437.389C283.993 450.25 368.669 474.59 368.669 474.59Z" fill="#171D8F"/>
<path d="M62.124 68.8516C62.124 68.8516 63.5564 37.7083 97.1375 37.7083C130.722 37.7083 345.089 34.6696 375.098 44.5455C405.108 54.4176 392.964 77.964 382.96 89.3592C372.955 100.751 320.794 218.623 325.08 340.909C329.366 463.195 368.669 474.59 368.669 474.59H49.9804C49.9804 474.59 27.8287 473.071 25.6819 432.056C23.5389 391.04 24.2532 202.529 62.124 68.8516Z" fill="#FFC517"/>
<path d="M195.673 118.579C195.673 118.579 181.549 299.16 320.768 298.151C322.295 298.14 323.754 298.098 325.182 298.045C326.634 274.907 329.763 252.381 333.86 231.197C286.805 180.158 195.673 118.579 195.673 118.579Z" fill="#FFAC17"/>
<path d="M92.655 69.1652C92.655 69.1652 169.58 58.3935 173.053 67.5778C176.53 76.762 177.724 92.088 165.467 93.6565C153.214 95.225 96.1851 95.9733 92.3451 93.6867C88.5089 91.4001 80.7797 69.5847 92.655 69.1652Z" fill="white"/>
<path d="M340.799 235.695C340.799 235.695 361.522 259.989 368.31 284.284C375.098 308.579 404.393 264.634 410.826 256.773C416.246 250.151 377.011 243.272 360.899 221.601C357.89 217.557 364.38 234.262 340.799 235.695Z" fill="#171D8F"/>
<path d="M397.212 163.404C397.212 227.977 356.979 268.569 292.406 268.569C227.833 268.569 184.75 226.552 184.75 161.979C184.75 97.4058 227.837 56.4585 292.406 56.4585C356.979 56.4585 397.212 98.8307 397.212 163.404ZM90.8295 113.053C90.8295 113.053 138.414 110.566 141.078 117.471C143.739 124.376 139.517 126.659 128.791 126.247C118.065 125.832 95.3876 126.092 87.7265 125.302C80.0654 124.513 78.1907 113.015 90.8295 113.053Z" fill="#7738C7"/>
<path d="M372.623 163.2C372.623 212.825 341.706 244.021 292.078 244.021C242.452 244.021 209.34 211.729 209.34 162.104C209.34 112.479 242.449 81.0066 292.074 81.0066C341.703 81.0066 372.627 113.571 372.627 163.196L372.623 163.2Z" fill="white"/>
<path d="M88.7809 143.395C88.7809 143.395 160.992 140.583 163.653 147.488C166.314 154.39 162.092 156.676 151.366 156.26C140.64 155.845 93.3428 156.434 85.6817 155.644C78.0206 154.854 76.1384 143.357 88.7809 143.395Z" fill="#7738C7"/>
<path d="M274.782 114.678C274.012 114.836 273.281 115.144 272.631 115.585C271.98 116.026 271.422 116.591 270.99 117.247C270.557 117.904 270.259 118.639 270.11 119.411C269.962 120.182 269.967 120.976 270.126 121.746L271.29 127.385C269.213 128.857 267.369 130.631 265.817 132.65C261.701 137.949 259.853 143.474 260.163 148.524C260.473 153.573 262.798 157.708 265.39 160.732C270.281 166.439 276.404 169.084 277.095 169.368C277.295 169.466 277.499 169.553 277.708 169.629C277.708 169.629 288.026 173.37 295.725 178.726C299.572 181.409 302.494 184.531 303.359 186.599C304.221 188.666 304.531 189.501 301.417 192.706C294.315 200.012 289.957 199.158 285.807 197.476C281.657 195.794 278.698 192.362 278.698 192.362C278.201 191.753 277.588 191.247 276.895 190.874C276.202 190.502 275.442 190.269 274.659 190.191C273.877 190.112 273.086 190.189 272.333 190.416C271.579 190.643 270.878 191.017 270.27 191.516C269.042 192.519 268.263 193.969 268.104 195.546C267.944 197.124 268.417 198.7 269.419 199.929C269.419 199.929 273.853 205.545 281.31 208.569C283.388 209.412 285.773 209.96 288.347 210.13L289.466 215.561C289.624 216.331 289.933 217.062 290.374 217.713C290.816 218.363 291.381 218.921 292.037 219.353C292.694 219.785 293.43 220.083 294.202 220.231C294.974 220.379 295.767 220.373 296.537 220.214C297.307 220.055 298.038 219.746 298.688 219.305C299.338 218.864 299.895 218.3 300.327 217.643C300.76 216.987 301.058 216.252 301.206 215.48C301.354 214.709 301.349 213.915 301.19 213.146L300.132 208.013C303.473 206.562 306.829 204.317 310.004 201.051C315.465 195.431 316.818 187.74 314.414 181.984C312.011 176.231 307.347 172.233 302.551 168.895C293.393 162.523 282.984 158.804 282.043 158.475C281.967 158.437 277.318 156.245 274.484 152.934C273.051 151.268 272.216 149.601 272.107 147.787C271.997 145.976 272.473 143.591 275.278 139.982C277.749 136.796 279.624 136.029 281.408 135.787C283.192 135.541 285.301 136.032 287.489 137.132C291.87 139.336 295.577 143.531 295.577 143.531C296.597 144.746 298.058 145.507 299.639 145.645C301.219 145.783 302.79 145.288 304.006 144.268C304.608 143.763 305.105 143.144 305.468 142.447C305.831 141.75 306.053 140.988 306.121 140.205C306.19 139.422 306.103 138.633 305.867 137.883C305.63 137.133 305.248 136.438 304.743 135.836C304.743 135.836 300.075 130.061 292.867 126.44C289.999 124.996 286.556 123.84 282.769 123.764L281.854 119.331C281.695 118.561 281.387 117.83 280.946 117.18C280.505 116.53 279.94 115.973 279.284 115.541C278.627 115.108 277.892 114.81 277.121 114.662C276.349 114.514 275.552 114.519 274.782 114.678ZM405.112 249.63C405.112 249.63 362.237 278.569 362.237 293.574C362.237 308.579 415.112 373.103 440.836 373.103C466.563 373.103 487.21 333.229 487.21 317.154C487.21 301.076 424.047 237.123 405.112 249.63Z" fill="#FFC517"/>
<path d="M386.172 322.514C402.609 313.938 447.983 267.851 444.052 257.487C440.121 247.128 432.978 246.772 416.541 262.491C403.063 275.383 377.324 300.06 368.503 308.511C362.361 314.399 369.739 331.086 386.172 322.514ZM426.19 362.883C442.623 354.311 487.996 308.224 484.066 297.86C480.135 287.5 472.992 287.141 456.558 302.864C443.077 315.756 417.338 340.429 408.521 348.884C402.375 354.772 409.753 371.459 426.19 362.883Z" fill="#FFAC17"/>
<path d="M113.386 204.778C87.9721 204.725 66.3042 224.133 64.0138 249.921C61.5949 277.164 81.717 301.209 108.96 303.628C135.038 305.945 158.196 287.603 162.24 262.113C162.807 258.53 159.243 258.538 159.243 258.538L120.775 255.118C114.943 254.6 113.696 251.225 114.104 246.633L117.426 209.257C117.743 205.689 115.389 204.884 113.386 204.778Z" fill="white"/>
<path d="M133.262 200.054L130.049 236.197C129.539 241.95 130.783 244.66 136.599 245.174L173.548 248.458C173.548 248.458 178.325 248.844 178.764 243.923C181.625 211.706 151.294 197.397 138.731 196.278C134.29 195.885 133.262 200.054 133.262 200.054Z" fill="#FF4B3D"/>
<path d="M67.6723 370.695C67.6723 370.695 293.105 368.212 295.766 375.117C298.427 382.019 294.205 384.305 283.483 383.89C272.753 383.474 72.2304 383.738 64.5731 382.945C56.9082 382.159 55.0298 370.658 67.6723 370.695ZM65.6276 401.041C65.6276 401.041 208.282 398.229 210.946 405.134C213.607 412.036 209.385 414.322 198.659 413.907C187.933 413.491 70.1856 414.08 62.5246 413.29C54.8635 412.501 52.9888 401.003 65.6276 401.041ZM67.6723 434.531C67.6723 434.531 251.395 432.044 254.055 438.95C256.716 445.855 252.494 448.141 241.768 447.726C231.042 447.31 72.2304 447.571 64.5693 446.781C56.9082 445.991 55.0298 434.494 67.6723 434.531Z" fill="#7738C7"/>
<path d="M68.2506 326.796C68.2506 326.796 275.92 320.004 278.921 329.355C281.914 338.709 282.323 354.073 270.001 355.007C257.68 355.94 70.3898 353.752 66.6745 351.269C62.9593 348.785 56.3678 326.603 68.2506 326.796Z" fill="#FF4B3D"/>
</svg>
