<svg width="512" height="512" viewBox="0 0 512 512" fill="none" xmlns="http://www.w3.org/2000/svg">
<path d="M67.8687 200.553C67.8687 200.553 121.122 209.249 158.381 196.459C195.647 183.673 249.599 149.268 277.42 141.097C295.18 135.881 306.062 133.254 315.835 132.359C329.661 131.096 336.74 134.936 342.447 139.313C366.409 157.693 420.944 204.109 442.309 225.592C448.425 231.741 448.508 241.632 439.433 244.932C413.018 254.532 347.485 263.882 309.353 290.195C258.118 325.549 218.543 348.982 161.272 349.677C104.005 350.373 97.1826 349.492 89.0831 338.017C72.1509 314.04 49.5532 227.576 46.6921 217.553C44.2202 208.901 48.8161 197.385 67.8687 200.553Z" fill="#171D8F"/>
<path d="M47.123 150.678C47.123 150.678 108.196 150.141 147.307 128.711C186.417 107.282 239.988 58.5296 269.457 44.0654C288.264 34.832 299.901 29.809 310.631 26.9328C325.813 22.866 334.446 25.7876 341.653 29.5747C371.916 45.4713 441.678 86.7664 469.643 106.624C477.648 112.308 479.647 123.329 470.153 128.753C442.532 144.54 371.224 167.569 333.747 204.253C283.384 253.541 243.741 287.293 179.988 299.081C116.231 310.865 108.453 311.194 97.2092 299.95C73.7157 276.457 31.884 184.346 26.7627 173.714C22.3407 164.541 25.2547 150.81 47.123 150.678Z" fill="#7738C7"/>
<path d="M293.087 58.3784C286.529 60.888 278.902 64.3879 268.758 69.3655C244.164 81.4373 199.449 122.128 166.805 140.016C142.696 153.229 110.581 160.803 95.414 163.865C97.5376 167.978 98.6456 172.54 98.6454 177.169C98.6458 183.276 96.7178 189.227 93.1363 194.174C89.5549 199.121 84.503 202.811 78.7009 204.718C86.2373 221.313 97.2319 244.032 108.223 259.226C112.794 256.309 118.092 254.732 123.515 254.675C123.615 254.675 123.716 254.675 123.817 254.675C129.784 254.675 135.605 256.515 140.487 259.945C145.37 263.375 149.075 268.228 151.098 273.841C159.673 272.583 170.634 270.636 185.166 267.945C238.382 258.111 271.471 229.942 313.504 188.802C337.881 164.938 379.35 148.021 407.402 135.469C403.59 130.432 401.528 124.287 401.528 117.97C401.529 114.08 402.312 110.23 403.832 106.649C405.351 103.068 407.576 99.8295 410.373 97.126C389.343 85.4398 361.318 73.0959 340.773 63.1482C338.051 66.3937 334.651 69.0034 330.812 70.7939C326.973 72.5843 322.789 73.512 318.553 73.5116C313.34 73.5114 308.223 72.1057 303.741 69.4425C299.26 66.7793 295.579 62.9572 293.087 58.3784Z" fill="white"/>
<path d="M236.866 134.324C236.866 134.324 209.718 144.328 206.142 162.19C202.571 180.052 208.645 192.555 224.723 195.057C240.797 197.559 261.875 182.195 266.161 164.333C270.447 146.471 259.014 127.536 236.866 134.324ZM172.546 195.775C172.546 195.775 147.035 207.393 135.159 208.656C123.288 209.922 126.572 222.3 140.715 220.531C154.862 218.762 178.862 208.406 180.884 203.856C182.902 199.309 180.884 191.988 172.546 195.775ZM283.694 126.304C289.25 119.992 320.575 97.7609 332.703 95.9921C344.828 94.2233 343.566 104.583 336.748 109.13C329.922 113.676 302.135 126.81 296.326 132.37C290.516 137.926 274.223 135.779 283.694 126.304Z" fill="#FF4B3D"/>
<path d="M310.215 246.394C296.696 246.417 284.265 253.258 277.303 265.402C263.905 288.782 251.878 312.948 240.895 337.704C229.647 362.395 209.518 359.837 201.267 384.611C196.372 399.314 201.894 434.815 226.892 445.159C251.366 455.265 276.468 463.776 302.04 470.641C328.099 477.716 354.573 483.164 381.308 486.953C397.008 489.183 412.111 482.236 420.063 468.358C433.465 444.978 445.488 420.812 456.475 396.056C467.719 371.364 477.671 346.639 485.918 321.864C490.816 307.161 482.527 269.177 468.441 263.349C444.645 253.504 421.67 270.217 395.33 263.119C369.271 256.042 342.798 250.593 316.062 246.803C314.126 246.527 312.172 246.391 310.215 246.394Z" fill="#171D8F"/>
<path d="M446.701 362.66C411.189 349.167 375.495 337.311 338.909 333.49C316.901 365.918 304.78 401.649 292.266 437.249C318.325 444.324 344.799 449.772 371.534 453.561C387.238 455.795 402.337 448.844 410.293 434.966C423.692 411.586 435.718 387.416 446.701 362.66Z" fill="#7738C7"/>
<path d="M231.121 304.315C264.018 318.587 299.504 328.977 338.913 333.49C361.772 301.481 380.998 268.191 385.556 229.727C359.497 222.651 333.024 217.203 306.288 213.414C290.585 211.181 275.485 218.131 267.529 232.01C254.131 255.39 242.105 279.56 231.121 304.315Z" fill="#FF4B3D"/>
<path d="M446.701 362.66L338.909 333.486L385.556 229.727C411.129 236.591 436.231 245.102 460.704 255.208C474.791 261.036 481.042 273.765 476.148 288.472C467.901 313.246 457.945 337.968 446.701 362.66Z" fill="#FFC517"/>
<path d="M231.121 304.316L338.913 333.49L292.267 437.249C266.694 430.385 241.592 421.873 217.118 411.767C203.032 405.939 196.781 393.21 201.675 378.504C209.922 353.729 219.877 329.007 231.121 304.316Z" fill="#FF4B3D"/>
<path d="M322.264 236.031C320.262 235.491 317.326 237.164 313.902 240.796C310.478 244.428 306.753 249.821 303.291 256.157C296.279 254.846 289.815 254.342 284.881 254.72C279.947 255.099 276.812 256.34 275.95 258.255C275.092 260.17 276.553 262.654 280.114 265.331C283.674 268.008 289.139 270.732 295.679 273.089C293.312 279.72 291.906 285.739 291.676 290.235C291.445 294.731 292.402 297.458 294.402 298.004C296.404 298.545 299.339 296.874 302.763 293.242C306.187 289.611 309.913 284.218 313.375 277.882C320.389 279.193 326.853 279.698 331.788 279.319C336.723 278.94 339.859 277.699 340.72 275.784C341.581 273.869 340.121 271.384 336.56 268.706C333 266.028 327.534 263.303 320.991 260.946C323.359 254.313 324.764 248.292 324.994 243.796C325.224 239.3 324.266 236.574 322.264 236.031ZM388.878 371.3C382.04 369.466 375.084 368.631 369.528 368.976C363.971 369.321 360.265 370.818 359.217 373.141C358.696 374.297 358.85 375.623 359.669 377.043C360.489 378.463 361.959 379.95 363.995 381.418C366.03 382.886 368.592 384.307 371.534 385.599C374.475 386.892 377.739 388.03 381.138 388.95C384.536 389.87 388.004 390.553 391.342 390.961C394.681 391.368 397.825 391.492 400.596 391.325C403.367 391.158 405.709 390.703 407.49 389.987C409.27 389.271 410.454 388.307 410.973 387.151C412.023 384.817 410.302 381.84 406.191 378.876C402.08 375.911 395.915 373.203 389.052 371.345C388.994 371.329 388.936 371.316 388.878 371.3ZM375.854 400.697C372.456 399.777 368.988 399.094 365.649 398.687C362.311 398.279 359.166 398.156 356.396 398.323C353.625 398.49 351.283 398.944 349.502 399.66C347.722 400.376 346.538 401.34 346.019 402.496C345.498 403.652 345.651 404.978 346.471 406.398C347.291 407.818 348.761 409.305 350.797 410.773C352.832 412.241 355.394 413.662 358.335 414.955C361.277 416.247 364.541 417.386 367.94 418.306C371.338 419.226 374.806 419.909 378.144 420.316C381.483 420.724 384.627 420.847 387.398 420.68C390.168 420.513 392.511 420.059 394.291 419.343C396.072 418.626 397.256 417.663 397.775 416.507C398.296 415.351 398.142 414.025 397.323 412.605C396.503 411.184 395.033 409.698 392.997 408.23C390.962 406.761 388.4 405.34 385.458 404.048C382.517 402.756 379.253 401.617 375.854 400.697ZM412.175 305C407.921 303.848 403.812 302.48 400.081 300.974C396.35 299.468 393.071 297.853 390.431 296.221C387.792 294.59 385.843 292.973 384.697 291.465C383.55 289.956 383.228 288.585 383.749 287.429C384.269 286.273 385.621 285.355 387.729 284.727C389.837 284.099 392.659 283.775 396.034 283.771C399.408 283.768 403.27 284.086 407.398 284.707C411.527 285.328 415.84 286.24 420.093 287.391C424.347 288.542 428.457 289.91 432.188 291.416C435.919 292.922 439.197 294.538 441.837 296.169C444.477 297.801 446.426 299.417 447.572 300.926C448.719 302.435 449.04 303.806 448.519 304.962C447.999 306.118 446.647 307.036 444.539 307.663C442.432 308.291 439.61 308.616 436.235 308.619C432.86 308.623 428.998 308.305 424.87 307.684C420.742 307.063 416.428 306.151 412.175 305Z" fill="white"/>
<path d="M338.826 333.403C338.826 333.403 294.738 410.509 201.206 395.795C203.512 402.73 209.003 408.328 217.065 411.665C241.533 421.768 266.628 430.277 292.194 437.139L338.826 333.403Z" fill="#CF1531"/>
<path d="M250.306 338.822C249.028 338.49 247.896 338.553 246.942 339.011C244.653 340.107 243.473 343.428 243.581 348.47C243.69 353.513 245.081 360.003 247.543 366.953C240.049 371.205 233.762 375.613 229.636 379.507C225.509 383.401 223.768 386.571 224.677 388.534C225.586 390.5 229.098 391.151 234.679 390.389C240.261 389.627 247.608 387.493 255.605 384.313C259.317 390.662 263.359 395.878 267.119 399.169C270.879 402.46 274.15 403.647 276.438 402.549C278.726 401.452 279.905 398.13 279.795 393.087C279.686 388.045 278.295 381.556 275.833 374.607C283.33 370.354 289.619 365.945 293.745 362.05C297.872 358.155 299.611 354.985 298.699 353.022C297.788 351.059 294.275 350.409 288.694 351.172C283.112 351.934 275.767 354.067 267.771 357.248C264.85 352.25 261.709 347.93 258.651 344.704C255.593 341.478 252.719 339.453 250.306 338.822Z" fill="white"/>
<path d="M177.18 412.757C177.18 412.757 154.302 491.326 110.078 486.027L95.8296 484.209C51.3522 478.529 19.9028 437.869 25.5834 393.395C31.2641 348.921 71.9241 317.472 116.398 323.149L133.848 325.379C178.098 331.26 182.842 368.424 177.18 412.757Z" fill="#FFAC17"/>
<path d="M204.306 416.223C201.577 437.58 190.477 456.979 173.446 470.152C156.415 483.325 134.849 489.193 113.491 486.465C92.134 483.737 72.7352 472.636 59.5623 455.606C46.3894 438.575 40.5213 417.009 43.2489 395.651C45.9773 374.295 57.0773 354.897 74.1074 341.724C91.1374 328.551 112.703 322.682 134.059 325.409C155.417 328.137 174.815 339.238 187.988 356.269C201.161 373.3 207.033 394.866 204.306 416.223Z" fill="#FFC517"/>
<path d="M129.331 351.93C128.546 351.829 127.748 351.884 126.984 352.092C126.22 352.299 125.504 352.656 124.877 353.14C124.251 353.624 123.726 354.227 123.333 354.915C122.939 355.602 122.685 356.36 122.585 357.146L121.848 362.894C119.389 363.619 117.053 364.709 114.916 366.126C109.262 369.83 105.694 374.49 104.341 379.403C102.988 384.317 103.85 389.018 105.331 392.745C108.128 399.782 113.098 404.299 113.661 404.801C113.821 404.959 113.988 405.108 114.164 405.247C114.164 405.247 122.77 412.179 128.356 419.802C131.153 423.616 132.911 427.547 133.058 429.799C133.209 432.052 133.228 432.951 129.21 434.985C120.06 439.63 116.186 437.389 112.781 434.429C109.379 431.47 107.678 427.233 107.678 427.233C107.403 426.489 106.984 425.807 106.445 425.226C105.906 424.645 105.257 424.175 104.537 423.845C103.816 423.515 103.037 423.33 102.245 423.301C101.452 423.272 100.662 423.399 99.9191 423.676C98.4218 424.232 97.2064 425.36 96.5396 426.811C95.8728 428.262 95.8091 429.919 96.3626 431.417C96.3626 431.417 98.7512 438.216 104.87 443.534C106.722 445.115 108.815 446.391 111.069 447.314L110.358 452.858C110.257 453.644 110.312 454.441 110.52 455.205C110.728 455.97 111.084 456.685 111.568 457.312C112.053 457.938 112.656 458.463 113.343 458.857C114.03 459.25 114.788 459.504 115.574 459.605C116.359 459.705 117.157 459.65 117.921 459.443C118.685 459.235 119.401 458.879 120.028 458.394C120.654 457.91 121.179 457.307 121.572 456.62C121.966 455.932 122.22 455.174 122.32 454.389L122.989 449.154C126.648 448.859 130.575 447.82 134.668 445.741C141.709 442.173 145.515 435.283 145.099 429.017C144.691 422.747 141.554 417.414 138.073 412.667C131.429 403.603 122.728 396.657 121.935 396.037C121.878 395.976 118.163 392.367 116.541 388.289C115.725 386.229 115.476 384.369 115.959 382.604C116.447 380.843 117.679 378.727 121.53 376.202C124.932 373.972 126.969 373.859 128.749 374.206C130.526 374.558 132.37 375.714 134.097 377.479C137.552 381.009 139.717 386.218 139.717 386.218C140.002 386.956 140.429 387.632 140.975 388.206C141.521 388.779 142.174 389.24 142.898 389.561C143.621 389.882 144.401 390.058 145.193 390.077C145.984 390.097 146.772 389.961 147.511 389.676C148.25 389.391 148.925 388.963 149.499 388.417C150.072 387.871 150.533 387.217 150.854 386.493C151.174 385.769 151.349 384.989 151.369 384.197C151.388 383.405 151.251 382.617 150.965 381.879C150.965 381.879 148.407 374.853 142.718 369.043C140.458 366.73 137.556 364.508 133.969 363.197L134.547 358.672C134.749 357.087 134.314 355.486 133.335 354.221C132.357 352.957 130.917 352.132 129.331 351.93Z" fill="white"/>
</svg>
