<svg width="512" height="512" viewBox="0 0 512 512" fill="none" xmlns="http://www.w3.org/2000/svg">
<path d="M485.1 400.55C480.77 397.42 476.56 394.43 472.41 391.48C459.03 381.98 446.33 372.96 433.08 361.48C432.277 356.409 430 351.687 426.533 347.901C423.065 344.116 418.561 341.434 413.58 340.19C405.85 329.9 399.35 317.19 394.47 306.41C397.862 309.905 402.176 312.366 406.91 313.51C419.954 316.651 433.377 317.934 446.78 317.32C452.583 317.068 458.13 314.866 462.526 311.069C466.921 307.273 469.907 302.104 471 296.4C473.125 284.737 473.963 272.876 473.5 261.03C473.269 255.45 471.239 250.095 467.713 245.764C464.188 241.433 459.357 238.359 453.94 237C448.152 235.572 442.276 234.526 436.35 233.87C437.94 227.51 439.66 212.96 439.21 198.13C443.15 198.27 446.61 198.26 450.74 198.07C456.564 197.797 462.125 195.569 466.527 191.746C470.929 187.923 473.914 182.728 475 177C477.106 165.385 477.931 153.575 477.46 141.78C477.258 136.198 475.253 130.831 471.744 126.485C468.236 122.138 463.414 119.046 458 117.67C445.078 114.453 431.747 113.183 418.45 113.9L418.3 113.79C421.3 113.44 424.3 113.03 427.25 112.49C433.025 111.386 438.255 108.358 442.087 103.899C445.919 99.4407 448.127 93.8149 448.35 87.94C448.835 76.2426 448.047 64.5271 446 53C445.046 47.5692 442.364 42.5915 438.353 38.8077C434.342 35.0239 429.217 32.6363 423.74 32C410.628 30.5196 397.369 30.9778 384.39 33.36C378.9 34.3428 373.877 37.0816 370.077 41.1644C366.278 45.2473 363.906 50.4535 363.32 56C362.558 63.7198 362.425 71.4886 362.92 79.23C358.673 77.13 354.34 75.1467 349.92 73.28C355.25 52.78 363.45 26 363.42 26.1C363.785 24.8758 363.823 23.5772 363.529 22.3339C363.236 21.0906 362.621 19.9461 361.746 19.0149C360.872 18.0836 359.768 17.3982 358.546 17.0271C357.323 16.6559 356.025 16.6121 354.78 16.9C331.5 22.31 316.57 26.46 288.09 26.46C239.99 26.46 224.03 12.46 203.61 26.26L197.4 30.44L196.71 33.8C128.11 -28.43 17.24 20.33 17.24 113.39C17.2279 133.078 22.6326 152.389 32.8626 169.211C43.0926 186.032 57.7534 199.714 75.24 208.76C74.57 214.48 74.01 220.29 73.67 226.14C70.4868 227.897 67.4738 229.945 64.67 232.26L41.62 216.57C40.6604 215.918 39.5364 215.55 38.3771 215.508C37.2178 215.466 36.0701 215.751 35.0657 216.332C34.0613 216.912 33.2409 217.764 32.6986 218.79C32.1564 219.815 31.9143 220.973 32 222.13C35.35 267.64 35.09 244.68 32.91 343.13C32.12 379.56 30.32 435.42 69.8 470.55L74.6 474.94C85.78 476.02 98.6 478.75 136.23 476.79C136.4 478.9 136.28 477.4 138.37 506.03C160.49 495.72 164.73 494.59 172.56 489.49C173.56 490.06 174.5 490.63 175.48 491.17C193.25 501.17 204.08 486.32 204.6 486.04C209.73 489.95 212.68 491.71 222.53 498.41C231.86 490.77 234.37 488.86 239.12 484.72C243.62 488.47 246.04 490 257.71 498.58C267.71 488.48 269.91 485.94 274.77 481.49C277.77 482.69 277.77 482.49 307.19 491.73C300.53 455.37 298.57 440.08 290.77 424.49C282.77 408.59 270.34 397.31 255.64 392.73C243.8 389.04 233.36 390.24 221.89 391.14C219.96 378.74 219.68 365.35 219.26 351.89L220.38 351.05C223.296 355.465 227.243 359.104 231.882 361.649C236.52 364.195 241.71 365.572 247 365.66C253.65 374.36 263.2 379.82 273.81 377.86C292.44 391.17 313.98 400.32 329.1 413.76C330.013 417.886 331.912 421.729 334.634 424.961C337.356 428.193 340.82 430.718 344.73 432.32C355.6 447.93 368.84 468.56 380.73 488.96C383.526 493.768 387.945 497.42 393.193 499.26C398.441 501.101 404.174 501.008 409.36 499C442.956 485.88 471.547 462.479 491.05 432.14C494.271 427.108 495.449 421.036 494.343 415.164C493.237 409.293 489.931 404.065 485.1 400.55Z" fill="white"/>
<path d="M196.21 166.33C187.016 178.751 174.749 188.566 160.614 194.811C146.479 201.056 130.963 203.516 115.589 201.949C100.216 200.382 85.5142 194.843 72.9294 185.875C60.3446 176.907 50.3095 164.82 43.8101 150.8C17.6801 94.43 56.3401 28.41 119.05 24.53C195.7 20 240.35 106.73 196.21 166.33Z" fill="#FFB020"/>
<path d="M196.21 166.33L124.64 113.39L139.2 25.55C205.18 36.4 235.4 113.42 196.21 166.33Z" fill="#A369F7"/>
<path d="M196.21 166.33C187.016 178.751 174.749 188.566 160.614 194.811C146.479 201.056 130.963 203.516 115.589 201.949C100.216 200.382 85.5142 194.843 72.9294 185.875C60.3446 176.908 50.3095 164.82 43.8101 150.8L124.64 113.39L196.21 166.33Z" fill="#FF605B"/>
<path d="M186.68 49.5501L124.68 113.39L119.09 24.5301C131.479 23.7462 143.895 25.5678 155.536 29.8772C167.178 34.1867 177.787 40.8884 186.68 49.5501Z" fill="#00ABFE"/>
<path d="M227.68 446C204.47 446.72 182.25 455.35 158.13 457C132.95 458.76 107.63 460.5 82.68 457.44C67.09 443.13 58.6 425.44 54.4 404.44C50.4 384.44 50.82 363.87 51.27 343.44C53.37 248.55 53.34 261.89 52.16 245.89L67.62 256.43C71.2572 250.504 76.3617 245.617 82.44 242.24C82.9751 245.259 84.6177 247.97 87.0461 249.841C89.4746 251.713 92.5142 252.611 95.57 252.36C98.84 251.95 100.24 251.06 119.84 241.76C132.6 260.05 132.05 261 137.14 260C152.77 256.77 154.14 249.78 157.43 254.84C159.39 257.72 161.343 260.617 163.29 263.53C168.33 260.316 172.892 256.408 176.84 251.92C181.3 256.4 185.61 261.05 189.78 265.82C193.05 262.82 196.32 259.82 198.03 258.07C201.56 374.24 201.13 384.31 205.63 403.77C207.761 413.406 211.345 422.662 216.26 431.22C219.391 436.634 223.232 441.604 227.68 446Z" fill="#0071FF"/>
<path d="M172.22 292.15C141.33 291.98 110.45 291.81 79.46 291.86C79.0026 299.947 79.3375 308.059 80.46 316.08C111.642 319.985 143.179 320.146 174.4 316.56C173.57 308.85 172.74 301.13 172.22 292.15Z" fill="white"/>
<path d="M227.68 446C204.47 446.72 182.25 455.35 158.13 457C132.95 458.76 107.63 460.5 82.68 457.44C82.46 457.23 82.22 457.03 82 456.83C99 448.05 103.17 427.32 119.24 420.15C130.88 414.95 144.36 419.15 156.35 423.52C166.44 427.16 179.48 425.25 191.89 426.77C200.06 427.77 208.42 428.77 216.26 431.22C219.391 436.634 223.232 441.604 227.68 446Z" fill="#A369F7"/>
<path d="M84.19 348.69C83.9247 348.69 83.6704 348.585 83.4828 348.397C83.2953 348.209 83.19 347.955 83.19 347.69C83.19 347.425 83.2953 347.17 83.4828 346.983C83.6704 346.795 83.9247 346.69 84.19 346.69C114.59 346.79 145.42 347.46 175.83 348.69C176.095 348.69 176.35 348.795 176.537 348.983C176.725 349.17 176.83 349.425 176.83 349.69C176.69 352.39 174.37 349 84.19 348.69ZM79.33 377.63C79.33 377.365 79.4353 377.11 79.6228 376.923C79.8104 376.735 80.0647 376.63 80.33 376.63C176.62 375.89 181.08 371.83 181.22 374.69C181.227 374.825 181.206 374.961 181.159 375.088C181.111 375.215 181.039 375.331 180.945 375.43C180.852 375.528 180.739 375.606 180.615 375.659C180.49 375.713 180.356 375.74 180.22 375.74C147.09 377.4 113.47 378.38 80.3 378.63C80.24 378.58 79.34 378.56 79.33 377.63ZM79.9 407.21C79.9 406.945 80.0053 406.69 80.1928 406.503C80.3804 406.315 80.6347 406.21 80.9 406.21C115.56 405.7 150.59 403.45 185.03 399.53C185.295 399.499 185.562 399.576 185.771 399.742C185.98 399.907 186.114 400.15 186.145 400.415C186.175 400.68 186.099 400.947 185.933 401.156C185.767 401.365 185.525 401.499 185.26 401.53C150.76 405.47 115.65 407.72 80.93 408.23C80.82 408.15 79.92 408.14 79.9 407.21Z" fill="white"/>
<path d="M283.66 465.15C281.66 454.04 279.41 442.78 274.35 432.68C269.29 422.58 261 413.59 250.18 410.23C238.92 406.72 237.96 408.35 126.28 418.12C136.97 422.85 144.55 432.98 148.68 443.92C152.81 454.86 153.92 466.68 154.77 478.35C161.012 475.5 166.711 471.585 171.61 466.78C175.715 469.837 180.01 472.63 184.47 475.14C187.33 476.74 188.47 476.37 190.35 474.36C194.663 469.767 198.977 465.183 203.29 460.61C208.882 466.139 214.975 471.137 221.49 475.54C227.739 470.422 233.708 464.971 239.37 459.21C244.209 464.878 249.693 469.963 255.71 474.36C261.209 468.747 267.09 463.521 273.31 458.72C276.149 461.718 279.714 463.933 283.66 465.15Z" fill="#00ABFE"/>
<path d="M297.8 220C312.42 219.24 317.22 216.23 330.1 223.2C340.89 229.05 350.33 251.34 355.79 262.34C366.64 284.16 369.69 296.93 379.79 318.41C383.41 326.11 386.97 332.49 390.2 338.21C409 371.46 441 391.29 474.33 415.43C475.377 416.191 476.091 417.326 476.325 418.598C476.56 419.871 476.296 421.185 475.59 422.27C458.178 449.318 432.679 470.185 402.72 481.9C401.611 482.317 400.39 482.327 399.275 481.927C398.16 481.528 397.222 480.746 396.63 479.72C387.07 463.32 360.63 420.2 347.74 406.27C319.47 375.76 263.62 365.19 251.81 321.64C246.31 301.34 253.53 279.88 262.08 260.64C269.63 243.66 278.4 221 297.8 220Z" fill="#FFAD92"/>
<path d="M340.38 39.07C316.782 118.349 304.379 200.537 303.53 283.25C249.37 249.64 248.2 252.44 240.79 229.67C221 168.78 200.94 104.25 213.87 41.46C220.64 36.89 229.63 38.56 237.66 40.06C272.4 46.57 308.35 46.52 340.38 39.07Z" fill="#6BAD02"/>
<path d="M249.28 184.9C248 179.9 250.04 177.16 258.41 172.57C258.525 172.504 258.652 172.462 258.783 172.445C258.914 172.429 259.048 172.438 259.175 172.473C259.303 172.508 259.422 172.567 259.527 172.648C259.632 172.729 259.719 172.83 259.785 172.945C259.851 173.06 259.893 173.187 259.91 173.318C259.926 173.449 259.917 173.582 259.882 173.71C259.847 173.838 259.788 173.957 259.707 174.062C259.626 174.167 259.525 174.254 259.41 174.32C251.41 178.71 250.32 180.78 251.26 184.4C253.82 194.29 268.66 192.4 269.17 182.15V179.76C268.96 166.57 283.66 162.76 288.47 171.21C290.2 174.21 290.58 177.08 289.6 179.6C287.88 184 282.6 185.73 282.38 185.8C282.134 185.861 281.874 185.827 281.652 185.703C281.431 185.58 281.264 185.377 281.187 185.135C281.109 184.894 281.126 184.632 281.235 184.402C281.343 184.173 281.534 183.993 281.77 183.9C281.82 183.9 286.37 182.38 287.77 178.9C288.52 176.97 288.18 174.73 286.77 172.24C282.99 165.6 271.03 168.68 271.21 179.77V182.29C270.5 194.66 252.44 197.09 249.28 184.9Z" fill="white"/>
<path d="M244.52 188.81C243.84 186.99 244.44 188.25 294.78 169.04C294.905 168.985 295.039 168.956 295.175 168.955C295.311 168.954 295.446 168.98 295.572 169.033C295.697 169.086 295.811 169.164 295.905 169.262C295.999 169.36 296.072 169.477 296.12 169.604C296.168 169.732 296.189 169.868 296.182 170.004C296.176 170.14 296.141 170.273 296.082 170.395C296.022 170.517 295.937 170.626 295.834 170.715C295.73 170.803 295.61 170.87 295.48 170.91L245.8 189.4C245.552 189.49 245.278 189.479 245.038 189.369C244.799 189.258 244.612 189.057 244.52 188.81Z" fill="white"/>
<path d="M279.45 290.69C267.03 324.46 276.45 347.69 275.32 354.19C274.39 359.58 269.41 362.27 263.95 357.1C260.226 353.539 257.863 348.788 257.27 343.67C249.87 350.48 236.13 348.28 232.55 333.75C228.24 316.26 241.21 301.02 251.69 289.21C256.24 284.08 266.77 271.86 272.76 274.04C274.83 274.79 276.06 276.87 276.96 278.88C278.64 282.67 280.82 287 279.45 290.69Z" fill="#ED6C4D"/>
<path d="M311.22 291.85C322.3 228.78 363.53 175.85 403.42 125.75C369.42 101.37 331.25 78.8 289.42 78.26C281.12 132.26 282.08 187.26 283.05 241.88C283.23 252.06 283.47 262.51 287.29 271.95C291.11 281.39 299.37 289.73 311.22 291.85ZM295.12 299.35C244.532 308.15 199.243 336.012 168.58 377.2C153.394 352.256 142.484 324.95 136.3 296.41C134.65 288.87 133.3 281.23 132.37 273.53C131.54 266.99 133.57 265.27 139.37 264.63C169.82 261.44 238.2 254.01 267.95 267.09C281.34 273 292.47 285.21 295.12 299.35Z" fill="#7AD001"/>
<path d="M290.6 287.27C286.84 287.27 280.98 286.06 272.3 283.27C235.54 271.39 162.85 289.16 136.3 296.43C134.65 288.89 133.3 281.25 132.37 273.55C131.54 267.01 133.57 265.29 139.37 264.65C169.82 261.46 238.2 254.03 267.95 267.11C277.445 271.261 285.376 278.32 290.6 287.27Z" fill="#6BAD02"/>
<path d="M289.38 254.52C233.91 208.52 176.83 161.7 108.75 138.18C101.17 156.18 98.36 175.75 95.61 195.08C91.39 224.82 87.53 256.86 101.5 283.46C134.19 277.71 167.5 276.27 200.63 274.85C226.34 273.74 253.16 272.85 276.63 283.48C279.29 284.69 280.63 284.48 281.63 281.34C284.75 271.9 287.9 262.46 289.38 254.52Z" fill="#7AD001"/>
<path d="M282.66 315.59C282.66 315.325 282.765 315.071 282.953 314.883C283.14 314.695 283.395 314.59 283.66 314.59C283.925 314.59 284.18 314.695 284.367 314.883C284.555 315.071 284.66 315.325 284.66 315.59C284.66 315.95 285.6 350.97 297.9 362.33C298.094 362.509 298.21 362.758 298.221 363.023C298.232 363.287 298.139 363.545 297.96 363.74C295.49 366.35 283.4 348.72 282.66 315.59Z" fill="#ED6C4D"/>
<path d="M407.33 373.16C411.577 373.16 415.02 369.717 415.02 365.47C415.02 361.223 411.577 357.78 407.33 357.78C403.083 357.78 399.64 361.223 399.64 365.47C399.64 369.717 403.083 373.16 407.33 373.16Z" fill="#A369F7"/>
<path d="M398.01 382.17C402.257 382.17 405.7 378.727 405.7 374.48C405.7 370.233 402.257 366.79 398.01 366.79C393.763 366.79 390.32 370.233 390.32 374.48C390.32 378.727 393.763 382.17 398.01 382.17Z" fill="#A369F7"/>
<path d="M388.41 391.56C392.657 391.56 396.1 388.117 396.1 383.87C396.1 379.623 392.657 376.18 388.41 376.18C384.163 376.18 380.72 379.623 380.72 383.87C380.72 388.117 384.163 391.56 388.41 391.56Z" fill="#A369F7"/>
<path d="M377.94 400.5C382.187 400.5 385.63 397.057 385.63 392.81C385.63 388.563 382.187 385.12 377.94 385.12C373.693 385.12 370.25 388.563 370.25 392.81C370.25 397.057 373.693 400.5 377.94 400.5Z" fill="#A369F7"/>
<path d="M366.37 408.19C370.617 408.19 374.06 404.747 374.06 400.5C374.06 396.253 370.617 392.81 366.37 392.81C362.123 392.81 358.68 396.253 358.68 400.5C358.68 404.747 362.123 408.19 366.37 408.19Z" fill="#A369F7"/>
<path d="M354.59 415.88C358.837 415.88 362.28 412.437 362.28 408.19C362.28 403.943 358.837 400.5 354.59 400.5C350.343 400.5 346.9 403.943 346.9 408.19C346.9 412.437 350.343 415.88 354.59 415.88Z" fill="#A369F7"/>
<path d="M196.05 247.61C195.969 247.351 195.994 247.071 196.12 246.831C196.246 246.591 196.461 246.411 196.72 246.33C196.979 246.249 197.259 246.274 197.499 246.4C197.739 246.525 197.919 246.741 198 247C200.6 255.75 202.39 257.26 206.13 257.09C216.34 256.67 217.62 241.78 207.71 239.09C207.02 238.91 206.28 238.75 205.37 238.57C197.94 237.09 195.04 231.65 194.82 227.45C194.17 215.45 212.67 212.45 214.07 226.93C214.083 227.061 214.07 227.194 214.032 227.32C213.994 227.447 213.931 227.564 213.848 227.666C213.764 227.768 213.661 227.853 213.545 227.915C213.429 227.978 213.301 228.017 213.17 228.03C213.039 228.043 212.906 228.03 212.78 227.992C212.653 227.954 212.536 227.891 212.434 227.808C212.332 227.724 212.247 227.621 212.184 227.505C212.122 227.389 212.083 227.261 212.07 227.13C212.07 227.08 211.55 222.3 208.4 220.23C206.68 219.09 204.4 218.95 201.68 219.81C194.35 222.11 194.91 234.44 205.75 236.61C206.75 236.79 207.48 236.96 208.21 237.16C210.834 237.85 213.115 239.475 214.625 241.729C216.135 243.983 216.77 246.711 216.41 249.4C216.206 251.989 215.049 254.411 213.163 256.196C211.277 257.982 208.797 259.006 206.2 259.07C199.86 259.39 198.05 254.34 196.05 247.61Z" fill="white"/>
<path d="M207.86 263.77C200.58 210.36 199.2 210.46 201.12 210.18C201.383 210.143 201.649 210.212 201.861 210.371C202.073 210.53 202.213 210.767 202.25 211.03C209.53 264.44 210.91 264.34 209 264.62C209 264.62 208 264.34 207.86 263.77ZM227.25 302.2C227.095 301.984 227.032 301.715 227.075 301.452C227.118 301.19 227.264 300.955 227.48 300.8C227.696 300.645 227.965 300.582 228.228 300.625C228.49 300.668 228.725 300.814 228.88 301.03C233 306.77 234.45 306.97 236.76 306.03C243.55 303.36 240.96 293.03 233.6 293.48C233.04 293.48 232.46 293.6 231.84 293.68C226.11 294.48 222.65 291.26 221.43 288.28C217.93 279.69 230.7 272.86 235.32 283.01C235.375 283.13 235.406 283.259 235.412 283.39C235.417 283.522 235.396 283.653 235.351 283.776C235.305 283.9 235.236 284.013 235.146 284.11C235.057 284.207 234.95 284.285 234.83 284.34C234.711 284.395 234.581 284.426 234.45 284.431C234.318 284.437 234.187 284.416 234.064 284.37C233.94 284.325 233.827 284.256 233.73 284.166C233.633 284.077 233.555 283.97 233.5 283.85C233.5 283.79 232 280.69 229.41 280.03C228.592 279.883 227.751 279.924 226.951 280.149C226.151 280.375 225.412 280.778 224.79 281.33C223.872 282.036 223.221 283.034 222.947 284.16C222.672 285.285 222.79 286.47 223.28 287.52C224.23 289.85 226.97 292.33 231.57 291.7C232.23 291.61 232.86 291.53 233.45 291.49C242.98 290.8 246.45 304.36 237.45 307.89C232.91 309.73 230.4 306.58 227.25 302.2Z" fill="white"/>
<path d="M239.49 310.66C221.81 275.53 220.07 275.13 221.78 274.24C221.897 274.179 222.024 274.142 222.156 274.131C222.287 274.12 222.419 274.135 222.544 274.175C222.67 274.215 222.786 274.279 222.887 274.364C222.987 274.449 223.07 274.553 223.13 274.67C240.81 309.8 242.55 310.2 240.83 311.09C240.69 311.16 239.74 311.15 239.49 310.66ZM316.64 212.28C316.404 212.176 316.218 211.984 316.12 211.746C316.022 211.507 316.02 211.24 316.114 211C316.209 210.761 316.392 210.566 316.626 210.458C316.86 210.35 317.126 210.336 317.37 210.42C325.75 213.42 328.32 203.26 322.27 200.57C319.94 199.57 316.2 199.64 313.27 203.33C312.85 203.86 312.45 204.33 312.04 204.8C305.57 211.96 293.56 204.52 297.63 195.68C299.49 191.68 302.63 191.5 309.09 192.68C309.355 192.728 309.591 192.879 309.744 193.1C309.898 193.321 309.958 193.595 309.91 193.86C309.862 194.125 309.711 194.361 309.49 194.514C309.269 194.668 308.995 194.728 308.73 194.68C301.73 193.38 300.5 194.25 299.45 196.53C296.35 203.26 305.57 209 310.56 203.53C310.94 203.11 311.31 202.65 311.7 202.16C318.02 194.16 328.7 199.16 327.45 206.56C327 209.24 325.84 211.12 324 212.16C322.849 212.69 321.6 212.975 320.333 212.996C319.065 213.016 317.808 212.772 316.64 212.28Z" fill="white"/>
<path d="M331.39 209.85C293.87 196.6 292.39 197.54 293 195.71C293.042 195.585 293.108 195.47 293.194 195.37C293.281 195.271 293.386 195.19 293.504 195.131C293.622 195.072 293.751 195.038 293.882 195.029C294.013 195.02 294.145 195.038 294.27 195.08C331.8 208.34 333.27 207.4 332.66 209.23C332.557 209.467 332.372 209.66 332.139 209.774C331.906 209.887 331.641 209.914 331.39 209.85Z" fill="white"/>
<path d="M290.06 315.64C277.94 292.64 254.72 274.98 250.01 249.39C246.36 229.54 259.88 220.13 265.94 224.07C270.21 226.84 273.29 240.88 285.94 245.98C287.57 246.63 289.34 250.66 290.84 251.57C293.06 252.91 293.51 255.26 294.84 257.47C303.703 271.937 315.753 284.188 330.07 293.29C325.178 301.268 318.927 308.327 311.6 314.15C308.35 316.72 304.79 319.15 300.75 320C296.71 320.85 292.33 320 290.06 315.64Z" fill="#FFAD92"/>
<path d="M335.12 295.18C334.979 295.182 334.84 295.155 334.71 295.1C307.88 283.1 294.13 258.2 293.99 257.95C293.928 257.834 293.889 257.708 293.875 257.577C293.862 257.446 293.874 257.314 293.912 257.189C293.95 257.063 294.012 256.946 294.094 256.844C294.177 256.742 294.279 256.657 294.395 256.595C294.511 256.533 294.637 256.494 294.768 256.48C294.899 256.467 295.031 256.479 295.156 256.517C295.282 256.554 295.399 256.616 295.501 256.699C295.603 256.782 295.688 256.884 295.75 257C295.88 257.24 309.33 281.6 335.53 293.27C335.738 293.364 335.906 293.527 336.009 293.731C336.111 293.934 336.141 294.167 336.093 294.39C336.045 294.613 335.923 294.813 335.746 294.956C335.569 295.1 335.348 295.179 335.12 295.18ZM275 247.58C264.94 247.12 256 243.2 258.16 241.16C258.347 240.974 258.601 240.869 258.865 240.869C259.129 240.869 259.383 240.974 259.57 241.16C262.57 244.31 271.79 245.4 275.09 245.55C275.359 245.562 275.613 245.68 275.795 245.879C275.976 246.078 276.072 246.341 276.06 246.61C276.048 246.879 275.93 247.133 275.731 247.314C275.532 247.496 275.269 247.592 275 247.58ZM342.54 396.72C342.297 396.618 342.104 396.425 342.003 396.181C341.901 395.938 341.901 395.664 342 395.42C342.18 394.97 346.56 384.42 354.21 381.25C358.241 379.614 362.125 377.637 365.82 375.34C366.042 375.193 366.312 375.14 366.573 375.192C366.834 375.245 367.063 375.398 367.21 375.62C367.357 375.841 367.41 376.112 367.358 376.373C367.305 376.634 367.152 376.863 366.93 377.01C363.136 379.379 359.144 381.416 355 383.1C348.1 385.97 343.91 396.1 343.87 396.17C343.821 396.295 343.747 396.409 343.653 396.504C343.558 396.6 343.446 396.676 343.322 396.727C343.198 396.779 343.065 396.804 342.93 396.803C342.796 396.802 342.663 396.774 342.54 396.72Z" fill="#ED6C4D"/>
<path d="M409 257.11C406.603 267.391 405.461 277.924 405.6 288.48C405.609 290.131 406.17 291.732 407.194 293.028C408.218 294.323 409.645 295.239 411.25 295.63C422.631 298.399 434.349 299.534 446.05 299C447.706 298.917 449.286 298.281 450.538 297.193C451.789 296.105 452.638 294.628 452.95 293C454.819 282.708 455.55 272.242 455.13 261.79C455.074 260.184 454.498 258.639 453.488 257.389C452.478 256.139 451.089 255.252 449.53 254.86C438.495 252.116 427.117 251.004 415.76 251.56C414.189 251.644 412.685 252.227 411.469 253.226C410.253 254.224 409.388 255.585 409 257.11Z" fill="#00ABFE"/>
<path d="M374.66 193.07C372.262 203.351 371.12 213.884 371.26 224.44C371.269 226.091 371.83 227.692 372.854 228.988C373.878 230.284 375.305 231.2 376.91 231.59C388.31 234.348 400.045 235.465 411.76 234.91C413.417 234.829 414.998 234.194 416.249 233.105C417.501 232.017 418.35 230.539 418.66 228.91C420.523 218.617 421.254 208.152 420.84 197.7C420.783 196.094 420.206 194.551 419.196 193.301C418.186 192.051 416.798 191.163 415.24 190.77C404.205 188.026 392.827 186.914 381.47 187.47C379.883 187.546 378.364 188.132 377.137 189.141C375.91 190.15 375.041 191.528 374.66 193.07Z" fill="#FFB020"/>
<path d="M413 137.83C410.602 148.111 409.46 158.644 409.6 169.2C409.607 170.852 410.168 172.454 411.192 173.75C412.216 175.046 413.645 175.961 415.25 176.35C426.649 179.113 438.385 180.231 450.1 179.67C451.757 179.591 453.339 178.956 454.591 177.867C455.843 176.779 456.692 175.3 457 173.67C458.868 163.378 459.599 152.912 459.18 142.46C459.124 140.854 458.548 139.309 457.538 138.059C456.528 136.809 455.139 135.922 453.58 135.53C442.545 132.786 431.167 131.674 419.81 132.23C418.223 132.306 416.704 132.892 415.477 133.901C414.25 134.91 413.381 136.288 413 137.83Z" fill="#A369F7"/>
<path d="M381.59 57.88C380.582 68.3901 380.847 78.9836 382.38 89.43C382.61 91.0645 383.379 92.5753 384.566 93.7222C385.753 94.8692 387.289 95.5865 388.93 95.76C400.6 96.9875 412.386 96.5396 423.93 94.43C425.56 94.118 427.038 93.2669 428.126 92.0137C429.214 90.7605 429.85 89.1778 429.93 87.52C430.417 77.0714 429.747 66.601 427.93 56.3C427.666 54.7148 426.893 53.2588 425.727 52.1526C424.561 51.0465 423.067 50.3504 421.47 50.17C410.168 48.9161 398.743 49.3272 387.56 51.39C385.998 51.6821 384.572 52.4721 383.495 53.642C382.419 54.8118 381.751 56.2986 381.59 57.88Z" fill="#FF605B"/>
<path d="M420.5 67.53H407.5V59.92C407.5 55.05 400.13 55.05 400.13 59.92V67.53H389.13C384.22 67.53 384.22 75.22 389.13 75.22H400.13V84.46C400.13 89.33 407.5 89.34 407.5 84.46V75.22H420.5C425.41 75.22 425.42 67.53 420.5 67.53ZM409.67 221.7L400.75 212.24L406.29 207.02C409.83 203.68 404.79 198.32 401.24 201.66L395.7 206.88L388.13 198.88C387.46 198.169 386.535 197.753 385.558 197.723C384.581 197.693 383.633 198.051 382.92 198.72L382.68 198.95C381.971 199.62 381.557 200.544 381.529 201.519C381.501 202.494 381.861 203.44 382.53 204.15L390.1 212.15L383.37 218.49C379.83 221.82 384.87 227.19 388.42 223.85L395.15 217.51L404.07 226.98C404.401 227.332 404.798 227.616 405.239 227.814C405.68 228.012 406.156 228.121 406.639 228.135C407.122 228.149 407.603 228.068 408.055 227.895C408.506 227.723 408.919 227.463 409.27 227.13L409.51 226.91C410.221 226.24 410.637 225.315 410.667 224.338C410.697 223.361 410.339 222.413 409.67 221.7ZM417.15 153.52V154C417.15 154.963 417.509 155.891 418.156 156.605C418.802 157.318 419.692 157.766 420.65 157.86L448 160.51C451.51 160.85 452.36 156.99 452.21 157.23C452.289 156.715 452.263 156.19 452.133 155.685C452.004 155.18 451.774 154.707 451.458 154.294C451.141 153.88 450.744 153.534 450.291 153.278C449.838 153.021 449.338 152.859 448.82 152.8L421.46 149.67C420.918 149.608 420.368 149.661 419.848 149.826C419.328 149.992 418.849 150.265 418.442 150.629C418.035 150.992 417.709 151.438 417.487 151.936C417.264 152.434 417.149 152.974 417.15 153.52ZM416.33 278L443.7 280.66C448.8 281.16 449.57 273.53 444.51 272.95L417.15 269.82C411.91 269.19 411.18 277.48 416.33 278Z" fill="white"/>
<path d="M432.31 266.92C434.69 266.92 436.62 264.99 436.62 262.61C436.62 260.23 434.69 258.3 432.31 258.3C429.93 258.3 428 260.23 428 262.61C428 264.99 429.93 266.92 432.31 266.92Z" fill="white"/>
<path d="M429.82 292.67C432.2 292.67 434.13 290.74 434.13 288.36C434.13 285.98 432.2 284.05 429.82 284.05C427.44 284.05 425.51 285.98 425.51 288.36C425.51 290.74 427.44 292.67 429.82 292.67Z" fill="white"/>
</svg>
